<svg xmlns="http://www.w3.org/2000/svg" viewBox="0 0 31.5 31.5"><defs><style>.cls-1{fill:#30233f;}.cls-2{fill:#98de00;}.cls-3{fill:#fff;}.cls-4{fill:none;}</style></defs><title>audioLoud</title><g id="Layer_2" data-name="Layer 2"><g id="Layer_6" data-name="Layer 6"><path class="cls-1" d="M25.52,0H6A6,6,0,0,0,0,6V25.52a5.91,5.91,0,0,0,1.76,4.22l28-28A5.91,5.91,0,0,0,25.52,0Z"/><path class="cls-2" d="M1.76,29.74A5.91,5.91,0,0,0,6,31.5H25.52a6,6,0,0,0,6-6V6a5.91,5.91,0,0,0-1.76-4.22Z"/><path class="cls-3" d="M15.4,7.07,9.21,12.14h-5A1.19,1.19,0,0,0,3,13.33v7.29A1.18,1.18,0,0,0,4.19,21.8h5l6.23,4.53a.86.86,0,0,0,1.37-.69V7.74A.87.87,0,0,0,15.4,7.07Z"/><path class="cls-3" d="M23.81,16.5a5,5,0,0,1-4.09,4.91l-.91-.91a4,4,0,1,0,0-8l.91-.91A5,5,0,0,1,23.81,16.5Z"/><path class="cls-3" d="M26,16.5a7.22,7.22,0,0,1-4.53,6.7l-.75-.75a6.26,6.26,0,0,0,0-11.9l.75-.75A7.22,7.22,0,0,1,26,16.5Z"/><path class="cls-3" d="M28.19,16.5a9.4,9.4,0,0,1-5.05,8.33L22.33,24a8.31,8.31,0,0,0,0-15l.81-.81A9.4,9.4,0,0,1,28.19,16.5Z"/><line class="cls-4" x1="16.81" y1="22.76" x2="16.81" y2="21.5"/><polyline class="cls-4" points="16.81 25.89 16.81 24.81 16.81 23.73"/><line class="cls-4" x1="16.81" y1="11.5" x2="16.81" y2="10.24"/><polyline class="cls-4" points="16.81 7.11 16.81 8.19 16.81 9.27"/></g></g></svg>