<svg xmlns="http://www.w3.org/2000/svg" xmlns:xlink="http://www.w3.org/1999/xlink" viewBox="0 0 1017.62 211.5"><defs><style>.cls-1{fill:url(#linear-gradient);}.cls-2{fill:url(#linear-gradient-2);}.cls-3{fill:url(#linear-gradient-3);}.cls-4{fill:#98de00;}.cls-5{fill:#fff;}</style><linearGradient id="linear-gradient" x1="508.62" y1="211.74" x2="508.62" y2="7.35" gradientUnits="userSpaceOnUse"><stop offset="0" stop-color="#0392c7"/><stop offset="0.07" stop-color="#039ec7"/><stop offset="0.2" stop-color="#03b0c7"/><stop offset="0.36" stop-color="#03bdc7"/><stop offset="0.56" stop-color="#03c5c7"/><stop offset="1" stop-color="#03c7c7"/></linearGradient><linearGradient id="linear-gradient-2" x1="842.68" y1="220.56" x2="741.12" y2="100.53" gradientUnits="userSpaceOnUse"><stop offset="0" stop-color="#68910f"/><stop offset="1" stop-color="#98de00"/></linearGradient><linearGradient id="linear-gradient-3" x1="6.45" y1="229.21" x2="311.19" y2="138.79" xlink:href="#linear-gradient-2"/></defs><title>earth</title><g id="Layer_2" data-name="Layer 2"><g id="Earth"><path class="cls-1" d="M1017.24,211H0C130.07,80.65,309.93,0,508.62,0S887.17,80.65,1017.24,211Z"/><path class="cls-2" d="M1017.62,211.5,652,211c2.38-1.78,4.92-3.26,7.36-5s4.36-3.46,6.51-5.19c2.38-1.93,6.53-2.8,8.32-5.36,1-1.43.67-3.13.65-4.87-.06-3.74-.24-7.49.55-11.17s0-6.15-.65-9.55c-1.56-7.88-11.26-9.55-16.78-4.27.52-3,.39-5.86,3.43-7.45a32.21,32.21,0,0,1,4.76-2c.86-.23,1.78,0,2.58-.22.61-.18,1.44-.78,1.89-.9,1.66-.46,3.4-.19,5.09-.5.27-.05.78-.77,1.24-.9,1.21-.33,2.6-.08,3.88-.47,3-.93,6.13-2.34,9.09-3.5,2.8-1.1,5.08-3.75,8.16-4,.56-3.77,3.86-5.45,4.72-8.74a20.85,20.85,0,0,1,1.36-4.21c.89-1.93.28-1-.06-2.74-.69-3.61-.44-4.28,3.11-4.21,3,.06,5.95,0,8.93,0a35.26,35.26,0,0,0,4.48,0c2.32-.33,1.89.06,2.24-2.24.31-2-.07-4.93-1.39-6.46s-4.44-2.25-6.42-2.51a16.92,16.92,0,0,0-4.55,0c-1.34.33-1.56,1.85-3.18,1-.49-2.3,5.17-3.2,6.6-3.73,2.33-.85,4.33-2.08,6.65-2.77,6.41-1.91,9.57-8.2,13.48-13.18,1.77-2.25.45-5.08,2.83-7.5s7.6-4.66,11.07-5.06c3.2-.37,5.53.44,8.34,1.28,1.85.55,2.51,1.32,4,2.12,2.07,1.09,3.86,1.06,6.1,1.62a54.82,54.82,0,0,0,13.78,1.71c2.63,0,4.76.31,7.16-1.06,1.84-1,3.25-2.46,5.23-3.4,3.2-1.52,6.39-2.95,9.55-4.41,3.73-1.73,6.93-4.43,10.51-6.22,1.41-.71,3-1,4.42-1.65,1.75-.86,2.17-.62,4.06-1a10.52,10.52,0,0,0,1.15-.36L863.46,93.6c.25.36.49.72.73,1.09,1.63,2.49,2.26,4.34,4.88,5.72a39.59,39.59,0,0,0,4.89,2.07c3.5,1.27,7,2.44,10.5,3.55A720.52,720.52,0,0,1,1004,198c1.67,1.47,4.57,4.37,5.67,5.47Z"/><path class="cls-3" d="M369,211H0a721.78,721.78,0,0,1,58.82-52.82,28.69,28.69,0,0,0,6.43-.17c3.22-.66,6.17-2.73,9.15-4s6.06-2.35,9.06-3.6c14.51-6,26.34-17.39,40.86-23.58,3.9-1.66,10.18-4.19,12.72-7.58.71-1,1.21-1.93,2-3,3.37-4.5,7.25-8.65,10.48-13.35,1.74-2.54,2.8-2.7,4.9-4.2,3.6-2.59,15.71-11.15,18.16-3.16.71,2.3.3,7.72,0,10.13-.19,1.35-1.7,3.14-1.25,4.49s4.21,1.47,5.74,1.12a20,20,0,0,0,4.45-2.26c2.61-1.66,5.41-2.72,8-4.44a93.7,93.7,0,0,1,17.56-9.54A54.47,54.47,0,0,1,215,92.52c2.23-.47,4.47.11,6.67-.47,3.58-.94,7.83-2.27,10,1.37,2.39,4,.3,9,1.1,13.49.47,2.67,3,5.25,5.55,6.6,1.75.92,3.88,1.4,5.63,2.48,2.06,1.26,4,3.27,6.39,4,7,2.22,14.87-2.21,21.46-3.21,3.32-.5,6-3.84,9.21-5.28,2.88-1.28,5.72-1.18,8.74-1.33,2.73-.14,5.19-1.2,7.75-2,1.78-.54,5-2.06,6.81-1.49,2.26.71,2.86,5.53,3.57,7.67,1.23,3.67.82,7.34.82,11.24,0,2.15.36,4.63-.17,6.7A57,57,0,0,0,295.91,136c-3.68,1.68-7.82,2.7-11.27,4.9a30.71,30.71,0,0,1-8.34,4c-5.42,1.38-10.34,3.52-14.18,8a53.69,53.69,0,0,0-3.9,5c-1,1.42-3.59,3.22-4.1,4.82s2.27,4.51,3.35,6c1.67,2.24,2.65,2.16,4.9.7a21.08,21.08,0,0,1,7.25-3.11,153.59,153.59,0,0,0,19.51-5.7c5.27-2.06,12.62-4.48,18.4-4.59,4.69-.09,9.08,0,13.52-.87a42.5,42.5,0,0,1,8-.25c1.45,0,4-.49,5.39.19.94.47,2.56,2.84,3.32,3.59,1.37,1.36,3.35,3,4.3,4.67,1.73,3,3.49,6.43,6.31,8.77a16.73,16.73,0,0,0,3.27,2.35c1.64.78,3.22.27,4.9.69.17,2,.91,3,1.33,4.81.49,2.06-.11,3.18,1.07,5.06,1.8,2.87,4.62,3.3,6.72,5.56,1.23,1.32.92,2.14,1.34,4.25,0,.21.82.85.93,1.3.24,1-.14,2.37-.09,3.41.1,2,1.06,3.55,1.17,5.58S369,209,369,211Z"/><path class="cls-4" d="M575.49,159.27c-1.94,0-4.9-.65-6.7-.18-2.32.61-4.56,7.59-4.35,10.08,3.27.77,5.69-.15,8.87,1.27a12.66,12.66,0,0,1,3.33,1.76c1.39,1.51,1.73,6.47,2,8.31a46.4,46.4,0,0,1,.22,7c0,1.7-.78,5.56.17,7.06,1.23,1.92,4.58,1.86,6.56,1.6,2.68-.36,2.6-2,4.66-3.16,1.9-1.06,4.82.07,4.35-3.56-.39-3-3.8-1.61-4.63-4.42a10.89,10.89,0,0,1,0-3.42c.3-2-.23-1.73,1.64-2.26,2.19-.63,5.84,0,8.17,0,3.22,0,5.18-.72,1.64-2.5-2-1-3.82-.6-5.57-2.24-1.22-1.14-3.11-3.31-3.54-4.84-.77-2.7.7-6,0-8.66-.62-2.37-3.23-3.31-5.69-3s-4.07,1.15-6.92,1.13-5.78,0-8.68,0"/><path class="cls-5" d="M634.28,11c-2,2.82-4.49,4.31-7.75,6.25-3.91,2.32-9.34,7-14.25,4.26-1.28-.71-1-1.65-2.71-1.8-1.28-.12-2.29.69-3.39,1.2-1.39.64-2.35,1.27-3.93,1.16-1.1-.07-1.72-.81-2.45-.94-3.48-.6-6.24,5.39-10.11,6.36-4.19,1-7.48.3-10.29-2.68a8.67,8.67,0,0,0-4.51-2.8,5.5,5.5,0,0,1-2.2-1.1,8.07,8.07,0,0,1-3-5.5c-1.49-.3-4.23,2.71-5.3,3.49-2.36,1.71-5.47,5.48-8.23,6.36-3.55,1.13-7,.51-7.65-3.18-2.61-.69-5.53,5.76-8,6.55-1.7.55-4.85.26-6.62-.14-2.78-.62-4.82-2.79-7.62-3.2a27.17,27.17,0,0,0-5.41,0c-4.19.39-7.54,4-11.58,1.5-2.1-1.31-2.18-1.74-4.93-.37-4.66,2.32-9,5.49-13.68,7.77-2.18,1-3.86,2-4.61-.44-.69-2.26,0-4.92-1-7.31s-1.19-1.6-3.37-2.13-2.64-2.07-4.22-3.49c-1.28-1.15-2.67-1.31-4.58-1.09-3.78.44-7.06,1.2-10.94,1.2a14.77,14.77,0,0,1-5.9-.81c-2.4-.94-3.63-2.39-5.64-3.76-3.58-2.45-10.42-1-14.59-1-1.45,0-2.91,0-4.36,0-1.75,0-2.24-.48-3.6-.86a8.54,8.54,0,0,0-8.71,1.95c-1.74,1.81-.93,1.66-3.19,2.23-3.22.81-6.61,1.07-9.8,2a100.17,100.17,0,0,0-12.46,4.93c-5.82,2.5-11.7,4.7-17.54,7.07-3,1.23-6.71,1.14-9.58,2.75-2.56,1.45-2.14,2.91-5.06,1.65-4.79-2.06-6.37-8.81-12.16-9.46-2.49-.29-5.36.58-7.81.07-1.31-.26-2-.91-3.36-1.2a6.73,6.73,0,0,0-6,1.67,7,7,0,0,0-1.83,2.29c-.3.63-.18,2.21-.67,2.61-1.46,1.19-3.48-.55-4.83-.85s-3,.12-4.48,0c-3.16-.35-3.08-2.63-4.72-5.35l-.27-.43A724.6,724.6,0,0,1,634.28,11Z"/></g></g></svg>