<svg xmlns="http://www.w3.org/2000/svg" viewBox="0 0 253.87 97.98"><defs><style>.cls-1{fill:#30233f;}.cls-2{fill:#d90e79;}.cls-3{font-size:42.56px;fill:#fff;font-family:Mono45Headline-Regular, Mono45-Headline;letter-spacing:0.07em;}.cls-4{letter-spacing:-0.19em;}</style></defs><title>logo</title><g id="Layer_2" data-name="Layer 2"><g id="Logo"><path class="cls-1" d="M0,49.69A47.6,47.6,0,1,1,47.6,97.28,47.6,47.6,0,0,1,0,49.69"/><path class="cls-2" d="M47.37,0A48.42,48.42,0,0,0,15.16,12.22,48,48,0,0,1,58.22,59.93,47.85,47.85,0,0,1,40.93,96.8,48.61,48.61,0,1,0,47.37,0Z"/><polygon class="cls-2" points="82.51 71.48 85.39 71.48 85.39 71.55 85.39 71.55 86.26 71.55 87.14 71.55 87.14 71.31 82.53 71.3 82.51 71.48"/><polygon class="cls-2" points="75.81 71.13 75.81 71.55 76.41 71.55 77.25 71.55 77.25 71.48 80.19 71.48 80.16 71.12 75.81 71.13"/><path class="cls-2" d="M87.35,67.77h4.72v0H87.35Z"/><path class="cls-1" d="M87.35,67.77v0h4.73a48.6,48.6,0,0,0,2.65-8.13c-2.66-2.83-5.68-6.08-6.06-7.21-1.35-4-3.46-18.19-3.46-18.19h0s-1.18-10.71-3.49-13a.59.59,0,0,0-.59,0c-2.43,2.11-3.45,13-3.46,13h0S75.33,48.36,74,52.41c-.56,1.69-7,8.11-9.39,10.82-1.43,3-.85,4.52-.85,4.52H75.56a14.79,14.79,0,0,0-.18,2.73v3.33h.21v-.52H77a2.53,2.53,0,0,0,0,.49s.11.06.27.1l0,.11a3.55,3.55,0,0,0-.15.71s0,0,0,0a6.93,6.93,0,0,0,0,1c0,.14.73.32,1.67.42s1.7.06,1.71-.07l0,0h0a5.56,5.56,0,0,0,.14-1h.28c0,.9.07,1.79.14,2.56a7.24,7.24,0,0,0,.3,1.9.17.17,0,0,0,0,0s0,0,0,0,0,.06.06.06h0c.25,0,.45-1.68.48-3.81,0-.26,0-.52,0-.79h.37a.25.25,0,0,0,0,.08h0a5,5,0,0,0,.14.89h0v0c0,.13.78.16,1.71.07s1.68-.28,1.66-.42a5.85,5.85,0,0,0,0-1.13v0a4.38,4.38,0,0,0-.12-.59l0-.11c.16,0,.26-.07.26-.1a2.2,2.2,0,0,0,0-.52h1.37v.11h.21v.53h.21V70.54L91,70c.36-.74.71-1.49,1-2.26Zm-10.1,3.71v.07H75.81v-.42h4.35l0,.36Zm9.89.07H85.39v-.07H82.51l0-.18h4.61Z"/><polygon class="cls-1" points="69.28 67.78 63.65 67.76 63.63 68.78 69.26 69.61 69.26 69.49 69.27 69.49 69.28 67.82 69.28 67.82 69.28 67.78"/><polygon class="cls-1" points="69.5 69.5 69.5 69.73 75.3 70.58 75.3 67.78 69.5 67.78 69.5 69.5"/><text class="cls-3" transform="translate(111.5 50.06)">Rocket<tspan class="cls-4" x="131.51" y="0"> </tspan><tspan x="0" y="36">Force</tspan></text></g></g></svg>