<svg xmlns="http://www.w3.org/2000/svg" xmlns:xlink="http://www.w3.org/1999/xlink" viewBox="0 0 162.45 98.99"><defs><style>.cls-1{fill:url(#linear-gradient);}.cls-11,.cls-2{fill:#fff;}.cls-3{fill:url(#linear-gradient-2);}.cls-4{fill:#020000;}.cls-5{fill:#1b1d1e;}.cls-6{fill:url(#linear-gradient-3);}.cls-7{fill:#30233f;}.cls-8{fill:url(#linear-gradient-4);}.cls-10,.cls-12,.cls-9{fill:none;}.cls-11,.cls-9{stroke:#000;}.cls-10,.cls-11,.cls-12,.cls-9{stroke-miterlimit:10;}.cls-9{stroke-width:0.1px;}.cls-10{stroke:#908fb2;}.cls-11{stroke-width:0.1px;}.cls-12{stroke:#020000;stroke-width:0.39px;}</style><linearGradient id="linear-gradient" x1="32.44" y1="58.36" x2="34.07" y2="58.36" gradientUnits="userSpaceOnUse"><stop offset="0" stop-color="#f2f2f2"/><stop offset="1" stop-color="#fff"/></linearGradient><linearGradient id="linear-gradient-2" x1="-1468.85" y1="-189.23" x2="-1467.3" y2="-189.23" gradientTransform="matrix(-0.97, -0.23, -0.23, 0.97, -1342.52, -56.72)" xlink:href="#linear-gradient"/><linearGradient id="linear-gradient-3" x1="-1381.88" y1="-191.57" x2="-1340.66" y2="-191.57" gradientTransform="matrix(-0.97, -0.23, -0.23, 0.97, -1342.52, -56.72)" gradientUnits="userSpaceOnUse"><stop offset="0"/><stop offset="0.04" stop-color="#060606"/><stop offset="0.2" stop-color="#1a1a1a"/><stop offset="0.39" stop-color="#282828"/><stop offset="0.61" stop-color="#313131"/><stop offset="1" stop-color="#333"/></linearGradient><linearGradient id="linear-gradient-4" x1="-1421.46" y1="-187.2" x2="-1421.56" y2="-197.84" gradientTransform="matrix(-0.97, -0.23, -0.23, 0.97, -1342.52, -56.72)" gradientUnits="userSpaceOnUse"><stop offset="0" stop-color="#666"/><stop offset="0.03" stop-color="#747474"/><stop offset="0.12" stop-color="#999"/><stop offset="0.21" stop-color="#b8b8b8"/><stop offset="0.32" stop-color="#d2d2d2"/><stop offset="0.43" stop-color="#e6e6e6"/><stop offset="0.56" stop-color="#f4f4f4"/><stop offset="0.72" stop-color="#fdfdfd"/><stop offset="1" stop-color="#fff"/></linearGradient></defs><title>rocket</title><g id="Layer_2" data-name="Layer 2"><g id="Rocket"><circle class="cls-1" cx="33.26" cy="58.36" r="0.82"/><path class="cls-2" d="M52.72,45.42l.87-3.74-23-36.87L19.27,2.19l4.17,25.63s.21,3.76,2.71,6a40.41,40.41,0,0,1,5.12,5.9Z"/><circle class="cls-3" cx="130.36" cy="90.53" r="0.78"/><path class="cls-4" d="M30.08,39.26l-5.77-3.34s-2.07,1.14-2.64,4.56.18,4.92.18,4.92l8.94-1.3Z"/><path class="cls-4" d="M26.61,52.8l-5.85-7.4a9.2,9.2,0,0,0-5.67,3.78,10.7,10.7,0,0,0-1.25,7.08l11.35,2.66Z"/><polygon class="cls-5" points="49.79 56.4 25.16 50.69 23.35 58.49 48.05 63.88 49.79 56.4"/><path class="cls-6" d="M46.1,72.3s-29.42-10-33-12.51S7.58,56,7.58,56l40.15,9.31Z"/><polygon class="cls-7" points="49.6 44.7 50.35 41.5 29.89 4.65 30.59 4.81 31.32 5.97 53.59 41.68 52.72 45.42 51.88 47.39 49.6 44.7"/><path class="cls-2" d="M138.66,70.8,52.35,45.34l-6.25,27,107,26.33a8.62,8.62,0,0,0,3,.21c2.2-.23,5.55-.85,6-3s-2.49-4.94-4.75-6.64a37.32,37.32,0,0,1-3.54-3.11L139.38,71.24A1.58,1.58,0,0,0,138.66,70.8Z"/><polygon class="cls-8" points="131.51 93.33 86.48 79.43 57.98 66.95 39.5 62.24 39.95 70.95 131.51 93.33"/><path class="cls-5" d="M51.88,47.39s-1-3.54-9.56-6.08-12.19-3.68-12.19-3.68L27,51.12,49.79,56.4Z"/><line class="cls-9" x1="127.65" y1="78.1" x2="125.51" y2="91.48"/><polygon class="cls-7" points="22.12 20.33 28.55 17.91 25.54 7.33 19.9 6.02 22.12 20.33"/><polygon class="cls-7" points="23.8 29.95 32.79 31.91 28.6 18.18 22.22 20.61 23.8 29.95"/><path class="cls-7" d="M133.88,75.58l1.62.37a.54.54,0,0,0,.66-.48l.14-1.74a.54.54,0,0,0-.42-.57l-1.14-.27a.54.54,0,0,0-.63.34l-.61,1.63A.55.55,0,0,0,133.88,75.58Z"/><path class="cls-7" d="M137.34,76.26l1.82,0a.37.37,0,0,0,.36-.29l.35-1.45a.38.38,0,0,0-.29-.46l-1.73-.4a.38.38,0,0,0-.45.28L137,75.79A.38.38,0,0,0,137.34,76.26Z"/><path class="cls-7" d="M140.58,76.37l3.12.15A.33.33,0,0,0,144,76L142.07,74a.33.33,0,0,0-.31-.09l-.87.21a.31.31,0,0,0-.24.24L140.28,76A.32.32,0,0,0,140.58,76.37Z"/><path class="cls-10" d="M132.58,86s4-16-7-29-19-7-19,1,31.39,12.19,25-7c-13.5-40.5-54.5-38.5-54.5-38.5L.08.49"/><ellipse class="cls-4" cx="112.46" cy="79.16" rx="1.09" ry="1.73" transform="translate(9.95 170.83) rotate(-76.95)"/><ellipse class="cls-4" cx="85.14" cy="71.7" rx="1.09" ry="1.73" transform="translate(-3.94 138.45) rotate(-76.95)"/><ellipse class="cls-4" cx="69.35" cy="66.92" rx="1.09" ry="1.73" transform="translate(-11.51 119.36) rotate(-76.95)"/><polygon class="cls-11" points="53.09 57.68 71.43 62.54 73.94 51.71 55.73 46.33 53.09 57.68"/><polygon class="cls-11" points="71.43 62.54 90.66 67.63 93.04 57.34 73.94 51.71 71.43 62.54"/><polygon class="cls-11" points="90.66 67.62 110.47 73.26 112.82 63.12 93.04 57.34 90.66 67.62"/><polygon class="cls-11" points="110.47 73.26 127.65 78.1 129.94 68.23 112.82 63.12 110.47 73.26"/><circle class="cls-4" cx="90.1" cy="66.85" r="0.29"/><circle class="cls-4" cx="90.37" cy="65.71" r="0.29"/><circle class="cls-4" cx="91.62" cy="67.2" r="0.29"/><circle class="cls-4" cx="91.88" cy="66.06" r="0.29"/><circle class="cls-4" cx="54.11" cy="56.91" r="0.29"/><circle class="cls-4" cx="54.37" cy="55.77" r="0.29"/><path class="cls-5" d="M159.36,95.19l-.74,3.2c1.44-.15,4-1.53,3.82-3s-.7-2.25-2.15-3.66Z"/><path class="cls-5" d="M58.54,67.08s-6.12,2.37-9.2,1.62-10-4.14-10-4.14l.16-2.32,6.85.47Z"/><polyline class="cls-5" points="131.51 93.33 86.48 79.43 57.98 66.95"/><line class="cls-9" x1="110.47" y1="73.26" x2="80.44" y2="74.9"/><line class="cls-9" x1="76.79" y1="64.06" x2="74.7" y2="73.07"/><path class="cls-5" d="M158.85,90.31s-1.68,6.77-1.95,8.42c-.48.42-2.54.22-2.54.22l-22.28-5.49,1.8-4.18c-.53-.15-1.72-.39-2.23-.51l-2-.45a6.86,6.86,0,0,1-.57-3.73,3.58,3.58,0,0,1,4.31-2.67,4.24,4.24,0,0,1,1.28.44l9.42,4.74a4.12,4.12,0,0,0,5.87-2.75l.41-1.77L154.59,87"/><path class="cls-2" d="M129.88,85.06a3,3,0,1,1,5.85,1.36,5.34,5.34,0,0,1-1.5,2,19.3,19.3,0,0,0-1.92-.5c-.7-.17-1.35-.38-2.14-.55A4.85,4.85,0,0,1,129.88,85.06Z"/><circle class="cls-12" cx="132.69" cy="85.71" r="1.27"/></g></g></svg>