<svg xmlns="http://www.w3.org/2000/svg" xmlns:xlink="http://www.w3.org/1999/xlink" viewBox="0 0 80.8 76.65"><defs><style>.cls-1{fill:url(#linear-gradient);}.cls-2{fill:url(#linear-gradient-2);}.cls-3{fill:url(#linear-gradient-3);}.cls-4{fill:#fff;}</style><linearGradient id="linear-gradient" x1="-10.62" y1="45.86" x2="93.57" y2="44.75" gradientTransform="translate(-12.47 19.03) rotate(-23.99)" gradientUnits="userSpaceOnUse"><stop offset="0" stop-color="#fff"/><stop offset="1" stop-color="#30233f" stop-opacity="0"/></linearGradient><linearGradient id="linear-gradient-2" x1="8.77" y1="54.53" x2="76.98" y2="20.42" gradientTransform="translate(-12.47 19.03) rotate(-23.99)" gradientUnits="userSpaceOnUse"><stop offset="0" stop-color="#d90e79"/><stop offset="1" stop-opacity="0"/></linearGradient><linearGradient id="linear-gradient-3" x1="11.18" y1="59.34" x2="79.39" y2="25.23" gradientTransform="translate(-12.47 19.03) rotate(-23.99)" gradientUnits="userSpaceOnUse"><stop offset="0" stop-color="#fd5d77"/><stop offset="1" stop-color="#30233f" stop-opacity="0.2"/></linearGradient></defs><title>shootingStar</title><g id="Layer_2" data-name="Layer 2"><g id="Shooting_Star" data-name="Shooting Star"><path class="cls-1" d="M76.24,49.93c.47.24,1,.45,1.43.65A79.63,79.63,0,0,0,3.78,73.51a79.62,79.62,0,0,1,77-61.66,20.36,20.36,0,0,0-4.56,38.08Z"/><path class="cls-2" d="M67.67,36.83c.5.12,1,.23,1.49.32a76.75,76.75,0,0,0-65,36.62A76.7,76.7,0,0,1,64.24,0a19.65,19.65,0,0,0,3.43,36.83Z"/><path class="cls-3" d="M70.76,43.32c.47.17.95.33,1.44.46A76.82,76.82,0,0,0,3.83,73.63,76.72,76.72,0,0,1,71.08,6.33a19.64,19.64,0,0,0-.32,37Z"/><polygon class="cls-4" points="8.35 73 5.52 73.84 4.62 76.65 2.94 74.22 0 74.22 1.79 71.88 0.88 69.08 3.65 70.06 6.04 68.33 5.96 71.28 8.35 73"/></g></g></svg>