<svg xmlns="http://www.w3.org/2000/svg" xmlns:xlink="http://www.w3.org/1999/xlink" viewBox="0 0 288.54 323.91"><defs><style>.cls-1{fill:url(#linear-gradient);}.cls-2{fill:url(#linear-gradient-2);}.cls-3{fill:url(#linear-gradient-3);}.cls-4{fill:url(#linear-gradient-4);}.cls-5{fill:#908fb2;}.cls-6{fill:#ccccc6;}.cls-10,.cls-11,.cls-12,.cls-7{fill:none;stroke-miterlimit:10;}.cls-7{stroke:#908fb2;}.cls-8{fill:#4d4d4d;}.cls-9{fill:#30233f;}.cls-10{stroke:#000;stroke-width:1.3px;}.cls-11,.cls-12{stroke:#ccccc6;}.cls-12{stroke-linecap:round;}.cls-13{fill:#fff;}</style><linearGradient id="linear-gradient" x1="113.08" y1="31.9" x2="117.08" y2="31.9" gradientTransform="translate(18.38 26.56) rotate(10.72)" gradientUnits="userSpaceOnUse"><stop offset="0" stop-color="#f2f2f2"/><stop offset="1" stop-color="#fff"/></linearGradient><linearGradient id="linear-gradient-2" x1="189.47" y1="302" x2="193.47" y2="302" gradientTransform="matrix(1, 0, 0, 1, 0, 0)" xlink:href="#linear-gradient"/><linearGradient id="linear-gradient-3" x1="268.47" y1="91" x2="272.47" y2="91" gradientTransform="matrix(1, 0, 0, 1, 0, 0)" xlink:href="#linear-gradient"/><linearGradient id="linear-gradient-4" x1="158.47" y1="2" x2="162.47" y2="2" gradientTransform="matrix(1, 0, 0, 1, 0, 0)" xlink:href="#linear-gradient"/></defs><title>space man</title><g id="Layer_2" data-name="Layer 2"><g id="Space_Man" data-name="Space Man"><circle class="cls-1" cx="125.53" cy="79.31" r="2"/><circle class="cls-2" cx="191.47" cy="302" r="2"/><circle class="cls-3" cx="270.47" cy="91" r="2"/><circle class="cls-4" cx="160.47" cy="2" r="2"/><path class="cls-5" d="M111.64,166.63a9.66,9.66,0,0,0-2.51-2.73,22,22,0,0,0-3.22-2.06A39.47,39.47,0,0,0,98.75,159a82.33,82.33,0,0,0-15.21-2.8c-5.16-.5-10.34-.7-15.53-.69s-10.43.25-15.66.27-10.48,0-15.74-.08-10.54-.38-15.87-1.05a57,57,0,0,1-8.06-1.57,27.58,27.58,0,0,1-4.06-1.47,17.24,17.24,0,0,1-3.95-2.44,12.74,12.74,0,0,1-3.15-3.88,13.38,13.38,0,0,1-1.43-4.74,15.27,15.27,0,0,1,.26-4.87A18.6,18.6,0,0,1,2,131.26a25.51,25.51,0,0,1,5.65-6.9,42.33,42.33,0,0,1,7-4.88,77.33,77.33,0,0,1,15.12-6.28,160.92,160.92,0,0,1,31.45-5.71,315.21,315.21,0,0,1,31.61-1.12l3.94.06,3.91.22c2.6.13,5.2.35,7.8.51l7.79.53c1.3.08,2.59.13,3.86.16a10.33,10.33,0,0,0,1.75-.08s.08,0,0,0a.58.58,0,0,0-.09.3.37.37,0,0,0,.11.26c.09.06-.05-.09-.15-.14a6.24,6.24,0,0,0-.82-.4l.13-.68a5.61,5.61,0,0,1,1.06.14,1.3,1.3,0,0,1,.69.35.77.77,0,0,1,.19.49.87.87,0,0,1-.18.51,1.32,1.32,0,0,1-.39.32,8.87,8.87,0,0,1-2.07.75c-1.32.37-2.63.6-3.94.84-2.62.47-5.25.79-7.87,1.08s-5.24.53-7.86.69l-3.93.25-3.89.11c-10.37.28-20.72.87-31,2q-7.68.78-15.26,2.06A144.75,144.75,0,0,0,31.7,120a75.24,75.24,0,0,0-13.92,5.3c-4.26,2.28-8.23,5.21-10.38,8.94a12.34,12.34,0,0,0-1.15,2.85A9.28,9.28,0,0,0,6,140a7.26,7.26,0,0,0,2.33,5,16.47,16.47,0,0,0,5.88,3.08,52.16,52.16,0,0,0,7.25,1.72c5,.84,10.17,1.3,15.34,1.64s10.38.56,15.58.73l15.68.47c5.26.23,10.51.67,15.73,1.41a83.49,83.49,0,0,1,15.42,3.56,39.69,39.69,0,0,1,7.24,3.3,22.41,22.41,0,0,1,3.25,2.33,10.26,10.26,0,0,1,2.58,3.16Z"/><rect class="cls-6" x="108.18" y="189.93" width="52.75" height="120.84" rx="12" transform="translate(48.91 -20.66) rotate(10.72)"/><rect class="cls-6" x="134.23" y="235.83" width="120.84" height="51.79" rx="12" transform="translate(-98.71 404.31) rotate(-79.28)"/><line class="cls-7" x1="250.01" y1="7.25" x2="236.65" y2="77.82"/><path class="cls-8" d="M103.57,99.4a14,14,0,0,1,16.31-11.12l1.31-7a21,21,0,0,0-7.82,41.32l1.32-7A14,14,0,0,1,103.57,99.4Z"/><rect class="cls-8" x="112.91" y="69.28" width="150.7" height="104.76" rx="12" transform="translate(25.91 -32.89) rotate(10.72)"/><rect class="cls-9" x="108.94" y="75.91" width="150.7" height="133.4" rx="12" transform="translate(29.74 -31.79) rotate(10.72)"/><path class="cls-5" d="M287.74,153.6a45.27,45.27,0,0,0-35.63-52.81l-1.59,8.42a36.92,36.92,0,0,1-13.73,72.55l-1.51,8A45.27,45.27,0,0,0,287.74,153.6Z"/><path class="cls-5" d="M235.87,180.11l-.62-.11"/><rect class="cls-8" x="167.83" y="257.03" width="51.79" height="19.21" rx="9.61" transform="translate(52.97 -31.38) rotate(10.72)"/><rect class="cls-8" x="107.89" y="245.69" width="51.79" height="19.21" rx="9.61" transform="translate(49.81 -20.43) rotate(10.72)"/><line class="cls-10" x1="114.46" y1="157.5" x2="111.51" y2="160.33"/><path class="cls-6" d="M195.22,122.43l-19.49,103-.14-.1c-1.53-1-3.11-1.9-4.71-2.77-1.27-.69-2.55-1.35-3.84-2a84.3,84.3,0,0,0-48.73-7.28,21.32,21.32,0,0,1-1.27-12.2l11.86-62.69a21.39,21.39,0,0,1,4.93-10.12,96.78,96.78,0,0,1,52.1-7.52c1.82.23,3.64.53,5.47.88C192.69,121.86,194,122.14,195.22,122.43Z"/><path class="cls-9" d="M253,259.63c0,.22-.09.45-.14.67A40,40,0,0,1,247,270.45a69.3,69.3,0,0,1-10.29,10.23,13.33,13.33,0,0,1-22.88-11.55,4.71,4.71,0,0,1,.12-.54c1.46-11.06,9.2-20.61,4.1-15-2.24,2.47-4.18,3.67-5.77,4.06h0a4,4,0,0,1-5.08-3.29,4.15,4.15,0,0,1,0-1.16c.46-3.38,4.1-9.68,11.65-13.37a10.72,10.72,0,0,0,1.74-1.09l0,0c3.82-3,6.46-8.76,7.54-11.46h0l.12-.27a1,1,0,0,1,1.5-.49c13.8,9,22.21,29.84,23.25,32.56C253.06,259.25,253,259.44,253,259.63Z"/><path class="cls-6" d="M267.45,234.73a97.2,97.2,0,0,1-10.21,28.61,1.37,1.37,0,0,1-2.38,0v0a83.79,83.79,0,0,0-31.51-31,21.23,21.23,0,0,0,5-10.22l11.87-62.68A21.41,21.41,0,0,0,238,145.2,97.27,97.27,0,0,1,267.45,234.73Z"/><path class="cls-9" d="M231.7,204.5A83.72,83.72,0,0,1,266,237c.38.66.41.69.75,1.31l.05.09c0,.06-.07.13-.11.2v0a9,9,0,0,0-.5,2.1,7.92,7.92,0,0,1-.75,2.76,86.1,86.1,0,0,0-34.82-33Z"/><path class="cls-6" d="M240.23,159.46l-11.87,62.68a21.23,21.23,0,0,1-5,10.22,83.95,83.95,0,0,0-47-10.43c-1.84.13-3.68.33-5.5.59q-2.12.28-4.2.69l-.16,0,19.49-103c1.28.19,2.56.39,3.85.64a97.15,97.15,0,0,1,34.35,13.6A95.44,95.44,0,0,1,238,145.2,21.41,21.41,0,0,1,240.23,159.46Z"/><path class="cls-8" d="M240.23,159.46l-11.87,62.68a21.23,21.23,0,0,1-5,10.22,21.56,21.56,0,0,1-20.15,6.95l-69-13.06a21.56,21.56,0,0,1-15.89-13,21.32,21.32,0,0,1-1.27-12.2l11.86-62.69a21.59,21.59,0,0,1,25.18-17.15l69,13.06,1.14.24a21.64,21.64,0,0,1,16,24.93Z"/><path class="cls-9" d="M151.76,301.27l-.3,1.56a12.15,12.15,0,0,1-14.24,9.52l-27.81-5.27A12.14,12.14,0,0,1,99.63,293l.61-3.22a27,27,0,0,1,51.52,11.47Z"/><path class="cls-9" d="M211.69,312.61l-.29,1.56a12.15,12.15,0,0,1-14.24,9.52l-27.81-5.26a12.15,12.15,0,0,1-9.78-14.07l.61-3.22a27,27,0,0,1,51.51,11.47Z"/><rect class="cls-9" x="130.86" y="157.81" width="93.91" height="51.35" rx="2.83" transform="translate(37.23 -29.87) rotate(10.72)"/><rect class="cls-5" x="130.3" y="160.76" width="93.91" height="51.35" rx="2.83" transform="translate(37.77 -29.71) rotate(10.72)"/><rect class="cls-9" x="140.17" y="166.67" width="80.5" height="10.6" rx="2.39" transform="translate(35.13 -30.55) rotate(10.72)"/><rect class="cls-9" x="136.53" y="177.59" width="18.26" height="21.42" rx="2.74" transform="translate(37.56 -23.81) rotate(10.72)"/><rect class="cls-9" x="161.12" y="186.64" width="56.79" height="2.09" rx="1.05" transform="translate(38.21 -31.97) rotate(10.72)"/><rect class="cls-9" x="160.19" y="191.55" width="56.79" height="2.09" rx="1.05" transform="translate(39.11 -31.71) rotate(10.72)"/><rect class="cls-9" x="158.33" y="201.38" width="56.79" height="2.09" rx="1.05" transform="translate(40.9 -31.19) rotate(10.72)"/><circle class="cls-5" cx="249.97" cy="6.89" r="5.95"/><line class="cls-11" x1="175.41" y1="267.55" x2="211.74" y2="274.43"/><path class="cls-5" d="M206.31,22.79a66.26,66.26,0,0,0-77.42,52.78l130.2,24.65A66.27,66.27,0,0,0,206.31,22.79Z"/><line class="cls-11" x1="175.97" y1="264.6" x2="212.3" y2="271.48"/><line class="cls-11" x1="176.53" y1="261.65" x2="212.86" y2="268.53"/><line class="cls-11" x1="116.46" y1="256.39" x2="152.79" y2="263.27"/><line class="cls-11" x1="117.02" y1="253.44" x2="153.35" y2="260.32"/><line class="cls-11" x1="117.57" y1="250.5" x2="153.91" y2="257.37"/><path class="cls-12" d="M164.74,300.61s8.76-14.06,24.3-11.12C200,291.56,203,298.15,203,298.15"/><path class="cls-9" d="M181.66,153a66.24,66.24,0,0,0,77.42-52.77L128.89,75.57A66.25,66.25,0,0,0,181.66,153Z"/><path class="cls-8" d="M127.68,81.93c-6.8,36,19.92,54.28,55.87,61.08s67.53-.48,74.33-36.43a66.26,66.26,0,0,0-130.2-24.65Z"/><path class="cls-6" d="M248.12,104.73a56.32,56.32,0,0,0-110.67-21c-5.79,30.56,18.67,39.89,49.23,45.68S242.33,135.29,248.12,104.73Z"/><path class="cls-8" d="M148.26,308.83l0,.1a12.28,12.28,0,0,1-11,3.42l-27.81-5.27a12.31,12.31,0,0,1-9.07-7.32Z"/><path class="cls-8" d="M208.2,320.17l0,.1a12.27,12.27,0,0,1-11,3.42l-27.82-5.26a12.31,12.31,0,0,1-9.06-7.33Z"/><path class="cls-13" d="M206.91,42.76a17.44,17.44,0,0,1,8.27,2.05c6.53,3.42,20.49,12.11,26.57,26.3,5.2,12.12,2.69,12.22.23,10.75a9.93,9.93,0,0,1-3.63-4c-2.93-5.61-12.67-22.58-26.71-29.24C201.35,43.78,203.58,42.78,206.91,42.76Z"/><circle class="cls-13" cx="243.84" cy="86.32" r="2.62"/><path class="cls-9" d="M148.44,75.62a49.05,49.05,0,0,1,27.29-35.05,56.29,56.29,0,0,0-38.28,43.21c-4.63,24.47,10.12,35.32,31.87,41.65C153.51,114.36,144.74,95.2,148.44,75.62Z"/><ellipse class="cls-6" cx="204.55" cy="301.49" rx="0.71" ry="1.69" transform="translate(-88.08 84.46) rotate(-19.28)"/><path class="cls-12" d="M104.81,289.26s8.76-14.06,24.29-11.11c10.94,2.07,14,8.66,14,8.66"/><ellipse class="cls-6" cx="144.62" cy="290.14" rx="0.71" ry="1.69" transform="translate(-87.7 64.03) rotate(-19.28)"/><rect class="cls-9" x="159.26" y="196.46" width="56.79" height="2.09" rx="1.05" transform="translate(40.01 -31.45) rotate(10.72)"/></g></g></svg>