<svg xmlns="http://www.w3.org/2000/svg" viewBox="0 0 57.96 133.4"><defs><style>.cls-1{fill:#30233f;}.cls-2{fill:#ccccc6;}</style></defs><title>SpacemanArm</title><g id="Layer_2" data-name="Layer 2"><g id="Space_Man" data-name="Space Man"><path class="cls-1" d="M6.08,99.39l-.12.68a40,40,0,0,0,1.71,11.56,68.93,68.93,0,0,0,5.84,13.29,13.14,13.14,0,0,0,3.29,4.86A13.33,13.33,0,0,0,37.32,127,13.14,13.14,0,0,0,39,122.53a5.25,5.25,0,0,0,.09-.55c2.68-10.83-1-22.54,1.65-15.43,1.19,3.12,2.55,4.94,3.89,5.89h0a4,4,0,0,0,5.92-1.2,3.82,3.82,0,0,0,.41-1.09c.81-3.31-.28-10.51-6-16.7a10.82,10.82,0,0,1-1.23-1.66s0,0,0,0C41.33,87.58,41,81.24,41,78.34h0a2.81,2.81,0,0,0,0-.3,1,1,0,0,0-1.22-1C23.59,80.39,8.16,96.68,6.2,98.83,6.15,99,6.12,99.2,6.08,99.39Z"/><path class="cls-2" d="M42.44,85A83.81,83.81,0,0,0,3,102.17H3a1.36,1.36,0,0,1-2.2-.9A97.5,97.5,0,0,1,58,0,21.34,21.34,0,0,0,53,10.12L41.17,72.81A21.34,21.34,0,0,0,42.44,85Z"/><path class="cls-1" d="M44.35,56a83.77,83.77,0,0,0-42,17.52c-.61.48-.65.49-1.19,1l-.07.06a2.46,2.46,0,0,1,0,.28,8.17,8.17,0,0,1-.29,2.08,7.94,7.94,0,0,0-.32,2.87A85.89,85.89,0,0,1,43.22,62Z"/></g></g></svg>