<svg xmlns="http://www.w3.org/2000/svg" xmlns:xlink="http://www.w3.org/1999/xlink" viewBox="0 0 112.5 248.67"><defs><style>.cls-1{fill:#ffe600;}.cls-2{fill:#4d4d4d;}.cls-3{fill:url(#linear-gradient);}.cls-4{fill:#ccccc6;}.cls-5{fill:#232323;}</style><linearGradient id="linear-gradient" x1="52.5" y1="106.92" x2="52.5" y2="186.82" gradientTransform="translate(0 55)" gradientUnits="userSpaceOnUse"><stop offset="0" stop-color="#333"/><stop offset="0.04" stop-color="#999"/><stop offset="0.05" stop-color="#333"/><stop offset="0.07" stop-color="#333"/><stop offset="0.11" stop-color="#999"/><stop offset="0.12" stop-color="#333"/><stop offset="0.13" stop-color="#333"/><stop offset="0.17" stop-color="#999"/><stop offset="0.18" stop-color="#333"/><stop offset="0.19" stop-color="#333"/><stop offset="0.23" stop-color="#999"/><stop offset="0.24" stop-color="#333"/><stop offset="0.25" stop-color="#333"/><stop offset="0.3" stop-color="#999"/><stop offset="0.31" stop-color="#333"/></linearGradient></defs><title>body</title><g id="Layer_2" data-name="Layer 2"><g id="Layer_9" data-name="Layer 9"><polygon class="cls-1" points="61.12 0 77.43 0 93.62 13.5 77.31 13.5 61.12 0"/><polygon class="cls-1" points="28.49 0 44.8 0 61 13.5 44.68 13.5 28.49 0"/><path d="M77.43,0H93.75L104.5,9v2.69a2,2,0,0,1-2.13,1.84H93.62Z"/><polygon points="44.8 0 61.12 0 77.31 13.5 61 13.5 44.8 0"/><polygon points="12.18 0 28.49 0 44.68 13.5 28.37 13.5 12.18 0"/><path class="cls-1" d="M2.63,0h9.55L28.37,13.5H13.42L.5,2.74v-.9A2,2,0,0,1,2.63,0Z"/><path d="M.5,2.74,13.42,13.5H2.63A2,2,0,0,1,.5,11.66Z"/><path class="cls-1" d="M93.75,0h8.62a2,2,0,0,1,2.13,1.84V9Z"/><polygon class="cls-1" points="112.5 133.54 112.5 144.5 99 155.37 99 144.41 112.5 133.54"/><polygon class="cls-1" points="112.5 111.63 112.5 122.58 99 133.46 99 122.5 112.5 111.63"/><path d="M112.5,144.5v10.95l-9,7.22h-2.69A1.68,1.68,0,0,1,99,161.24v-5.87Z"/><polygon points="112.5 122.58 112.5 133.54 99 144.41 99 133.46 112.5 122.58"/><polygon points="112.5 100.67 112.5 111.63 99 122.5 99 111.54 112.5 100.67"/><path class="cls-1" d="M112.5,94.26v6.41L99,111.54v-10l10.76-8.67h.9A1.68,1.68,0,0,1,112.5,94.26Z"/><path d="M109.76,92.83,99,101.5V94.26a1.68,1.68,0,0,1,1.84-1.43Z"/><path class="cls-1" d="M112.5,155.45v5.79a1.68,1.68,0,0,1-1.84,1.43h-7.13Z"/><path class="cls-2" d="M8.08,5.67H95.55A9.45,9.45,0,0,1,105,15.13V240.6a8.08,8.08,0,0,1-8.08,8.08H2.77A2.77,2.77,0,0,1,0,245.9V13.75A8.08,8.08,0,0,1,8.08,5.67Z"/><rect class="cls-3" x="13.5" y="161.17" width="78" height="81" transform="translate(105 403.35) rotate(180)"/><rect class="cls-2" x="11.5" y="154.17" width="82" height="61" transform="translate(105 369.35) rotate(180)"/><rect class="cls-4" x="11.5" y="16.17" width="82" height="21" rx="10.5"/><rect class="cls-4" x="6.5" y="87.17" width="93" height="82" rx="26.84"/><rect class="cls-5" x="12.5" y="91.17" width="81" height="74" rx="23.8"/></g></g></svg>