<svg xmlns="http://www.w3.org/2000/svg" xmlns:xlink="http://www.w3.org/1999/xlink" viewBox="0 0 1027 174"><defs><style>.cls-1{fill:none;}.cls-2{fill:url(#linear-gradient);}.cls-3{fill:url(#linear-gradient-2);}.cls-4{fill:url(#linear-gradient-3);}.cls-5{fill:url(#linear-gradient-4);}.cls-6{fill:url(#linear-gradient-5);}.cls-7{fill:url(#linear-gradient-6);}.cls-8{fill:url(#linear-gradient-7);}.cls-9{fill:url(#linear-gradient-8);}.cls-10{fill:#ccccc6;}</style><linearGradient id="linear-gradient" x1="724.5" y1="-41" x2="735.5" y2="-41" gradientTransform="translate(-121.5 103.5)" gradientUnits="userSpaceOnUse"><stop offset="0" stop-color="#333"/><stop offset="0.53" stop-color="#999"/><stop offset="1" stop-color="#333"/></linearGradient><linearGradient id="linear-gradient-2" x1="535" y1="54" x2="546" y2="54" gradientTransform="matrix(1, 0, 0, 1, 0, 0)" xlink:href="#linear-gradient"/><linearGradient id="linear-gradient-3" x1="712" y1="54" x2="723" y2="54" gradientTransform="matrix(1, 0, 0, 1, 0, 0)" xlink:href="#linear-gradient"/><linearGradient id="linear-gradient-4" x1="181" y1="54" x2="192" y2="54" gradientTransform="matrix(1, 0, 0, 1, 0, 0)" xlink:href="#linear-gradient"/><linearGradient id="linear-gradient-5" x1="358" y1="54" x2="369" y2="54" gradientTransform="matrix(1, 0, 0, 1, 0, 0)" xlink:href="#linear-gradient"/><linearGradient id="linear-gradient-6" x1="889" y1="54" x2="900" y2="54" gradientTransform="matrix(1, 0, 0, 1, 0, 0)" xlink:href="#linear-gradient"/><linearGradient id="linear-gradient-7" x1="667.5" y1="-35.5" x2="678.5" y2="-35.5" gradientTransform="translate(-70 41)" xlink:href="#linear-gradient"/><linearGradient id="linear-gradient-8" x1="583.5" y1="144.94" x2="583.5" y2="98.05" gradientUnits="userSpaceOnUse"><stop offset="0" stop-color="#999"/><stop offset="1" stop-color="#333"/></linearGradient></defs><title>floor</title><g id="Layer_2" data-name="Layer 2"><g id="BG"><line class="cls-1" x1="1024" y1="173" y2="173"/></g><g id="Layer_9" data-name="Layer 9"><rect class="cls-2" x="603" y="-354" width="11" height="833" transform="translate(671 -546) rotate(90)"/><rect class="cls-3" x="535" y="5" width="11" height="98"/><rect class="cls-4" x="712" y="5" width="11" height="98"/><rect class="cls-5" x="181" y="5" width="11" height="98"/><rect class="cls-6" x="358" y="5" width="11" height="98"/><rect class="cls-7" x="889" y="5" width="11" height="98"/><rect class="cls-8" x="597.5" y="-416.5" width="11" height="844" transform="translate(608.5 -597.5) rotate(90)"/><polygon class="cls-9" points="1027 97 162 101 140 141 1027 141 1027 97"/><polygon class="cls-10" points="1025 141 138 141 138 174 1024 174 1025 141"/></g></g></svg>