<svg xmlns="http://www.w3.org/2000/svg" xmlns:xlink="http://www.w3.org/1999/xlink" viewBox="0 0 906.5 153"><defs><style>.cls-1{fill:url(#linear-gradient);}.cls-2{fill:url(#linear-gradient-2);}.cls-3{fill:#ffe600;}</style><linearGradient id="linear-gradient" x1="439" y1="58.65" x2="439" y2="94.38" gradientUnits="userSpaceOnUse"><stop offset="0" stop-color="#333"/><stop offset="0.53" stop-color="#999"/><stop offset="1" stop-color="#333"/></linearGradient><linearGradient id="linear-gradient-2" x1="884.5" y1="44.13" x2="884.5" y2="112.81" xlink:href="#linear-gradient"/></defs><title>piston</title><g id="Layer_2" data-name="Layer 2"><g id="Layer_9" data-name="Layer 9"><rect class="cls-1" y="59" width="878" height="36"/><rect class="cls-2" x="878" y="44" width="13" height="69"/><path d="M906.5,113.18v24L896.2,153h-3.08c-1.17,0-2.12-1.41-2.12-3.14V137Z"/><polygon class="cls-3" points="906.5 89.18 906.5 113.18 891 137 891 113 906.5 89.18"/><polygon points="906.5 65.18 906.5 89.18 891 113 891 89 906.5 65.18"/><polygon class="cls-3" points="906.5 41.18 906.5 65.18 891 89 891 65 906.5 41.18"/><polygon points="906.5 17.18 906.5 41.18 891 65 891 41 906.5 17.18"/><path class="cls-3" d="M906.5,3.14v14L891,41V19L903.36,0h1C905.55,0,906.5,1.41,906.5,3.14Z"/><path d="M903.36,0,891,19V3.14C891,1.41,892,0,893.12,0Z"/><path class="cls-3" d="M906.5,137.18v12.68c0,1.73-1,3.14-2.12,3.14H896.2Z"/></g></g></svg>