<svg xmlns="http://www.w3.org/2000/svg" viewBox="0 0 33.5 33.5"><defs><style>.cls-1{fill:#d90e79;}.cls-2{fill:#fff;}.cls-3{fill:#30233f;}.cls-4{fill:#03c7c7;}</style></defs><title>calc</title><g id="Layer_2" data-name="Layer 2"><g id="Layer_1-2" data-name="Layer 1"><path class="cls-1" d="M7,33A6.49,6.49,0,0,1,.5,26.52V7A6.49,6.49,0,0,1,7,.5H26.52A6.49,6.49,0,0,1,33,7V26.52A6.49,6.49,0,0,1,26.52,33Z"/><path class="cls-2" d="M26.52,1a6,6,0,0,1,6,6V26.52a6,6,0,0,1-6,6H7a6,6,0,0,1-6-6V7A6,6,0,0,1,7,1H26.52m0-1H7A7,7,0,0,0,0,7V26.52a7,7,0,0,0,7,7H26.52a7,7,0,0,0,7-7V7a7,7,0,0,0-7-7Z"/><path class="cls-3" d="M26.58,1H7a6,6,0,0,0-6,6V26.52a6,6,0,0,0,1.76,4.22l28-28A6,6,0,0,0,26.58,1Z"/><path class="cls-4" d="M2.81,30.74A5.93,5.93,0,0,0,7,32.5H26.58a6,6,0,0,0,6-6V7A6,6,0,0,0,30.8,2.76Z"/><rect class="cls-2" x="4.57" y="4.03" width="25" height="4" rx="1.72"/><circle class="cls-2" cx="10.38" cy="12.85" r="1.82"/><circle class="cls-2" cx="10.38" cy="19.94" r="1.82"/><circle class="cls-2" cx="17.93" cy="12.85" r="1.82"/><circle class="cls-2" cx="17.93" cy="19.94" r="1.82"/><circle class="cls-2" cx="24.75" cy="12.85" r="1.82"/><circle class="cls-2" cx="24.75" cy="19.94" r="1.82"/><circle class="cls-2" cx="24.75" cy="27.03" r="1.82"/><rect class="cls-2" x="8.57" y="25.03" width="13" height="4" rx="2"/></g></g></svg>