<svg xmlns="http://www.w3.org/2000/svg" viewBox="0 0 33.5 33.5"><defs><style>.cls-1{fill:#d90e79;}.cls-2{fill:#fff;}.cls-3{fill:#30233f;}.cls-4{fill:#473b6b;}</style></defs><title>home</title><g id="Layer_2" data-name="Layer 2"><g id="Layer_1-2" data-name="Layer 1"><path class="cls-1" d="M7,33A6.49,6.49,0,0,1,.5,26.52V7A6.49,6.49,0,0,1,7,.5H26.52A6.49,6.49,0,0,1,33,7V26.52A6.49,6.49,0,0,1,26.52,33Z"/><path class="cls-2" d="M26.52,1a6,6,0,0,1,6,6V26.52a6,6,0,0,1-6,6H7a6,6,0,0,1-6-6V7A6,6,0,0,1,7,1H26.52m0-1H7A7,7,0,0,0,0,7V26.52a7,7,0,0,0,7,7H26.52a7,7,0,0,0,7-7V7a7,7,0,0,0-7-7Z"/><path class="cls-3" d="M26.52,1H7A6,6,0,0,0,1,7V26.52a5.91,5.91,0,0,0,1.76,4.22l28-28A5.91,5.91,0,0,0,26.52,1Z"/><path class="cls-4" d="M2.76,30.74A5.91,5.91,0,0,0,7,32.5H26.52a6,6,0,0,0,6-6V7a5.91,5.91,0,0,0-1.76-4.22Z"/><path class="cls-2" d="M17.83,8.6l6.25,3.8a6.53,6.53,0,0,0,3.41,1h1.32c-4.79-3-4.95-3.19-5.14-3.31L17.61,6.43a2,2,0,0,0-2,0L9.56,10.05c-.19.12-.35.27-5.25,3.32H6.1a6.6,6.6,0,0,0,3.38-.94L15.84,8.6A1.92,1.92,0,0,1,17.83,8.6Z"/><path class="cls-2" d="M24.38,14.66H9.29a1.94,1.94,0,0,0-.45,1.23v7a1.94,1.94,0,0,0,1.94,1.94H22.9a1.94,1.94,0,0,0,1.94-1.94v-7A2,2,0,0,0,24.38,14.66ZM12.68,19H11.09V17.38h1.59Zm0-2H11.09V15.38h1.59Zm2,2H13.09V17.38h1.59Zm0-2H13.09V15.38h1.59Zm3,5.45a.53.53,0,1,1,.53-.53A.53.53,0,0,1,17.68,22.42Zm3-3.45H19.09V17.38h1.59Zm0-2H19.09V15.38h1.59Zm2,2H21.09V17.38h1.59Zm0-2H21.09V15.38h1.59Z"/><path class="cls-2" d="M23.89,14.22,21,12.49H12.68l-2.9,1.73a1.68,1.68,0,0,0-.48.44H24.38A1.72,1.72,0,0,0,23.89,14.22Z"/><path class="cls-2" d="M17.83,10.6a1.92,1.92,0,0,0-2,0l-3.16,1.89H21Z"/></g></g></svg>