<svg xmlns="http://www.w3.org/2000/svg" xmlns:xlink="http://www.w3.org/1999/xlink" viewBox="0 0 312.98 312.97"><defs><style>.cls-1{stroke:#ceccc6;stroke-width:12px;fill:url(#linear-gradient);}.cls-1,.cls-4{stroke-miterlimit:10;}.cls-2{fill:#918fb2;}.cls-3{fill:#cdccc6;}.cls-4,.cls-7{fill:none;}.cls-4{stroke:#918fb2;}.cls-5{fill:#4e4d4d;}.cls-6{fill:#31233f;}.cls-8{fill:#fff;}</style><linearGradient id="linear-gradient" x1="85.8" y1="19.41" x2="207.78" y2="255.93" gradientUnits="userSpaceOnUse"><stop offset="0" stop-color="#ec5e79"/><stop offset="1" stop-color="#d91379"/></linearGradient></defs><title>pop-up</title><g id="Layer_2" data-name="Layer 2"><g id="Layer_2-2" data-name="Layer 2"><path class="cls-1" d="M307,156.49a149.73,149.73,0,0,1-12.35,59.77,0,0,0,0,1,0,0,150.3,150.3,0,0,1-31.6,46.5c-1.87,1.89-3.8,3.71-5.77,5.47a149.33,149.33,0,0,1-23,17.1,144.42,144.42,0,0,1-13.21,7.1c-.85.43-1.7.82-2.56,1.2-2.7,1.23-5.46,2.39-8.25,3.44-2.61,1-5.26,1.95-7.95,2.79a148.31,148.31,0,0,1-36.58,6.81c-3,.2-6.12.29-9.21.29-1.05,0-2.12,0-3.17,0a150.43,150.43,0,0,1-47.91-8.85c-3.22-1.16-6.39-2.44-9.5-3.81l-.4-.17q-6.27-2.79-12.25-6.13A150.49,150.49,0,1,1,307,156.49Z"/></g><g id="Layer_1-2" data-name="Layer 1"><circle class="cls-2" cx="209.33" cy="27.24" r="7.93"/><path class="cls-3" d="M153.32,306.93a150.43,150.43,0,0,1-47.91-8.85c-3.22-1.16-6.39-2.44-9.5-3.81l-.4-.17.4-.11a16.06,16.06,0,0,1,3.35-.35h38.31a15.93,15.93,0,0,1,9.87,3.44,15.51,15.51,0,0,1,2.76,2.79A15.75,15.75,0,0,1,153.32,306.93Z"/><path class="cls-3" d="M202.28,299.87a148.31,148.31,0,0,1-36.58,6.81,15.74,15.74,0,0,1,3.08-6.81,15.51,15.51,0,0,1,2.76-2.79,15.91,15.91,0,0,1,9.87-3.44h37.07c-2.7,1.23-5.46,2.39-8.25,3.44C207.62,298.09,205,299,202.28,299.87Z"/><line class="cls-4" x1="209.33" y1="27.24" x2="209.33" y2="122.94"/><path class="cls-5" d="M40.43,184.18A18.6,18.6,0,0,1,59,165.58v-9.42a28,28,0,1,0,0,56v-9.42A18.59,18.59,0,0,1,40.43,184.18Z"/><path class="cls-5" d="M257.25,138.53V246.15a16,16,0,0,1-16,16H72.42a16,16,0,0,1-16-16V138.53A16,16,0,0,1,71,122.6c.47,0,.94-.06,1.42-.06H241.26A16,16,0,0,1,257.25,138.53Z"/><path class="cls-6" d="M257.25,147.86V265.47a64.77,64.77,0,0,1-6.3,2.13,122.78,122.78,0,0,1-16.7,13.82v3.92a144.42,144.42,0,0,1-13.21,7.1c-.85.43-1.7.82-2.56,1.2-2.7,1.23-5.46,2.39-8.25,3.44-2.61,1-5.26,1.95-7.95,2.79a148.31,148.31,0,0,1-36.58,6.81c-3,.2-6.12.29-9.21.29-1.05,0-2.12,0-3.17,0a150.43,150.43,0,0,1-47.91-8.85c-3.22-1.16-6.39-2.44-9.5-3.81l-.4-.17q-6.27-2.79-12.25-6.13V262.14H82.5v8c0,5.27-.47,6.95-.47,11.28a118.66,118.66,0,0,1-25.6-23.73V147.86a16.07,16.07,0,0,1,12.43-15.6,17.8,17.8,0,0,1,2-.32c.52-.05,1.05-.08,1.6-.08H241.26a17,17,0,0,1,1.77.1A16.05,16.05,0,0,1,257.25,147.86Z"/><path class="cls-2" d="M295,209.5a62.65,62.65,0,0,1-.37,6.76,0,0,0,0,1,0,0,60.3,60.3,0,0,1-31.6,46.5,63.11,63.11,0,0,1-5.77,2.7,64.77,64.77,0,0,1-6.3,2.13,60.1,60.1,0,0,1-15.68,2.23V259a49.11,49.11,0,0,0,19.45-4.25c.86-.39,1.7-.79,2.53-1.22a49.27,49.27,0,0,0,26.64-43.73,49.81,49.81,0,0,0-.31-5.49A48.75,48.75,0,0,0,276,183a47.7,47.7,0,0,0-4-5.34,49.5,49.5,0,0,0-14.7-11.61A48.61,48.61,0,0,0,246,161.91h0c-.64-.16-1.28-.29-1.92-.42l-1-.17a48.62,48.62,0,0,0-7.79-.71V149.19a59.49,59.49,0,0,1,8.81.73h.11a59.67,59.67,0,0,1,13.06,3.62c.33.13.67.26,1,.41,0,0,0,0,.07,0a60.32,60.32,0,0,1,22.17,16.26c1.28,1.48,2.48,3,3.6,4.63.62.9,1.22,1.8,1.8,2.72A60.09,60.09,0,0,1,295,209.5Z"/><path class="cls-7" d="M233.66,257.07l-.84,0"/><path class="cls-7" d="M232.82,272.22l.84,0"/><path class="cls-5" d="M234.25,229v56.38a144.42,144.42,0,0,1-13.21,7.1c-.85.43-1.7.82-2.56,1.2-2.7,1.23-5.46,2.39-8.25,3.44-2.61,1-5.26,1.95-7.95,2.79a148.31,148.31,0,0,1-36.58,6.81c-3,.2-6.12.29-9.21.29-1.05,0-2.12,0-3.17,0a150.43,150.43,0,0,1-47.91-8.85c-3.22-1.16-6.39-2.44-9.5-3.81l-.4-.17q-6.27-2.79-12.25-6.13V229a28.64,28.64,0,0,1,9.17-21,13.08,13.08,0,0,1,1.34-1.16A28.39,28.39,0,0,1,112,200.25h93.56c.52,0,1,0,1.56,0a28.46,28.46,0,0,1,14,4.56c.29.19.57.37.85.57a29.56,29.56,0,0,1,5.85,5.43A28.44,28.44,0,0,1,234.25,229Z"/><path class="cls-6" d="M221,245.43v47c-.85.43-1.7.82-2.56,1.2-2.7,1.23-5.46,2.39-8.25,3.44-2.61,1-5.26,1.95-7.95,2.79a148.31,148.31,0,0,1-36.58,6.81c-3,.2-6.12.29-9.21.29-1.05,0-2.12,0-3.17,0a150.43,150.43,0,0,1-47.91-8.85c-3.22-1.16-6.39-2.44-9.5-3.81V245.43a3.77,3.77,0,0,1,3.77-3.76h117.6A3.77,3.77,0,0,1,221,245.43Z"/><path class="cls-2" d="M221,249.43v43c-.85.43-1.7.82-2.56,1.2-2.7,1.23-5.46,2.39-8.25,3.44-2.61,1-5.26,1.95-7.95,2.79a148.31,148.31,0,0,1-36.58,6.81c-3,.2-6.12.29-9.21.29-1.05,0-2.12,0-3.17,0a150.43,150.43,0,0,1-47.91-8.85c-3.22-1.16-6.39-2.44-9.5-3.81V249.43a3.77,3.77,0,0,1,3.77-3.76h117.6A3.77,3.77,0,0,1,221,249.43Z"/><rect class="cls-6" x="105.41" y="253.1" width="107.27" height="14.13" rx="3.18"/><path class="cls-6" d="M129.75,279.53v21.24a3.61,3.61,0,0,1-2.31,3.39,148.62,148.62,0,0,1-22-6.08V279.53a3.66,3.66,0,0,1,3.65-3.65h17A3.65,3.65,0,0,1,129.75,279.53Z"/><rect class="cls-6" x="137" y="277.09" width="75.68" height="2.79" rx="1.39"/><rect class="cls-6" x="137" y="283.75" width="75.68" height="2.79" rx="1.39"/><rect class="cls-6" x="137" y="290.42" width="75.68" height="2.79" rx="1.39"/><path class="cls-6" d="M210.23,297.08c-2.61,1-5.26,1.95-7.95,2.79H138.39a1.4,1.4,0,0,1,0-2.79Z"/><path class="cls-2" d="M156,58.42a88.29,88.29,0,0,0-88.29,88.29H244.26A88.29,88.29,0,0,0,156,58.42Z"/><path class="cls-6" d="M156,235a88.29,88.29,0,0,0,88.29-88.29H67.68A88.29,88.29,0,0,0,156,235Z"/><path class="cls-5" d="M67.68,155.34c0,48.76,39.53,66.13,88.29,66.13s88.29-17.37,88.29-66.13a88.29,88.29,0,1,0-176.58,0Z"/><path class="cls-3" d="M231,155.34a75,75,0,0,0-150.1,0c0,41.45,34.34,47.6,75.78,47.6S231,196.79,231,155.34Z"/><path class="cls-8" d="M161.7,84.41a23.31,23.31,0,0,1,11.34.64c9.4,2.86,29.84,10.77,41.31,27.85,9.81,14.58,6.54,15.34,3,14a13.26,13.26,0,0,1-5.73-4.29C206.36,116,189.39,96.2,169.36,91,154.68,87.12,157.34,85.27,161.7,84.41Z"/><circle class="cls-8" cx="220.85" cy="132.3" r="3.5"/><path class="cls-6" d="M93.3,141.93c0-21.47,10.6-40.54,27-52.65a75,75,0,0,0-39.42,66.06c0,33.18,22,43.73,52.05,46.63C109.54,191.39,93.3,168.49,93.3,141.93Z"/><path class="cls-2" d="M273.11,140.71c0-.31,0,.3,0,0A53.51,53.51,0,0,0,268,126a91.69,91.69,0,0,0-10.94-16,17.77,17.77,0,0,0-32.82,9.46,5.94,5.94,0,0,0,0,.73c-.83,14.85,6.94,29.27,1.65,20.62-2.32-3.78-4.56-5.84-6.55-6.74h0a5.27,5.27,0,0,0-7.46,3,5.38,5.38,0,0,0-.27,1.53c-.24,4.53,3,13.68,11.94,20.39a13.52,13.52,0,0,1,2,1.86s0,0,0,0c4.27,4.87,2.71,4.71,3.46,8.5h0c0,.14,0-.12,0,0,.16.84-.81.27,0,0,21.08-6.91,38.93-22.65,44-28.5A2.09,2.09,0,0,0,273.11,140.71Z"/><path class="cls-3" d="M285.89,177.61v.19a148.8,148.8,0,0,1-2.31,26.52A120.06,120.06,0,0,1,268.07,246a108.8,108.8,0,0,1-10.82,14.88q-3,3.51-6.3,6.77a122.78,122.78,0,0,1-16.7,13.82c0-4.33-.48-6-.48-11.28v-85a28.47,28.47,0,0,0-4.41-15.22l-.28-.43h0l.42-.15h0a109.45,109.45,0,0,0,13.1-5.63c.44-.21.86-.44,1.29-.66l1.83-1,.21-.12h0l.16-.09a110,110,0,0,0,11.13-7.06l1.07-.76c1.42-1.05,2.81-2.13,4.18-3.28.41-.31.81-.64,1.21-1a1.41,1.41,0,0,0,.24-.2,105.34,105.34,0,0,0,9.16-8.63c1.16-1.2,2.28-2.44,3.37-3.69,0,0,0,0,0,0a1.81,1.81,0,0,1,3.09.63,128.05,128.05,0,0,1,5.74,28.08c.12,1.23.21,2.46.29,3.7q.09,1.47.15,2.94c0,.16,0,.3,0,.45C285.86,174.52,285.89,176.07,285.89,177.61Z"/><path class="cls-6" d="M233.66,207.91c32.83-13,36.73-19.51,50.81-33.39a12.8,12.8,0,0,0,1.4-1.63c-.65-1.86.21-5.18-.52-7-18.49,16.65-20.69,19-51.58,33.71Z"/><path class="cls-2" d="M43.17,140.71c0-.31,0,.3,0,0A53.06,53.06,0,0,1,48.27,126a92.25,92.25,0,0,1,10.94-16,17.82,17.82,0,0,1,15.05-8.33A17.76,17.76,0,0,1,92,119.49c0,.24,0,.49,0,.73.82,14.85-7,29.27-1.66,20.62,2.32-3.78,4.56-5.84,6.55-6.74h0a5.27,5.27,0,0,1,7.46,3,5.38,5.38,0,0,1,.27,1.53c.24,4.53-3,13.68-11.94,20.39a13.52,13.52,0,0,0-2,1.86s0,0,0,0c-4.27,4.87-2.71,4.71-3.46,8.5h0c0,.14,0-.12,0,0-.16.84.82.27,0,0-21.07-6.91-38.92-22.65-44-28.5C43.15,140.71,43.17,141,43.17,140.71Z"/><path class="cls-3" d="M87.2,169.46h0a28.47,28.47,0,0,0-4.7,15.65v85c0,5.27-.47,6.95-.47,11.28a118.66,118.66,0,0,1-25.6-23.73c-17.18-21.47-26-48.6-26-79.89,0-1.61,0-3.21.09-4.81,0-.15,0-.29,0-.44,0-1,.08-1.89.15-2.84.07-1.28.17-2.54.29-3.8a129.18,129.18,0,0,1,5.73-28.09,1.83,1.83,0,0,1,3.11-.63s0,0,0,0c1.1,1.26,2.22,2.49,3.38,3.7a105,105,0,0,0,9.15,8.62,1.41,1.41,0,0,0,.24.2c.4.35.8.68,1.21,1,.87.75,1.76,1.44,2.66,2.11a110.75,110.75,0,0,0,11.4,7.67l1,.58c.42.25.86.5,1.3.74l.39.21a109.91,109.91,0,0,0,11.54,5.49C83.76,168.2,85.46,168.86,87.2,169.46Z"/><path class="cls-6" d="M82.61,207.91c-32.83-13-36.73-19.51-50.81-33.39a12.8,12.8,0,0,1-1.4-1.63c.65-1.86-.21-5.18.53-7,18.48,16.65,20.68,19,51.57,33.71Z"/></g></g></svg>