<svg xmlns="http://www.w3.org/2000/svg" xmlns:xlink="http://www.w3.org/1999/xlink" viewBox="0 0 252 252"><defs><style>.cls-1,.cls-9{stroke:#e6e6e6;stroke-width:4px;}.cls-1,.cls-10,.cls-9{stroke-miterlimit:10;}.cls-1{fill:url(#linear-gradient);}.cls-2{fill:#908fb2;}.cls-3{fill:#4d4d4d;}.cls-4{fill:#ccccc6;}.cls-5{fill:#30233f;}.cls-10,.cls-6,.cls-9{fill:none;}.cls-7{fill:#6d6d6d;}.cls-8{fill:#fff;}.cls-10{stroke:#30233f;}</style><linearGradient id="linear-gradient" x1="33.69" y1="58.1" x2="235.75" y2="206.74" gradientUnits="userSpaceOnUse"><stop offset="0" stop-color="#fd5d77"/><stop offset="1" stop-color="#d90e79"/></linearGradient></defs><title>pop-up3</title><g id="Layer_2" data-name="Layer 2"><g id="Layer_2-2" data-name="Layer 2"><path class="cls-1" d="M250,126a124,124,0,0,1-97.36,121.13c-1.32.29-2.66.56-4,.8A124.21,124.21,0,0,1,126,250c-3.77,0-7.51-.17-11.19-.5-1.34-.12-2.67-.26-4-.43a123.63,123.63,0,0,1-74.34-37.28q-3.28-3.43-6.31-7.12A122.12,122.12,0,0,1,19.8,190.05,124,124,0,1,1,250,126Z"/></g><g id="Layer_1-2" data-name="Layer 1"><rect class="cls-2" x="181.64" y="158.24" width="3.69" height="41.23" rx="1.85"/><path class="cls-3" d="M73.12,65.93V192.79a12,12,0,0,1-12,12H31.8a11,11,0,0,1-1.64-.12A122.12,122.12,0,0,1,19.8,190.05V65.93a12,12,0,0,1,12-12H61.12A12,12,0,0,1,73.12,65.93Z"/><path class="cls-2" d="M152.64,197.22v49.91c-1.32.29-2.66.56-4,.8A124.21,124.21,0,0,1,126,250c-3.77,0-7.51-.17-11.19-.5V197.22a15.3,15.3,0,0,1,1.31-6.29c1.55-3.42,4.31-5.71,7.45-5.71h20.3C148.69,185.22,152.64,190.62,152.64,197.22Z"/><path class="cls-4" d="M189.27,84.47a59,59,0,0,0-118,0c0,32.59,25.39,46.51,58,46.51S189.27,117.06,189.27,84.47Z"/><rect class="cls-4" x="83.12" y="135.96" width="93.53" height="103.11" rx="28.39"/><path class="cls-2" d="M209.76,197.26a4.37,4.37,0,0,0,.52-.12,30.41,30.41,0,0,0,7.69-4.67,53,53,0,0,0,7.68-8.12,10.26,10.26,0,0,0-5.67-17.5,10.13,10.13,0,0,0-3.67.12l-.41.1c-8.48,1.34-15.68,7.49-11.44,3.45a9.48,9.48,0,0,0,3-4.52h0a3,3,0,0,0-2.62-3.84,3.13,3.13,0,0,0-.9,0c-2.59.41-7.37,3.34-10.06,9.22a7.29,7.29,0,0,1-.81,1.36s0,0,0,0c-2.22,3-6.61,5.14-8.67,6h0l-.21.09a.79.79,0,0,0-.35,1.17c7.22,10.44,23.4,16.51,25.5,17.26C209.48,197.33,209.62,197.29,209.76,197.26Z"/><path class="cls-5" d="M73.12,72.93V199.79a12,12,0,0,1-12,12H36.47q-3.28-3.43-6.31-7.12A122.12,122.12,0,0,1,19.8,190.05V72.93a12,12,0,0,1,12-12H61.12A12,12,0,0,1,72.89,70.6h0A11.78,11.78,0,0,1,73.12,72.93Z"/><path class="cls-2" d="M193.27,84.47a59,59,0,0,0-118,0c0,32.59,25.39,46.51,58,46.51S193.27,117.06,193.27,84.47Z"/><path class="cls-4" d="M148.64,197.22v50.71A124.21,124.21,0,0,1,126,250c-3.77,0-7.51-.17-11.19-.5-1.34-.12-2.67-.26-4-.43V197.22a14.05,14.05,0,0,1,3.25-9.31,7.41,7.41,0,0,1,5.51-2.69h20.3C144.69,185.22,148.64,190.62,148.64,197.22Z"/><rect class="cls-3" x="85.12" y="132.05" width="97.07" height="107.02" rx="32.05"/><path class="cls-4" d="M193.27,84.47c0,11.71-3.54,21-9.6,28.12-24-.09-43.33-6.14-43.33-30.19A43.89,43.89,0,0,1,173,40,58.9,58.9,0,0,1,193.27,84.47Z"/><path class="cls-6" d="M193.27,84.47c0,11.71-3.54,21-9.6,28.12-24-.09-43.33-6.14-43.33-30.19A43.89,43.89,0,0,1,173,40,58.9,58.9,0,0,1,193.27,84.47Z"/><rect class="cls-3" x="73.12" y="148.84" width="17.07" height="41.42"/><path class="cls-2" d="M19.8,152.47H76.14A3.48,3.48,0,0,1,79.62,156v4.57A3.48,3.48,0,0,1,76.14,164H19.8a0,0,0,0,1,0,0V152.47A0,0,0,0,1,19.8,152.47Z"/><path class="cls-5" d="M182.19,164.11V207a32,32,0,0,1-10.25,23.45V140.66A32,32,0,0,1,182.19,164.11Z"/><path class="cls-2" d="M19.8,173.47H76.14A3.48,3.48,0,0,1,79.62,177v4.57A3.48,3.48,0,0,1,76.14,185H19.8a0,0,0,0,1,0,0V173.47A0,0,0,0,1,19.8,173.47Z"/><path class="cls-4" d="M207.6,193.75a7.35,7.35,0,0,1-1.24,10.43,63.75,63.75,0,0,1-102.22-45.94h35.7a28.28,28.28,0,0,0,44.77,17.92,7.33,7.33,0,0,1,10.07,1.38Z"/><path class="cls-5" d="M125.93,141h0a29.46,29.46,0,0,1,29.46,29.46v0a1.92,1.92,0,0,1-1.92,1.92H98.39a1.92,1.92,0,0,1-1.92-1.92v0A29.46,29.46,0,0,1,125.93,141Z"/><path class="cls-7" d="M170.73,194.38a33.89,33.89,0,0,1-8.6,22.61,63.55,63.55,0,0,1-11.28-2,24.95,24.95,0,0,0,6-35.39,28,28,0,0,0,10.88,2.18h.6A34,34,0,0,1,170.73,194.38Z"/><path class="cls-5" d="M170.73,194.38a33.89,33.89,0,0,1-8.6,22.61,63.55,63.55,0,0,1-11.28-2,24.95,24.95,0,0,0,6-35.39,28,28,0,0,0,10.88,2.18h.6A34,34,0,0,1,170.73,194.38Z"/><rect class="cls-2" x="33.89" y="92.77" width="14.14" height="43.18" rx="7.07"/><path class="cls-8" d="M166,46.14a1.86,1.86,0,0,1-.39,3.21,22.35,22.35,0,0,0-13.46,21.53q0,.41.06.81a5.75,5.75,0,0,1-2.58.72,6.06,6.06,0,0,1-3.17-.73,1.83,1.83,0,0,1-.87-2.16A44.23,44.23,0,0,1,163.8,46a1.88,1.88,0,0,1,2.07.07Z"/><circle class="cls-8" cx="146.89" cy="76.89" r="2.3"/><circle class="cls-5" cx="34.44" cy="14.19" r="5.95"/><path class="cls-3" d="M183.67,112.59a42.52,42.52,0,0,1-8.92,7.85c-24.66-1.08-48.41-10-48.41-38.15a55.67,55.67,0,0,1,33.43-51.05A59,59,0,0,1,173,40,43.89,43.89,0,0,0,140.34,82.4C140.34,106.45,159.68,112.5,183.67,112.59Z"/><rect class="cls-5" x="97.1" y="124.37" width="69.82" height="9.99" rx="5"/><line class="cls-6" x1="171.94" y1="230.47" x2="171.94" y2="140.66"/><path class="cls-4" d="M37.39,151.84v14.71h-5.9V151.84h5.9m.19-3H31.31a2.83,2.83,0,0,0-2.82,2.82v15.08a2.82,2.82,0,0,0,2.82,2.81h6.27a2.81,2.81,0,0,0,2.81-2.81V151.66a2.82,2.82,0,0,0-2.81-2.82Z"/><path class="cls-4" d="M61.39,151.84v14.71h-5.9V151.84h5.9m.19-3H55.31a2.83,2.83,0,0,0-2.82,2.82v15.08a2.82,2.82,0,0,0,2.82,2.81h6.27a2.81,2.81,0,0,0,2.81-2.81V151.66a2.82,2.82,0,0,0-2.81-2.82Z"/><rect class="cls-2" x="106.81" y="172.37" width="40.66" height="2.55"/><path class="cls-9" d="M250,126a124,124,0,0,1-97.36,121.13c-1.32.29-2.66.56-4,.8A124.21,124.21,0,0,1,126,250c-3.77,0-7.51-.17-11.19-.5-1.34-.12-2.67-.26-4-.43a123.63,123.63,0,0,1-74.34-37.28q-3.28-3.43-6.31-7.12A122.12,122.12,0,0,1,19.8,190.05,124,124,0,1,1,250,126Z"/><line class="cls-10" x1="33.89" y1="10.66" x2="33.89" y2="56.68"/></g></g></svg>