<svg xmlns="http://www.w3.org/2000/svg" xmlns:xlink="http://www.w3.org/1999/xlink" viewBox="0 0 252 284.07"><defs><style>.cls-1,.cls-3{stroke:#e6e6e6;stroke-width:4px;}.cls-1,.cls-3,.cls-4,.cls-9{stroke-miterlimit:10;}.cls-1{fill:url(#linear-gradient);}.cls-2{fill:#ccccc6;}.cls-3,.cls-4,.cls-8,.cls-9{fill:none;}.cls-4{stroke:#30233f;}.cls-5{fill:#4d4d4d;}.cls-6{fill:#30233f;}.cls-7{fill:#908fb2;}.cls-9{stroke:#000;stroke-width:1.3px;}.cls-10{fill:#fff;}</style><linearGradient id="linear-gradient" x1="33.69" y1="64.35" x2="235.75" y2="212.99" gradientUnits="userSpaceOnUse"><stop offset="0" stop-color="#fd5d77"/><stop offset="1" stop-color="#d90e79"/></linearGradient></defs><title>pop-up2</title><g id="Layer_2" data-name="Layer 2"><g id="Layer_2-2" data-name="Layer 2"><circle class="cls-1" cx="126" cy="132.26" r="124"/><path class="cls-2" d="M120.05,218.21v37.91A123.33,123.33,0,0,1,81.27,248a16.05,16.05,0,0,1,2.64,8.38,4.09,4.09,0,0,1-.2,1.15,4,4,0,0,1-5.6,2.28h0c-1.49-.68-3.17-2.22-4.91-5.06-3-5-.31.25.84,8a37.88,37.88,0,0,1,.4,7.46,5.06,5.06,0,0,1,0,.55,13.29,13.29,0,0,1-.85,4.7,13.5,13.5,0,0,1-6.29,7.12V218.21a12.07,12.07,0,0,1,9.48-11.73,11.65,11.65,0,0,1,2.52-.27h28.74a11.94,11.94,0,0,1,7.41,2.58,10.66,10.66,0,0,1,1.43,1.34c.23.24.44.5.65.76A11.93,11.93,0,0,1,120.05,218.21Z"/><path class="cls-2" d="M180.74,218.21v63a13.23,13.23,0,0,1-2.88-2.76,13.32,13.32,0,0,1-2.77-8.15,5.06,5.06,0,0,1,0-.55,36.4,36.4,0,0,1,.3-6.74c1.08-8.14,4.09-13.87.94-8.73-1.74,2.84-3.42,4.38-4.91,5.06h0a4,4,0,0,1-5.6-2.28,4.09,4.09,0,0,1-.2-1.15,14.53,14.53,0,0,1,1.75-6.75,123.48,123.48,0,0,1-38.43,7v-38a12,12,0,0,1,.54-3.56,12.18,12.18,0,0,1,2-3.76,11.92,11.92,0,0,1,.95-1.07,11,11,0,0,1,1.13-1,11.94,11.94,0,0,1,7.41-2.58h27.79a11.52,11.52,0,0,1,2,.17,11.66,11.66,0,0,1,4.61,1.81,12,12,0,0,1,5.43,10Z"/><circle class="cls-3" cx="126" cy="132.26" r="124"/></g><g id="Layer_1-2" data-name="Layer 1"><line class="cls-4" x1="161.91" y1="6.3" x2="161.91" y2="78.12"/><path class="cls-5" d="M35.16,124.07a14,14,0,0,1,14-13.95v-7.07a21,21,0,1,0,0,42V138A14,14,0,0,1,35.16,124.07Z"/><rect class="cls-5" x="47.16" y="77.81" width="150.7" height="104.76" rx="12"/><rect class="cls-6" x="47.16" y="84.81" width="150.7" height="133.4" rx="12"/><path class="cls-7" d="M226.2,143.08a45.28,45.28,0,0,0-44.83-45.27v8.57a36.92,36.92,0,0,1,0,73.84v8.12A45.27,45.27,0,0,0,226.2,143.08Z"/><path class="cls-8" d="M180.16,178.77h-.63"/><path class="cls-8" d="M179.53,190.14l.63,0"/><path class="cls-5" d="M180.74,271.63a9.58,9.58,0,0,1-2.82,6.79l-.06.06a13.32,13.32,0,0,1-2.77-8.15,5.06,5.06,0,0,1,0-.55,36.4,36.4,0,0,1,.3-6.74A9.63,9.63,0,0,1,180.74,271.63Z"/><path class="cls-5" d="M74.43,270.17a5.06,5.06,0,0,1,0,.55,13.29,13.29,0,0,1-.85,4.7,13.05,13.05,0,0,1-2.1,3.66A9.64,9.64,0,0,1,68,271.63,9.66,9.66,0,0,1,74,262.71,37.88,37.88,0,0,1,74.43,270.17Z"/><line class="cls-9" x1="56.67" y1="179.14" x2="54.29" y2="182.47"/><path class="cls-7" d="M83.91,256.33a4.09,4.09,0,0,1-.2,1.15,4,4,0,0,1-5.6,2.28h0c-1.49-.68-3.17-2.22-4.91-5.06-3-5-.31.25.84,8a37.88,37.88,0,0,1,.4,7.46,5.06,5.06,0,0,1,0,.55,13.29,13.29,0,0,1-.85,4.7,13.5,13.5,0,0,1-6.29,7.12,13.33,13.33,0,0,1-17.49-4.72,69.09,69.09,0,0,1-8.21-12,40,40,0,0,1-3.83-11.05v-.15c0-.18,0-.36,0-.54s0-.38,0-.57A94.68,94.68,0,0,1,54.6,233.65a45.77,45.77,0,0,1,12.08-7.77,1,1,0,0,1,1.14.26,1,1,0,0,1,.25.5l.06.29h0c.08.39.17.85.29,1.36A39.52,39.52,0,0,0,70,233.52a20.35,20.35,0,0,0,3.42,6.08l0,0A10.45,10.45,0,0,0,75,241,24.35,24.35,0,0,1,81.27,248,16.05,16.05,0,0,1,83.91,256.33Z"/><path class="cls-2" d="M70.82,233.22a83.79,83.79,0,0,0-35.57,24.2v0a1.36,1.36,0,0,1-2.33-.48A97.46,97.46,0,0,1,70.26,146.81a21.32,21.32,0,0,0-3,10.86v63.8A21.35,21.35,0,0,0,70.82,233.22Z"/><path class="cls-2" d="M129.49,129.66V234.45l-.15-.07q-2.53-1-5.15-1.85c-1.37-.44-2.75-.85-4.14-1.22a84.19,84.19,0,0,0-49.23,1.91,21.35,21.35,0,0,1-3.52-11.75v-63.8a21.32,21.32,0,0,1,3-10.86,96.74,96.74,0,0,1,49.79-17.08c1.83-.11,3.68-.16,5.54-.16C126.9,129.57,128.2,129.61,129.49,129.66Z"/><path class="cls-6" d="M28.2,230.65c.49,1.39-.15,3.89.4,5.25a85.35,85.35,0,0,1,63.93-29.38,83.4,83.4,0,0,1,30.81,5.86q3-1.77,6.15-3.28-3-1.47-6.15-2.72a83.79,83.79,0,0,0-94.09,23C28.72,230,28.71,230,28.2,230.65Z"/><path class="cls-7" d="M211.77,253.72c0,.18,0,.35,0,.53v.16a40,40,0,0,1-3.83,11,69.09,69.09,0,0,1-8.21,12,13.34,13.34,0,0,1-21.86,1.05,13.32,13.32,0,0,1-2.77-8.15,5.06,5.06,0,0,1,0-.55,36.4,36.4,0,0,1,.3-6.74c1.08-8.14,4.09-13.87.94-8.73-1.74,2.84-3.42,4.38-4.91,5.06h0a4,4,0,0,1-5.6-2.28,4.09,4.09,0,0,1-.2-1.15,14.53,14.53,0,0,1,1.75-6.75,24,24,0,0,1,7.21-8.55,10.45,10.45,0,0,0,1.51-1.4s0,0,0,0a20.47,20.47,0,0,0,3.42-6.08,34,34,0,0,0,1.19-3.69c.3-1.13.52-2.13.67-2.89h0l.06-.29a1,1,0,0,1,1.39-.76,47.32,47.32,0,0,1,13.41,8.95,96.39,96.39,0,0,1,15.49,18.71C211.77,253.34,211.77,253.53,211.77,253.72Z"/><path class="cls-2" d="M221.35,226.57a96.91,96.91,0,0,1-4.71,30,1.36,1.36,0,0,1-2.33.48l0,0a83.78,83.78,0,0,0-36.72-24.59,21.26,21.26,0,0,0,3-11v-63.8a21.32,21.32,0,0,0-4.87-13.59A97.27,97.27,0,0,1,221.35,226.57Z"/><path class="cls-2" d="M180.6,157.67v63.8a21.26,21.26,0,0,1-3,11,84,84,0,0,0-48.08-1.51c-1.79.47-3.56,1-5.3,1.6-1.35.45-2.68.94-4,1.46l-.15.07V129.27c1.29-.05,2.59-.09,3.9-.09a97.16,97.16,0,0,1,36.28,7,95.83,95.83,0,0,1,15.5,7.92A21.32,21.32,0,0,1,180.6,157.67Z"/><path class="cls-6" d="M221.34,230.26c-.49,1.39.16,3.89-.39,5.25A85.38,85.38,0,0,0,157,206.13,83.4,83.4,0,0,0,126.2,212q-3-1.77-6.15-3.28,3-1.47,6.15-2.72a83.79,83.79,0,0,1,94.09,23C220.82,229.64,220.83,229.63,221.34,230.26Z"/><path class="cls-5" d="M180.6,157.67v63.8a21.26,21.26,0,0,1-3,11A21.56,21.56,0,0,1,159.06,243H88.85A21.63,21.63,0,0,1,67.3,221.47v-63.8a21.32,21.32,0,0,1,3-10.86,21.58,21.58,0,0,1,18.59-10.68h70.21q.58,0,1.17,0a21.63,21.63,0,0,1,20.37,21.51Z"/><rect class="cls-6" x="76.79" y="167.21" width="93.91" height="51.35" rx="2.83"/><rect class="cls-7" x="76.79" y="170.21" width="93.91" height="51.35" rx="2.83"/><rect class="cls-6" x="83.92" y="175.79" width="80.5" height="10.6" rx="2.39"/><rect class="cls-6" x="83.92" y="192.88" width="18.26" height="21.42" rx="2.74"/><rect class="cls-6" x="107.63" y="193.79" width="56.79" height="2.09" rx="1.05"/><rect class="cls-6" x="107.63" y="198.79" width="56.79" height="2.09" rx="1.05"/><rect class="cls-6" x="107.63" y="203.79" width="56.79" height="2.09" rx="1.05"/><rect class="cls-6" x="107.63" y="208.79" width="56.79" height="2.09" rx="1.05"/><circle class="cls-6" cx="161.8" cy="5.95" r="5.95"/><path class="cls-7" d="M121.86,29.7A66.25,66.25,0,0,0,55.61,96H188.12A66.26,66.26,0,0,0,121.86,29.7Z"/><path class="cls-6" d="M121.86,162.21A66.26,66.26,0,0,0,188.12,96H55.61A66.25,66.25,0,0,0,121.86,162.21Z"/><path class="cls-5" d="M55.61,102.43c0,36.59,29.66,49.62,66.25,49.62s66.26-13,66.26-49.62a66.26,66.26,0,1,0-132.51,0Z"/><path class="cls-2" d="M178.18,102.43a56.32,56.32,0,0,0-112.64,0c0,31.1,25.77,35.72,56.87,35.72S178.18,133.53,178.18,102.43Z"/><path class="cls-10" d="M126.17,49.2a17.5,17.5,0,0,1,8.5.48c7.05,2.15,22.39,8.09,31,20.9,7.36,10.94,4.91,11.51,2.23,10.52a10,10,0,0,1-4.31-3.22c-3.92-5-16.65-19.83-31.68-23.76C120.89,51.24,122.89,49.85,126.17,49.2Z"/><circle class="cls-10" cx="170.55" cy="85.14" r="2.62"/><path class="cls-6" d="M74.83,92.36A49,49,0,0,1,95.12,52.85a56.31,56.31,0,0,0-29.58,49.58c0,24.9,16.52,32.82,39.07,35C87,129.48,74.83,112.3,74.83,92.36Z"/></g></g></svg>