<svg xmlns="http://www.w3.org/2000/svg" xmlns:xlink="http://www.w3.org/1999/xlink" viewBox="0 0 78.41 74.57"><defs><style>.cls-1{fill:url(#linear-gradient);}.cls-2{fill:url(#linear-gradient-2);}.cls-3{fill:url(#linear-gradient-3);}.cls-4{fill:url(#linear-gradient-4);}.cls-5{fill:url(#linear-gradient-5);}.cls-6{fill:url(#linear-gradient-6);}.cls-7{fill:url(#linear-gradient-7);}.cls-8{fill:#fff31a;}.cls-9{fill:url(#linear-gradient-8);}.cls-10{fill:url(#linear-gradient-9);}</style><linearGradient id="linear-gradient" y1="38.04" x2="39.2" y2="38.04" gradientUnits="userSpaceOnUse"><stop offset="0" stop-color="#fff31a"/><stop offset="0.53" stop-color="#fdf119"/><stop offset="0.72" stop-color="#f6ec15"/><stop offset="0.85" stop-color="#ebe20e"/><stop offset="0.96" stop-color="#dad404"/><stop offset="1" stop-color="#d2cd00"/></linearGradient><linearGradient id="linear-gradient-2" x1="28.1" y1="60.94" x2="23.45" y2="46.98" xlink:href="#linear-gradient"/><linearGradient id="linear-gradient-3" x1="14.97" y1="57.89" x2="39.2" y2="57.89" gradientUnits="userSpaceOnUse"><stop offset="0" stop-color="#fffa9a"/><stop offset="1" stop-color="#fff65a"/></linearGradient><linearGradient id="linear-gradient-4" x1="59.84" y1="74.85" x2="38.44" y2="50.67" gradientUnits="userSpaceOnUse"><stop offset="0" stop-color="#fffa9a"/><stop offset="0.49" stop-color="#fffa98"/><stop offset="0.67" stop-color="#fff991"/><stop offset="0.8" stop-color="#fff986"/><stop offset="0.9" stop-color="#fff875"/><stop offset="0.98" stop-color="#fff65f"/><stop offset="1" stop-color="#fff65a"/></linearGradient><linearGradient id="linear-gradient-5" x1="50" y1="64.72" x2="53.35" y2="47.98" xlink:href="#linear-gradient"/><linearGradient id="linear-gradient-6" x1="58.14" y1="38.5" x2="46.04" y2="46.32" xlink:href="#linear-gradient"/><linearGradient id="linear-gradient-7" x1="64.4" y1="39.46" x2="47.47" y2="25.51" xlink:href="#linear-gradient"/><linearGradient id="linear-gradient-8" x1="27.09" y1="20.61" x2="39.2" y2="20.61" xlink:href="#linear-gradient-4"/><linearGradient id="linear-gradient-9" x1="10.33" y1="36.14" x2="31.17" y2="33.17" xlink:href="#linear-gradient-4"/></defs><title>porgressStar</title><g id="Layer_2" data-name="Layer 2"><g id="Layer_2-2" data-name="Layer 2"><polygon class="cls-1" points="0 28.48 19.6 47.59 39.2 41.22 0 28.48"/><polygon class="cls-2" points="14.97 74.57 19.6 47.59 39.2 41.22 14.97 74.57"/><polygon class="cls-3" points="39.2 61.83 14.97 74.57 39.2 41.22 39.2 61.83"/><polygon class="cls-4" points="63.56 74.44 39.2 61.83 39.2 41.22 63.56 74.44"/><polygon class="cls-5" points="58.8 47.59 63.56 74.44 39.2 41.22 58.8 47.59"/><polygon class="cls-6" points="78.41 28.48 58.8 47.59 39.2 41.22 78.41 28.48"/><polygon class="cls-7" points="51.32 24.55 78.41 28.48 39.2 41.22 51.32 24.55"/><polygon class="cls-8" points="39.2 0 51.32 24.55 39.2 41.22 39.2 0"/><polygon class="cls-9" points="27.09 24.55 39.2 0 39.2 41.22 27.09 24.55"/><polygon class="cls-10" points="0 28.48 27.09 24.55 39.2 41.22 0 28.48"/></g></g></svg>