<svg xmlns="http://www.w3.org/2000/svg" viewBox="0 0 86.32 70.55"><defs><style>.cls-1{fill:#ccccc6;}.cls-2{fill:#595959;}</style></defs><title>handle2</title><g id="Layer_2" data-name="Layer 2"><g id="Layer_1-2" data-name="Layer 1"><path class="cls-1" d="M80.74,28H11.54l18.71-7L41.37,1.08h0c.85-1.36,1.94-1.44,2.82-.21l.15.21L55.21,21Z"/><path class="cls-1" d="M86.32,63.38c0,4-2.27,7.17-5.07,7.17H6C2.63,70.55.71,62.76.16,53.63.05,51.76,0,49.83,0,47.9s.07-4.13.21-6.12c.6-9,2.52-16.53,5.74-16.53h75.3c2.8,0,5.07,3.21,5.07,7.17Z"/><path d="M84.55,63.07c0,3.67-2.06,6.65-4.6,6.65H11.54c-7.27,0-7.14-42,0-42H80c2.54,0,4.6,3,4.6,6.65Z"/><rect class="cls-2" x="12.27" y="32.89" width="66.7" height="4.24" rx="1.34"/><rect class="cls-2" x="12.27" y="45.63" width="66.7" height="4.24" rx="1.34"/><rect class="cls-2" x="12.27" y="58.37" width="66.7" height="4.24" rx="1.34"/></g></g></svg>