<svg xmlns="http://www.w3.org/2000/svg" viewBox="0 0 86.32 27.98"><defs><style>.cls-1{fill:#ccccc6;}.cls-2{fill:#595959;}</style></defs><title>handle</title><g id="Layer_2" data-name="Layer 2"><g id="Layer_1-2" data-name="Layer 1"><path class="cls-1" d="M80.74,11.12H11.54L30.25,8.34,41.37.43h0A2.77,2.77,0,0,1,44.19.35l.15.08L55.21,8.34Z"/><path class="cls-1" d="M86.32,25.13c0,1.57-2.27,2.85-5.07,2.85H6C2.63,28,.71,24.89.16,21.27A15.69,15.69,0,0,1,0,19a14,14,0,0,1,.21-2.42C.81,13,2.73,10,6,10h75.3c2.8,0,5.07,1.27,5.07,2.85Z"/><path d="M84.55,24c0,1.46-2.06,2.64-4.6,2.64H11.54C4.27,26.67,4.4,10,11.54,10H80c2.54,0,4.6,1.18,4.6,2.64Z"/><rect class="cls-2" x="12.27" y="13.04" width="66.7" height="1.68" rx="0.84"/><rect class="cls-2" x="12.27" y="18.09" width="66.7" height="1.68" rx="0.84"/><rect class="cls-2" x="12.27" y="23.15" width="66.7" height="1.68" rx="0.84"/></g></g></svg>