<svg xmlns="http://www.w3.org/2000/svg" viewBox="0 0 140 43"><defs><style>.cls-1{fill:#30233f;}.cls-2,.cls-4{fill:#fff;}.cls-3{fill:#98de00;}.cls-4{font-size:24px;font-family:Mono45Headline-Regular, Mono45-Headline;}</style></defs><title>largeNext</title><g id="Layer_2" data-name="Layer 2"><g id="Layer_1-2" data-name="Layer 1"><rect class="cls-1" x="0.5" y="0.5" width="139" height="42" rx="12.5"/><path class="cls-2" d="M127,1a12,12,0,0,1,12,12V30a12,12,0,0,1-12,12H13A12,12,0,0,1,1,30V13A12,12,0,0,1,13,1H127m0-1H13A13,13,0,0,0,0,13V30A13,13,0,0,0,13,43H127a13,13,0,0,0,13-13V13A13,13,0,0,0,127,0Z"/><rect class="cls-3" x="7" y="5" width="131" height="33" rx="8.12"/><text class="cls-4" transform="translate(50.38 30.27)">Next</text></g></g></svg>