<svg xmlns="http://www.w3.org/2000/svg" viewBox="0 0 218 291.13"><defs><style>.cls-1{fill:#ccc;}.cls-2{fill:#919191;}</style></defs><title>smoke</title><g id="Layer_2" data-name="Layer 2"><g id="Layer_8" data-name="Layer 8"><polygon class="cls-1" points="55.87 6 15 254.13 118 254.13 82 6.13 55.87 6"/><circle class="cls-1" cx="43" cy="78.13" r="8"/><circle class="cls-1" cx="29" cy="168.13" r="8"/><circle class="cls-1" cx="32" cy="113.13" r="8"/><circle class="cls-1" cx="28.5" cy="142.63" r="25.5"/><circle class="cls-1" cx="173" cy="259.13" r="32"/><circle class="cls-1" cx="49" cy="98.13" r="21"/><circle class="cls-1" cx="59" cy="55.13" r="21"/><circle class="cls-1" cx="48.98" cy="158.93" r="9.8"/><circle class="cls-1" cx="31.22" cy="237.91" r="31.22"/><circle class="cls-1" cx="56.33" cy="183.42" r="25.71"/><circle class="cls-1" cx="35" cy="188.13" r="21"/><circle class="cls-1" cx="101" cy="91.13" r="8"/><circle class="cls-1" cx="104.5" cy="120.63" r="25.5"/><circle class="cls-1" cx="88" cy="76.13" r="21"/><circle class="cls-1" cx="101.78" cy="215.91" r="31.22"/><circle class="cls-1" cx="98" cy="166.13" r="21"/><path class="cls-2" d="M35.21,204a26.69,26.69,0,0,0,6.8,3,22.47,22.47,0,0,0,7,.81,24.81,24.81,0,0,0,7-1.31,34.48,34.48,0,0,0,6.76-3.24,16.87,16.87,0,0,1-13.63,7.55,17.17,17.17,0,0,1-8-1.61A14.1,14.1,0,0,1,35.21,204Z"/><path class="cls-2" d="M45.21,86a36,36,0,0,0,10.26,5.29c.93.23,1.83.48,2.74.72s1.85.36,2.77.49,1.87.22,2.8.25,1.88.06,2.81,0a34.91,34.91,0,0,0,11-2.25A43.81,43.81,0,0,0,87.76,84.9,27.7,27.7,0,0,1,66.7,95.73c-1,0-2.06,0-3.09-.06s-2.06-.24-3.08-.39-2-.5-3-.74-1.93-.71-2.89-1.08A23.45,23.45,0,0,1,45.21,86Z"/><path class="cls-2" d="M96.21,238a26.69,26.69,0,0,0,6.8,3,22.47,22.47,0,0,0,7,.81,24.81,24.81,0,0,0,7-1.31,34.48,34.48,0,0,0,6.76-3.24,16.87,16.87,0,0,1-13.63,7.55,17.17,17.17,0,0,1-8-1.61A14.1,14.1,0,0,1,96.21,238Z"/><path class="cls-2" d="M1.74,238.52a43.86,43.86,0,0,0,13.2,7.19l3.57,1c1.22.22,2.42.49,3.63.67s2.45.3,3.68.35,2.46.08,3.68,0,2.46-.1,3.68-.29,2.44-.34,3.64-.63l1.8-.43a13.9,13.9,0,0,0,1.79-.48l1.76-.6a13.47,13.47,0,0,0,1.75-.62,53,53,0,0,0,13-7.57,35.33,35.33,0,0,1-12.1,9.71,37.65,37.65,0,0,1-3.62,1.57,15.9,15.9,0,0,1-1.88.62l-1.9.57a14.26,14.26,0,0,1-1.94.42l-2,.35c-1.31.22-2.64.25-4,.38s-2.65-.06-4-.08-2.63-.3-3.95-.48-2.57-.62-3.86-.92-2.49-.89-3.72-1.35A31.45,31.45,0,0,1,1.74,238.52Z"/><polygon class="cls-1" points="140.87 0 100 248.13 203 248.13 167 0.13 140.87 0"/><circle class="cls-1" cx="128" cy="72.13" r="8"/><circle class="cls-1" cx="114" cy="162.13" r="8"/><circle class="cls-1" cx="117" cy="107.13" r="8"/><circle class="cls-1" cx="113.5" cy="136.63" r="25.5"/><circle class="cls-1" cx="134" cy="92.13" r="21"/><circle class="cls-1" cx="144" cy="49.13" r="21"/><circle class="cls-1" cx="133.98" cy="152.93" r="9.8"/><circle class="cls-1" cx="116.22" cy="231.91" r="31.22"/><circle class="cls-1" cx="141.33" cy="177.42" r="25.71"/><circle class="cls-1" cx="120" cy="182.13" r="21"/><circle class="cls-1" cx="186" cy="85.13" r="8"/><circle class="cls-1" cx="189.5" cy="114.63" r="25.5"/><circle class="cls-1" cx="173" cy="70.13" r="21"/><circle class="cls-1" cx="186.78" cy="209.91" r="31.22"/><circle class="cls-1" cx="183" cy="160.13" r="21"/><path class="cls-2" d="M104.21,179a26.69,26.69,0,0,0,6.8,3,22.47,22.47,0,0,0,7,.81,24.81,24.81,0,0,0,7-1.31,34.48,34.48,0,0,0,6.76-3.24,16.87,16.87,0,0,1-13.63,7.55,17.17,17.17,0,0,1-8-1.61A14.1,14.1,0,0,1,104.21,179Z"/><path class="cls-2" d="M149.21,86a36,36,0,0,0,10.26,5.29c.93.23,1.83.48,2.74.72s1.85.36,2.77.49,1.87.22,2.8.25,1.88.06,2.81,0a34.91,34.91,0,0,0,11-2.25,43.81,43.81,0,0,0,10.16-5.58A27.7,27.7,0,0,1,170.7,95.73c-1,0-2.06,0-3.09-.06s-2.06-.24-3.08-.39-2-.5-3-.74-1.93-.71-2.89-1.08A23.45,23.45,0,0,1,149.21,86Z"/><path class="cls-2" d="M167.21,199a26.69,26.69,0,0,0,6.8,3,22.47,22.47,0,0,0,7,.81,24.81,24.81,0,0,0,7-1.31,34.48,34.48,0,0,0,6.76-3.24,16.87,16.87,0,0,1-13.63,7.55,17.17,17.17,0,0,1-8-1.61A14.1,14.1,0,0,1,167.21,199Z"/><path class="cls-2" d="M86.74,232.52a43.86,43.86,0,0,0,13.2,7.19l3.57,1c1.22.22,2.42.49,3.63.67s2.45.3,3.68.35,2.46.08,3.68,0,2.46-.1,3.68-.29,2.44-.34,3.64-.63l1.8-.43a13.9,13.9,0,0,0,1.79-.48l1.76-.6a13.47,13.47,0,0,0,1.75-.62A53,53,0,0,0,142,231.1a35.33,35.33,0,0,1-12.1,9.71,37.65,37.65,0,0,1-3.62,1.57,15.9,15.9,0,0,1-1.88.62l-1.9.57a14.26,14.26,0,0,1-1.94.42l-2,.35c-1.31.22-2.64.25-4,.38s-2.65-.06-4-.08-2.63-.3-4-.48-2.57-.62-3.86-.92-2.49-.89-3.72-1.35A31.45,31.45,0,0,1,86.74,232.52Z"/><path class="cls-2" d="M125.74,111.52a43.86,43.86,0,0,0,13.2,7.19l3.57,1c1.22.22,2.42.49,3.63.67s2.45.3,3.68.35,2.46.08,3.68,0,2.46-.1,3.68-.29,2.44-.34,3.64-.63l1.8-.43a13.9,13.9,0,0,0,1.79-.48l1.76-.6a13.47,13.47,0,0,0,1.75-.62A53,53,0,0,0,181,110.1a35.33,35.33,0,0,1-12.1,9.71,37.65,37.65,0,0,1-3.62,1.57,15.9,15.9,0,0,1-1.88.62l-1.9.57a14.26,14.26,0,0,1-1.94.42l-1.95.35c-1.31.22-2.64.25-4,.38s-2.65-.06-4-.08-2.63-.3-3.95-.48-2.57-.62-3.86-.92-2.49-.89-3.72-1.35A31.45,31.45,0,0,1,125.74,111.52Z"/><path class="cls-2" d="M56.74,138.52a43.86,43.86,0,0,0,13.2,7.19l3.57,1c1.22.22,2.42.49,3.63.67s2.45.3,3.68.35,2.46.08,3.68,0,2.46-.1,3.68-.29,2.44-.34,3.64-.63l1.8-.43a13.9,13.9,0,0,0,1.79-.48l1.76-.6a13.47,13.47,0,0,0,1.75-.62,53,53,0,0,0,13-7.57,35.33,35.33,0,0,1-12.1,9.71,37.65,37.65,0,0,1-3.62,1.57,15.9,15.9,0,0,1-1.88.62l-1.9.57a14.26,14.26,0,0,1-1.94.42l-2,.35c-1.31.22-2.64.25-4,.38s-2.65-.06-4-.08-2.63-.3-4-.48-2.57-.62-3.86-.92-2.49-.89-3.72-1.35A31.45,31.45,0,0,1,56.74,138.52Z"/></g></g></svg>