<svg xmlns="http://www.w3.org/2000/svg" viewBox="0 0 266.85 439.15"><defs><style>.cls-1{fill:#908fb2;}.cls-2{fill:#ccccc6;}.cls-3,.cls-6,.cls-7,.cls-8{fill:none;stroke-miterlimit:10;}.cls-3{stroke:#908fb2;}.cls-4{fill:#4d4d4d;}.cls-5{fill:#30233f;}.cls-6{stroke:#000;stroke-width:0.25px;}.cls-7,.cls-8{stroke:#ccccc6;}.cls-8{stroke-linecap:round;}.cls-9{fill:#473b6b;}.cls-10{fill:#fff;}</style></defs><title>spaceman</title><g id="Layer_2" data-name="Layer 2"><g id="Layer_8" data-name="Layer 8"><circle class="cls-1" cx="180.45" cy="8" r="8"/><rect class="cls-2" x="53.33" y="276.64" width="70.88" height="162.38" rx="16.13"/><rect class="cls-2" x="136.17" y="276.63" width="69.6" height="162.39" rx="16.13"/><line class="cls-3" x1="180.45" y1="8" x2="180.45" y2="104.5"/><path class="cls-4" d="M10.13,166.26A18.76,18.76,0,0,1,28.88,147.5V138a28.26,28.26,0,0,0,0,56.51V185A18.76,18.76,0,0,1,10.13,166.26Z"/><rect class="cls-4" x="26.26" y="104.1" width="202.51" height="140.78" rx="16.13"/><rect class="cls-5" x="26.26" y="113.5" width="202.51" height="179.26" rx="16.13"/><path class="cls-1" d="M266.85,191.8A60.84,60.84,0,0,0,206.61,131v11.52a49.61,49.61,0,0,1,0,99.22v10.91A60.82,60.82,0,0,0,266.85,191.8Z"/><path class="cls-1" d="M205,239.76l-.84,0"/><path class="cls-1" d="M204.14,255l.84,0"/><rect class="cls-4" x="136.17" y="351.64" width="69.6" height="25.82" rx="12.91"/><rect class="cls-4" x="54.2" y="351.64" width="69.6" height="25.82" rx="12.91"/><path class="cls-4" d="M205.58,211.4v85.74a28.56,28.56,0,0,1-4.07,14.74,29,29,0,0,1-24.88,14.22H82.28a29.06,29.06,0,0,1-29-29V211.4a28.71,28.71,0,0,1,4-14.59,29,29,0,0,1,25-14.35h94.35c.53,0,1.05,0,1.58,0a29.07,29.07,0,0,1,27.37,28.9Z"/><path class="cls-5" d="M124.21,420.76v2.14A16.32,16.32,0,0,1,107.79,439h-38A16.33,16.33,0,0,1,53.32,422.9v-4.41a36.29,36.29,0,0,1,70.89,2.27Z"/><path class="cls-5" d="M206.18,420.76v2.14A16.32,16.32,0,0,1,189.76,439h-38A16.32,16.32,0,0,1,135.3,422.9v-4.41a36.28,36.28,0,0,1,70.88,2.27Z"/><rect class="cls-5" x="66.07" y="224.23" width="126.19" height="69" rx="3.8"/><rect class="cls-1" x="66.07" y="228.26" width="126.19" height="69" rx="3.8"/><rect class="cls-5" x="75.66" y="235.76" width="108.17" height="14.25" rx="3.21"/><rect class="cls-5" x="75.66" y="258.73" width="24.54" height="28.78" rx="3.68"/><line class="cls-6" x1="189.64" y1="439.02" x2="152.3" y2="439.02"/><rect class="cls-5" x="107.51" y="259.95" width="76.32" height="2.81" rx="1.41"/><rect class="cls-5" x="107.51" y="266.67" width="76.32" height="2.81" rx="1.41"/><rect class="cls-5" x="107.51" y="273.39" width="76.32" height="2.81" rx="1.41"/><rect class="cls-5" x="107.51" y="280.1" width="76.32" height="2.81" rx="1.41"/><line class="cls-7" x1="147.02" y1="370.33" x2="196.71" y2="370.33"/><path class="cls-1" d="M126.64,39.44a89,89,0,0,0-89,89H215.68A89,89,0,0,0,126.64,39.44Z"/><line class="cls-7" x1="147.02" y1="366.3" x2="196.71" y2="366.3"/><line class="cls-7" x1="147.02" y1="362.27" x2="196.71" y2="362.27"/><line class="cls-7" x1="66.39" y1="370.33" x2="116.08" y2="370.33"/><line class="cls-7" x1="66.39" y1="366.3" x2="116.08" y2="366.3"/><line class="cls-7" x1="66.39" y1="362.27" x2="116.08" y2="362.27"/><path class="cls-8" d="M141.19,416.64s8.05-20.75,29.3-20.75c15,0,20.58,7.95,20.58,7.95"/><path class="cls-5" d="M126.64,217.51a89,89,0,0,0,89-89H37.6A89,89,0,0,0,126.64,217.51Z"/><path class="cls-4" d="M37.6,137.17c0,49.18,39.87,66.69,89,66.69s89-17.51,89-66.69a89,89,0,0,0-178.08,0Z"/><path class="cls-2" d="M202.32,137.17a75.68,75.68,0,1,0-151.36,0c0,41.8,34.62,48,76.42,48S202.32,179,202.32,137.17Z"/><path class="cls-9" d="M121.48,431.62v.13A16.47,16.47,0,0,1,107.79,439h-38a16.55,16.55,0,0,1-13.81-7.4Z"/><path class="cls-4" d="M121.48,431.62v.13A16.47,16.47,0,0,1,107.79,439h-38a16.55,16.55,0,0,1-13.81-7.4Z"/><path class="cls-4" d="M203.46,431.62v.13a16.49,16.49,0,0,1-13.7,7.27h-38a16.52,16.52,0,0,1-13.8-7.4Z"/><path class="cls-10" d="M132.42,65.64a23.56,23.56,0,0,1,11.43.65c9.48,2.89,30.09,10.86,41.67,28.09,9.88,14.7,6.59,15.46,3,14.13a13.3,13.3,0,0,1-5.78-4.33c-5.27-6.68-22.38-26.65-42.58-31.93C125.34,68.38,128,66.51,132.42,65.64Z"/><circle class="cls-10" cx="192.07" cy="113.94" r="3.53"/><path class="cls-5" d="M63.44,123.65c0-21.65,10.7-40.88,27.27-53.1A75.66,75.66,0,0,0,51,137.17c0,33.46,22.2,44.11,52.49,47C79.82,173.53,63.44,150.43,63.44,123.65Z"/><ellipse class="cls-2" cx="193.98" cy="407.85" rx="0.96" ry="2.27" transform="translate(-177.94 151.63) rotate(-30)"/><path class="cls-8" d="M59.22,416.64s8-20.75,29.3-20.75c15,0,20.57,7.95,20.57,7.95"/><ellipse class="cls-2" cx="112" cy="407.85" rx="0.96" ry="2.27" transform="translate(-188.92 110.64) rotate(-30)"/><path class="cls-1" d="M244.76,122.42c0-.31,0,.31,0,0a53.58,53.58,0,0,0-5.14-14.85,93.18,93.18,0,0,0-11-16.09,17.93,17.93,0,0,0-15.17-8.4A17.92,17.92,0,0,0,195.49,101c0,.24,0,.5,0,.74-.83,15,7,29.51,1.67,20.79-2.34-3.82-4.6-5.89-6.6-6.8h0a5.32,5.32,0,0,0-7.53,3.07,5.52,5.52,0,0,0-.27,1.54c-.24,4.57,3,13.8,12,20.56a13.8,13.8,0,0,1,2,1.88s0,0,0,0c4.3,4.91,2.73,4.75,3.48,8.58h0c0,.13,0-.13,0,0,.17.84-.81.26,0,0,21.26-7,39.26-22.85,44.4-28.75C244.78,122.42,244.76,122.67,244.76,122.42Z"/><path class="cls-2" d="M200.36,151.42a112.65,112.65,0,0,0,47.8-32.52l0,0a1.83,1.83,0,0,1,3.13.64,130.43,130.43,0,0,1,6.33,40.32c0,44.67-17.91,80.89-52.07,104.48,0-4.36-.48-6.05-.48-11.37V167.21A28.63,28.63,0,0,0,200.36,151.42Z"/><path class="cls-5" d="M205,190.19c33.11-13.12,37.05-19.68,51.25-33.67a13.94,13.94,0,0,0,1.41-1.65c-.66-1.87.21-5.23-.53-7.05-18.65,16.78-20.86,19.1-52,34Z"/><path class="cls-1" d="M12.89,122.42c0-.31,0,.31,0,0A53.69,53.69,0,0,1,18,107.57a92.49,92.49,0,0,1,11-16.09,17.93,17.93,0,0,1,15.17-8.4A18,18,0,0,1,62.17,101a6.11,6.11,0,0,1,0,.74c.83,15-7,29.51-1.67,20.79,2.34-3.82,4.6-5.89,6.6-6.8h0a5.32,5.32,0,0,1,7.52,3.07,5.52,5.52,0,0,1,.27,1.54c.24,4.57-3,13.8-12,20.56a13.8,13.8,0,0,0-2,1.88s0,0,0,0c-4.3,4.91-2.73,4.75-3.48,8.58h0c0,.13,0-.13,0,0-.16.84.82.26,0,0-21.26-7-39.26-22.85-44.4-28.75A2.09,2.09,0,0,1,12.89,122.42Z"/><path class="cls-2" d="M57.29,151.42A112.71,112.71,0,0,1,9.49,118.9l0,0a1.83,1.83,0,0,0-3.13.64A130.14,130.14,0,0,0,0,159.83c0,44.67,17.91,80.89,52.07,104.48,0-4.36.49-6.05.49-11.37V167.21A28.62,28.62,0,0,1,57.29,151.42Z"/><path class="cls-5" d="M52.67,190.19c-33.11-13.12-37.05-19.68-51.24-33.67A12.29,12.29,0,0,1,0,154.87c.65-1.87-.21-5.23.53-7.05,18.64,16.78,20.85,19.1,52,34Z"/></g></g></svg>