<svg xmlns="http://www.w3.org/2000/svg" xmlns:xlink="http://www.w3.org/1999/xlink" viewBox="0 0 678.6 657.19"><defs><style>.cls-1{fill:#bababa;}.cls-2{fill:#483077;}.cls-3{fill:#8f608f;}.cls-4{fill:#301860;}.cls-5{fill:none;stroke:#03c7c7;stroke-miterlimit:10;}.cls-6{fill:#fff;}.cls-7{fill:url(#linear-gradient);}.cls-8{fill:url(#radial-gradient);}.cls-9{fill:url(#linear-gradient-2);}.cls-10{fill:url(#radial-gradient-2);}</style><linearGradient id="linear-gradient" x1="294.12" y1="646.66" x2="271.89" y2="391.42" gradientUnits="userSpaceOnUse"><stop offset="0" stop-color="#fff" stop-opacity="0.7"/><stop offset="0.11" stop-color="#fff" stop-opacity="0.66"/><stop offset="0.29" stop-color="#fff" stop-opacity="0.57"/><stop offset="0.52" stop-color="#fff" stop-opacity="0.41"/><stop offset="0.78" stop-color="#fff" stop-opacity="0.2"/><stop offset="1" stop-color="#fff" stop-opacity="0"/></linearGradient><radialGradient id="radial-gradient" cx="296.94" cy="603.19" r="8.9" gradientUnits="userSpaceOnUse"><stop offset="0" stop-color="#fff"/><stop offset="1" stop-color="#fff"/></radialGradient><linearGradient id="linear-gradient-2" x1="609.62" y1="649.02" x2="587.38" y2="393.79" xlink:href="#linear-gradient"/><radialGradient id="radial-gradient-2" cx="639.57" cy="603.19" r="8.9" xlink:href="#radial-gradient"/></defs><title>launchPad_1</title><g id="Layer_2" data-name="Layer 2"><g id="Layer_7" data-name="Layer 7"><rect class="cls-1" x="219.4" y="406.21" width="5.13" height="247.95"/><rect class="cls-1" x="178.19" y="406.21" width="5.13" height="247.95"/><polygon class="cls-1" points="223.56 602.1 181.17 654.06 179.44 651.93 221.83 599.98 223.56 602.1"/><polygon class="cls-1" points="222.26 654.06 179.88 602.1 181.61 599.98 223.99 651.93 222.26 654.06"/><polygon class="cls-1" points="223.56 554.65 181.17 606.61 179.44 604.48 221.83 552.53 223.56 554.65"/><polygon class="cls-1" points="222.26 606.61 179.88 554.65 181.61 552.53 223.99 604.48 222.26 606.61"/><polygon class="cls-1" points="223.56 507.2 181.17 559.15 179.44 557.03 221.83 505.08 223.56 507.2"/><polygon class="cls-1" points="222.26 559.15 179.88 507.2 181.61 505.08 223.99 557.03 222.26 559.15"/><polygon class="cls-1" points="223.56 459.75 181.17 511.7 179.44 509.58 221.83 457.63 223.56 459.75"/><polygon class="cls-1" points="222.26 511.7 179.88 459.75 181.61 457.63 223.99 509.58 222.26 511.7"/><polygon class="cls-1" points="223.56 412.3 181.17 464.25 179.44 462.13 221.83 410.17 223.56 412.3"/><polygon class="cls-1" points="222.26 464.25 179.88 412.3 181.61 410.17 223.99 462.13 222.26 464.25"/><rect class="cls-1" x="291.83" width="5.8" height="649.74"/><rect class="cls-1" x="253.12" width="5.8" height="649.74"/><polygon class="cls-1" points="297.24 605.04 254.85 649.66 253.12 647.83 295.51 603.22 297.24 605.04"/><polygon class="cls-1" points="295.94 649.66 253.55 605.04 255.28 603.22 297.67 647.83 295.94 649.66"/><polygon class="cls-1" points="297.24 564.29 254.85 608.9 253.12 607.08 295.51 562.46 297.24 564.29"/><polygon class="cls-1" points="295.94 608.9 253.55 564.29 255.28 562.46 297.67 607.08 295.94 608.9"/><polygon class="cls-1" points="297.24 523.53 254.85 568.15 253.12 566.33 295.51 521.71 297.24 523.53"/><polygon class="cls-1" points="295.94 568.15 253.55 523.53 255.28 521.71 297.67 566.33 295.94 568.15"/><polygon class="cls-1" points="297.24 482.78 254.85 527.4 253.12 525.58 295.51 480.96 297.24 482.78"/><polygon class="cls-1" points="295.94 527.4 253.55 482.78 255.28 480.96 297.67 525.58 295.94 527.4"/><polygon class="cls-1" points="297.24 442.03 254.85 486.65 253.12 484.83 295.51 440.21 297.24 442.03"/><polygon class="cls-1" points="295.94 486.65 253.55 442.03 255.28 440.21 297.67 484.83 295.94 486.65"/><polygon class="cls-1" points="297.24 401.28 254.85 445.9 253.12 444.08 295.51 399.46 297.24 401.28"/><polygon class="cls-1" points="295.94 445.9 253.55 401.28 255.28 399.46 297.67 444.08 295.94 445.9"/><polygon class="cls-1" points="297.24 360.53 254.85 405.15 253.12 403.32 295.51 358.71 297.24 360.53"/><polygon class="cls-1" points="295.94 405.15 253.55 360.53 255.28 358.71 297.67 403.32 295.94 405.15"/><polygon class="cls-1" points="297.24 319.78 254.85 364.39 253.12 362.57 295.51 317.95 297.24 319.78"/><polygon class="cls-1" points="295.94 364.39 253.55 319.78 255.28 317.95 297.67 362.57 295.94 364.39"/><polygon class="cls-1" points="297.24 279.03 254.85 323.64 253.12 321.82 295.51 277.2 297.24 279.03"/><polygon class="cls-1" points="295.94 323.64 253.55 279.03 255.28 277.2 297.67 321.82 295.94 323.64"/><polygon class="cls-1" points="297.24 238.28 254.85 282.89 253.12 281.07 295.51 236.45 297.24 238.28"/><polygon class="cls-1" points="295.94 282.89 253.55 238.28 255.28 236.45 297.67 281.07 295.94 282.89"/><polygon class="cls-1" points="297.24 197.52 254.85 242.14 253.12 240.32 295.51 195.7 297.24 197.52"/><polygon class="cls-1" points="295.94 242.14 253.55 197.52 255.28 195.7 297.67 240.32 295.94 242.14"/><polygon class="cls-1" points="297.24 156.77 254.85 201.39 253.12 199.57 295.51 154.95 297.24 156.77"/><polygon class="cls-1" points="295.94 201.39 253.55 156.77 255.28 154.95 297.67 199.57 295.94 201.39"/><polygon class="cls-1" points="297.24 116.02 254.85 160.64 253.12 158.81 295.51 114.2 297.24 116.02"/><polygon class="cls-1" points="295.94 160.64 253.55 116.02 255.28 114.2 297.67 158.81 295.94 160.64"/><polygon class="cls-1" points="297.24 75.27 254.85 119.89 253.12 118.06 295.51 73.45 297.24 75.27"/><polygon class="cls-1" points="295.94 119.89 253.55 75.27 255.28 73.45 297.67 118.06 295.94 119.89"/><polygon class="cls-1" points="297.24 34.52 254.85 79.14 253.12 77.31 295.51 32.7 297.24 34.52"/><polygon class="cls-1" points="295.94 79.14 253.55 34.52 255.28 32.7 297.67 77.31 295.94 79.14"/><rect class="cls-1" x="128.35" y="508.44" width="2.1" height="2.1"/><rect class="cls-1" x="128.35" y="504.7" width="2.1" height="2.1"/><rect class="cls-1" x="320.53" y="295.99" width="2.18" height="80.37" transform="translate(-14.56 657.8) rotate(-90)"/><rect class="cls-1" x="320.53" y="313.49" width="2.18" height="80.37" transform="translate(-32.06 675.3) rotate(-90)"/><polygon class="cls-1" points="344.93 335.5 361.77 353.5 361.09 354.24 344.25 336.24 344.93 335.5"/><polygon class="cls-1" points="361.77 336.05 344.93 354.05 344.25 353.32 361.09 335.32 361.77 336.05"/><polygon class="cls-1" points="329.55 335.5 346.39 353.5 345.7 354.24 328.86 336.24 329.55 335.5"/><polygon class="cls-1" points="346.39 336.05 329.55 354.05 328.86 353.32 345.7 335.32 346.39 336.05"/><polygon class="cls-1" points="314.17 335.5 331.01 353.5 330.32 354.24 313.48 336.24 314.17 335.5"/><polygon class="cls-1" points="331.01 336.05 314.17 354.05 313.48 353.32 330.32 335.32 331.01 336.05"/><polygon class="cls-1" points="298.79 335.5 315.63 353.5 314.94 354.24 298.1 336.24 298.79 335.5"/><polygon class="cls-1" points="315.63 336.05 298.79 354.05 298.1 353.32 314.94 335.32 315.63 336.05"/><polygon class="cls-1" points="283.4 335.5 300.25 353.5 299.56 354.24 282.72 336.24 283.4 335.5"/><polygon class="cls-1" points="300.25 336.05 283.4 354.05 282.72 353.32 299.56 335.32 300.25 336.05"/><rect class="cls-1" x="320.53" y="509.53" width="2.18" height="80.37" transform="translate(-228.1 871.34) rotate(-90)"/><rect class="cls-1" x="320.53" y="527.03" width="2.18" height="80.37" transform="translate(-245.6 888.84) rotate(-90)"/><polygon class="cls-1" points="344.93 549.04 361.77 567.04 361.09 567.78 344.25 549.78 344.93 549.04"/><polygon class="cls-1" points="361.77 549.6 344.93 567.6 344.25 566.86 361.09 548.86 361.77 549.6"/><polygon class="cls-1" points="329.55 549.04 346.39 567.04 345.7 567.78 328.86 549.78 329.55 549.04"/><polygon class="cls-1" points="346.39 549.6 329.55 567.6 328.86 566.86 345.7 548.86 346.39 549.6"/><polygon class="cls-1" points="314.17 549.04 331.01 567.04 330.32 567.78 313.48 549.78 314.17 549.04"/><polygon class="cls-1" points="331.01 549.6 314.17 567.6 313.48 566.86 330.32 548.86 331.01 549.6"/><polygon class="cls-1" points="298.79 549.04 315.63 567.04 314.94 567.78 298.1 549.78 298.79 549.04"/><polygon class="cls-1" points="315.63 549.6 298.79 567.6 298.1 566.86 314.94 548.86 315.63 549.6"/><polygon class="cls-1" points="283.4 549.04 300.25 567.04 299.56 567.78 282.72 549.78 283.4 549.04"/><polygon class="cls-1" points="300.25 549.6 283.4 567.6 282.72 566.86 299.56 548.86 300.25 549.6"/><rect class="cls-1" x="320.53" y="169.86" width="2.18" height="80.37" transform="translate(111.57 531.67) rotate(-90)"/><rect class="cls-1" x="320.53" y="187.36" width="2.18" height="80.37" transform="translate(94.07 549.17) rotate(-90)"/><polygon class="cls-1" points="344.93 209.37 361.77 227.37 361.09 228.11 344.25 210.11 344.93 209.37"/><polygon class="cls-1" points="361.77 209.93 344.93 227.92 344.25 227.19 361.09 209.19 361.77 209.93"/><polygon class="cls-1" points="329.55 209.37 346.39 227.37 345.7 228.11 328.86 210.11 329.55 209.37"/><polygon class="cls-1" points="346.39 209.93 329.55 227.92 328.86 227.19 345.7 209.19 346.39 209.93"/><polygon class="cls-1" points="314.17 209.37 331.01 227.37 330.32 228.11 313.48 210.11 314.17 209.37"/><polygon class="cls-1" points="331.01 209.93 314.17 227.92 313.48 227.19 330.32 209.19 331.01 209.93"/><polygon class="cls-1" points="298.79 209.37 315.63 227.37 314.94 228.11 298.1 210.11 298.79 209.37"/><polygon class="cls-1" points="315.63 209.93 298.79 227.92 298.1 227.19 314.94 209.19 315.63 209.93"/><polygon class="cls-1" points="283.4 209.37 300.25 227.37 299.56 228.11 282.72 210.11 283.4 209.37"/><polygon class="cls-1" points="300.25 209.93 283.4 227.92 282.72 227.19 299.56 209.19 300.25 209.93"/><polygon class="cls-2" points="659.08 588.91 180.09 588.51 164.46 617.23 678.6 617.23 659.08 588.91"/><polygon class="cls-3" points="320.18 405.53 178.19 406.21 163.23 415.3 334.69 415.3 320.18 405.53"/><rect class="cls-4" x="163.23" y="415.3" width="171.46" height="3.31"/><rect class="cls-1" x="146.97" y="510.54" width="5.36" height="138.25"/><rect class="cls-1" x="107.01" y="510.54" width="5.13" height="138.25"/><polygon class="cls-1" points="151.13 606.81 108.74 648.71 107.01 647 149.4 605.1 151.13 606.81"/><polygon class="cls-1" points="149.83 648.71 107.44 606.81 109.18 605.1 151.56 647 149.83 648.71"/><polygon class="cls-1" points="151.13 568.54 108.74 610.44 107.01 608.73 149.4 566.83 151.13 568.54"/><polygon class="cls-1" points="149.83 610.44 107.44 568.54 109.18 566.83 151.56 608.73 149.83 610.44"/><polygon class="cls-1" points="151.13 527.8 108.74 569.7 107.01 567.99 149.4 526.08 151.13 527.8"/><polygon class="cls-1" points="149.83 569.7 107.44 527.8 109.18 526.08 151.56 567.99 149.83 569.7"/><rect class="cls-1" x="54.56" y="510.54" width="5.13" height="138.25"/><rect class="cls-1" x="14.6" y="510.54" width="5.13" height="138.25"/><polygon class="cls-1" points="58.72 606.81 16.33 648.71 14.6 647 56.99 605.1 58.72 606.81"/><polygon class="cls-1" points="57.42 648.71 15.03 606.81 16.77 605.1 59.15 647 57.42 648.71"/><polygon class="cls-1" points="58.72 568.54 16.33 610.44 14.6 608.73 56.99 566.83 58.72 568.54"/><polygon class="cls-3" points="152.34 510.54 14.96 509.84 0 518.93 156.47 518.93 152.34 510.54"/><polygon class="cls-1" points="57.42 610.44 15.03 568.54 16.77 566.83 59.15 608.73 57.42 610.44"/><path class="cls-5" d="M130.45,505.74s20.06-.12,22.64,2.7,4.75,12.15,4.75,12.15S151.36,572,183.32,571.2s65.64,10.32,110-2.09,65.9-22.64,65.9-22.64"/><polygon class="cls-1" points="58.72 527.8 16.33 569.7 14.6 567.99 56.99 526.08 58.72 527.8"/><polygon class="cls-1" points="57.42 569.7 15.03 527.8 16.77 526.08 59.15 567.99 57.42 569.7"/><rect class="cls-6" x="205.67" y="414.95" width="5.13" height="202.28"/><rect class="cls-6" x="134.49" y="519.85" width="5.13" height="137.34"/><rect class="cls-6" x="94.52" y="519.85" width="5.13" height="137.34"/><rect class="cls-6" x="164.46" y="414.95" width="5.13" height="202.28"/><line class="cls-6" x1="168.34" y1="617.23" x2="168.34" y2="414.95"/><line class="cls-6" x1="168.34" y1="617.23" x2="168.34" y2="414.95"/><rect class="cls-6" x="157.79" y="593.87" width="59.94" height="2.45" transform="translate(-365.8 307.07) rotate(-45)"/><rect class="cls-6" x="158.23" y="593.87" width="59.94" height="2.45" transform="translate(475.92 41.22) rotate(45)"/><rect class="cls-6" x="86.61" y="633.83" width="59.94" height="2.45" transform="translate(-414.91 268.44) rotate(-45)"/><rect class="cls-6" x="87.04" y="633.83" width="59.94" height="2.45" transform="translate(483.33 103.26) rotate(45)"/><rect class="cls-6" x="86.61" y="595.12" width="59.94" height="2.45" transform="translate(-387.53 257.1) rotate(-45)"/><rect class="cls-6" x="87.04" y="595.12" width="59.94" height="2.45" transform="translate(455.95 91.92) rotate(45)"/><rect class="cls-6" x="86.61" y="553.91" width="59.94" height="2.45" transform="translate(-358.39 245.03) rotate(-45)"/><rect class="cls-6" x="87.04" y="553.91" width="59.94" height="2.45" transform="translate(426.81 79.85) rotate(45)"/><rect class="cls-6" x="42.07" y="519.85" width="5.13" height="137.34"/><rect class="cls-6" x="2.11" y="519.85" width="5.13" height="137.34"/><rect class="cls-6" x="-5.8" y="633.83" width="59.94" height="2.45" transform="translate(-441.97 203.1) rotate(-45)"/><rect class="cls-6" x="-5.37" y="633.83" width="59.94" height="2.45" transform="translate(456.26 168.61) rotate(45)"/><rect class="cls-6" x="-5.8" y="595.12" width="59.94" height="2.45" transform="translate(-414.6 191.76) rotate(-45)"/><rect class="cls-6" x="-5.37" y="595.12" width="59.94" height="2.45" transform="translate(428.88 157.27) rotate(45)"/><rect class="cls-6" x="-5.8" y="553.91" width="59.94" height="2.45" transform="translate(-385.46 179.69) rotate(-45)"/><rect class="cls-6" x="-5.37" y="553.91" width="59.94" height="2.45" transform="translate(399.74 145.2) rotate(45)"/><rect class="cls-6" x="157.79" y="555.16" width="59.94" height="2.45" transform="translate(-338.43 295.73) rotate(-45)"/><rect class="cls-6" x="158.23" y="555.16" width="59.94" height="2.45" transform="translate(448.54 29.89) rotate(45)"/><rect class="cls-6" x="157.79" y="516.44" width="59.94" height="2.45" transform="translate(-311.05 284.39) rotate(-45)"/><rect class="cls-6" x="158.23" y="516.44" width="59.94" height="2.45" transform="translate(421.17 18.55) rotate(45)"/><rect class="cls-6" x="157.79" y="477.73" width="59.94" height="2.45" transform="translate(-283.68 273.05) rotate(-45)"/><rect class="cls-6" x="158.23" y="477.73" width="59.94" height="2.45" transform="translate(393.79 7.21) rotate(45)"/><rect class="cls-6" x="157.79" y="439.02" width="59.94" height="2.45" transform="translate(-256.3 261.71) rotate(-45)"/><rect class="cls-6" x="158.23" y="439.02" width="59.94" height="2.45" transform="translate(366.42 -4.13) rotate(45)"/><path class="cls-5" d="M130.45,509.49s31.14,6.49,31.14,0,.84-98.06.84-98.06.89-8.69,25.77-8.83,171,0,171,0"/><rect class="cls-6" x="280.59" width="5.8" height="617.23"/><rect class="cls-6" x="241.88" width="5.8" height="617.23"/><rect class="cls-6" x="233.97" y="593.87" width="59.94" height="2.45" transform="translate(-343.49 360.93) rotate(-45)"/><rect class="cls-6" x="234.4" y="593.87" width="59.94" height="2.45" transform="translate(498.23 -12.64) rotate(45)"/><rect class="cls-6" x="233.97" y="555.16" width="59.94" height="2.45" transform="translate(-316.12 349.59) rotate(-45)"/><rect class="cls-6" x="234.4" y="555.16" width="59.94" height="2.45" transform="translate(470.85 -23.98) rotate(45)"/><rect class="cls-6" x="233.97" y="516.44" width="59.94" height="2.45" transform="translate(-288.74 338.26) rotate(-45)"/><rect class="cls-6" x="234.4" y="516.44" width="59.94" height="2.45" transform="translate(443.48 -35.32) rotate(45)"/><rect class="cls-6" x="233.97" y="477.73" width="59.94" height="2.45" transform="translate(-261.37 326.92) rotate(-45)"/><rect class="cls-6" x="234.4" y="477.73" width="59.94" height="2.45" transform="translate(416.11 -46.66) rotate(45)"/><rect class="cls-6" x="233.97" y="439.02" width="59.94" height="2.45" transform="translate(-233.99 315.58) rotate(-45)"/><rect class="cls-6" x="234.4" y="439.02" width="59.94" height="2.45" transform="translate(388.73 -58) rotate(45)"/><rect class="cls-6" x="233.97" y="400.31" width="59.94" height="2.45" transform="translate(-206.62 304.24) rotate(-45)"/><rect class="cls-6" x="234.4" y="400.31" width="59.94" height="2.45" transform="translate(361.36 -69.33) rotate(45)"/><rect class="cls-6" x="233.97" y="361.59" width="59.94" height="2.45" transform="translate(-179.25 292.9) rotate(-45)"/><rect class="cls-6" x="234.4" y="361.59" width="59.94" height="2.45" transform="translate(333.98 -80.67) rotate(45)"/><rect class="cls-6" x="233.97" y="322.88" width="59.94" height="2.45" transform="translate(-151.87 281.56) rotate(-45)"/><rect class="cls-6" x="234.4" y="322.88" width="59.94" height="2.45" transform="translate(306.61 -92.01) rotate(45)"/><rect class="cls-6" x="233.97" y="284.17" width="59.94" height="2.45" transform="translate(-124.5 270.22) rotate(-45)"/><rect class="cls-6" x="234.4" y="284.17" width="59.94" height="2.45" transform="translate(279.24 -103.35) rotate(45)"/><rect class="cls-6" x="233.97" y="245.46" width="59.94" height="2.45" transform="translate(-97.12 258.89) rotate(-45)"/><rect class="cls-6" x="234.4" y="245.46" width="59.94" height="2.45" transform="translate(251.86 -114.69) rotate(45)"/><rect class="cls-6" x="233.97" y="206.74" width="59.94" height="2.45" transform="translate(-69.75 247.55) rotate(-45)"/><rect class="cls-6" x="234.4" y="206.74" width="59.94" height="2.45" transform="translate(224.49 -126.03) rotate(45)"/><rect class="cls-6" x="233.97" y="168.03" width="59.94" height="2.45" transform="translate(-42.38 236.21) rotate(-45)"/><rect class="cls-6" x="234.4" y="168.03" width="59.94" height="2.45" transform="translate(197.11 -137.37) rotate(45)"/><rect class="cls-6" x="233.97" y="129.32" width="59.94" height="2.45" transform="translate(-15 224.87) rotate(-45)"/><rect class="cls-6" x="234.4" y="129.32" width="59.94" height="2.45" transform="translate(169.74 -148.7) rotate(45)"/><rect class="cls-6" x="233.97" y="90.61" width="59.94" height="2.45" transform="translate(12.37 213.53) rotate(-45)"/><rect class="cls-6" x="234.4" y="90.61" width="59.94" height="2.45" transform="translate(142.37 -160.04) rotate(45)"/><rect class="cls-6" x="233.97" y="51.89" width="59.94" height="2.45" transform="translate(39.75 202.19) rotate(-45)"/><rect class="cls-6" x="234.4" y="51.89" width="59.94" height="2.45" transform="translate(114.99 -171.38) rotate(45)"/><rect class="cls-6" x="320.53" y="174.86" width="2.18" height="80.37" transform="translate(106.58 536.66) rotate(-90)"/><rect class="cls-6" x="320.53" y="192.36" width="2.18" height="80.37" transform="translate(89.08 554.16) rotate(-90)"/><polygon class="cls-6" points="344.93 214.37 361.77 232.37 361.09 233.1 344.25 215.1 344.93 214.37"/><polygon class="cls-6" points="361.77 214.92 344.93 232.92 344.25 232.18 361.09 214.19 361.77 214.92"/><polygon class="cls-6" points="329.55 214.37 346.39 232.37 345.7 233.1 328.86 215.1 329.55 214.37"/><polygon class="cls-6" points="346.39 214.92 329.55 232.92 328.86 232.18 345.7 214.19 346.39 214.92"/><polygon class="cls-6" points="314.17 214.37 331.01 232.37 330.32 233.1 313.48 215.1 314.17 214.37"/><polygon class="cls-6" points="331.01 214.92 314.17 232.92 313.48 232.18 330.32 214.19 331.01 214.92"/><polygon class="cls-6" points="298.79 214.37 315.63 232.37 314.94 233.1 298.1 215.1 298.79 214.37"/><polygon class="cls-6" points="315.63 214.92 298.79 232.92 298.1 232.18 314.94 214.19 315.63 214.92"/><polygon class="cls-6" points="283.4 214.37 300.25 232.37 299.56 233.1 282.72 215.1 283.4 214.37"/><polygon class="cls-6" points="300.25 214.92 283.4 232.92 282.72 232.18 299.56 214.19 300.25 214.92"/><rect class="cls-6" x="320.53" y="300.99" width="2.18" height="80.37" transform="translate(-19.55 662.79) rotate(-90)"/><rect class="cls-6" x="320.53" y="318.49" width="2.18" height="80.37" transform="translate(-37.05 680.29) rotate(-90)"/><polygon class="cls-6" points="344.93 340.5 361.77 358.5 361.09 359.23 344.25 341.23 344.93 340.5"/><polygon class="cls-6" points="361.77 341.05 344.93 359.05 344.25 358.31 361.09 340.31 361.77 341.05"/><polygon class="cls-6" points="329.55 340.5 346.39 358.5 345.7 359.23 328.86 341.23 329.55 340.5"/><polygon class="cls-6" points="346.39 341.05 329.55 359.05 328.86 358.31 345.7 340.31 346.39 341.05"/><polygon class="cls-6" points="314.17 340.5 331.01 358.5 330.32 359.23 313.48 341.23 314.17 340.5"/><polygon class="cls-6" points="331.01 341.05 314.17 359.05 313.48 358.31 330.32 340.31 331.01 341.05"/><polygon class="cls-6" points="298.79 340.5 315.63 358.5 314.94 359.23 298.1 341.23 298.79 340.5"/><polygon class="cls-6" points="315.63 341.05 298.79 359.05 298.1 358.31 314.94 340.31 315.63 341.05"/><polygon class="cls-6" points="283.4 340.5 300.25 358.5 299.56 359.23 282.72 341.23 283.4 340.5"/><polygon class="cls-6" points="300.25 341.05 283.4 359.05 282.72 358.31 299.56 340.31 300.25 341.05"/><rect class="cls-6" x="320.53" y="514.53" width="2.18" height="80.37" transform="translate(-233.1 876.33) rotate(-90)"/><rect class="cls-6" x="320.53" y="532.03" width="2.18" height="80.37" transform="translate(-250.6 893.83) rotate(-90)"/><polygon class="cls-6" points="344.93 554.04 361.77 572.04 361.09 572.77 344.25 554.78 344.93 554.04"/><polygon class="cls-6" points="361.77 554.59 344.93 572.59 344.25 571.86 361.09 553.86 361.77 554.59"/><polygon class="cls-6" points="329.55 554.04 346.39 572.04 345.7 572.77 328.86 554.78 329.55 554.04"/><polygon class="cls-6" points="346.39 554.59 329.55 572.59 328.86 571.86 345.7 553.86 346.39 554.59"/><polygon class="cls-6" points="314.17 554.04 331.01 572.04 330.32 572.77 313.48 554.78 314.17 554.04"/><polygon class="cls-6" points="331.01 554.59 314.17 572.59 313.48 571.86 330.32 553.86 331.01 554.59"/><polygon class="cls-6" points="298.79 554.04 315.63 572.04 314.94 572.77 298.1 554.78 298.79 554.04"/><polygon class="cls-6" points="315.63 554.59 298.79 572.59 298.1 571.86 314.94 553.86 315.63 554.59"/><polygon class="cls-6" points="283.4 554.04 300.25 572.04 299.56 572.77 282.72 554.78 283.4 554.04"/><polygon class="cls-6" points="300.25 554.59 283.4 572.59 282.72 571.86 299.56 553.86 300.25 554.59"/><rect class="cls-6" x="417.49" y="355.67" width="5.8" height="514.6" transform="translate(-192.58 1033.37) rotate(-90)"/><rect class="cls-6" x="417.49" y="394.39" width="5.8" height="514.6" transform="translate(-231.3 1072.08) rotate(-90)"/><polygon class="cls-6" points="640.34 610.47 677.62 652.86 676.1 654.59 638.81 612.2 640.34 610.47"/><polygon class="cls-6" points="677.62 611.77 640.34 654.16 638.81 652.42 676.1 610.04 677.62 611.77"/><polygon class="cls-6" points="606.28 610.47 643.57 652.86 642.04 654.59 604.76 612.2 606.28 610.47"/><polygon class="cls-6" points="643.57 611.77 606.28 654.16 604.76 652.42 642.04 610.04 643.57 611.77"/><polygon class="cls-6" points="572.23 610.47 609.51 652.86 607.99 654.59 570.71 612.2 572.23 610.47"/><polygon class="cls-6" points="609.51 611.77 572.23 654.16 570.71 652.42 607.99 610.04 609.51 611.77"/><polygon class="cls-6" points="538.17 610.47 575.46 652.86 573.94 654.59 536.65 612.2 538.17 610.47"/><polygon class="cls-6" points="575.46 611.77 538.17 654.16 536.65 652.42 573.94 610.04 575.46 611.77"/><polygon class="cls-6" points="504.12 610.47 541.41 652.86 539.88 654.59 502.6 612.2 504.12 610.47"/><polygon class="cls-6" points="541.41 611.77 504.12 654.16 502.6 652.42 539.88 610.04 541.41 611.77"/><polygon class="cls-6" points="470.07 610.47 507.35 652.86 505.83 654.59 468.55 612.2 470.07 610.47"/><polygon class="cls-6" points="507.35 611.77 470.07 654.16 468.55 652.42 505.83 610.04 507.35 611.77"/><polygon class="cls-6" points="436.01 610.47 473.3 652.86 471.78 654.59 434.49 612.2 436.01 610.47"/><polygon class="cls-6" points="473.3 611.77 436.01 654.16 434.49 652.42 471.78 610.04 473.3 611.77"/><polygon class="cls-6" points="401.96 610.47 439.25 652.86 437.72 654.59 400.44 612.2 401.96 610.47"/><polygon class="cls-6" points="439.25 611.77 401.96 654.16 400.44 652.42 437.72 610.04 439.25 611.77"/><polygon class="cls-6" points="367.91 610.47 405.19 652.86 403.67 654.59 366.38 612.2 367.91 610.47"/><polygon class="cls-6" points="405.19 611.77 367.91 654.16 366.38 652.42 403.67 610.04 405.19 611.77"/><polygon class="cls-6" points="333.85 610.47 371.14 652.86 369.62 654.59 332.33 612.2 333.85 610.47"/><polygon class="cls-6" points="371.14 611.77 333.85 654.16 332.33 652.42 369.62 610.04 371.14 611.77"/><polygon class="cls-6" points="299.8 610.47 337.08 652.86 335.56 654.59 298.28 612.2 299.8 610.47"/><polygon class="cls-6" points="337.08 611.77 299.8 654.16 298.28 652.42 335.56 610.04 337.08 611.77"/><polygon class="cls-6" points="265.75 610.47 303.03 652.86 301.51 654.59 264.22 612.2 265.75 610.47"/><polygon class="cls-6" points="303.03 611.77 265.75 654.16 264.22 652.42 301.51 610.04 303.03 611.77"/><polygon class="cls-6" points="231.69 610.47 268.98 652.86 267.45 654.59 230.17 612.2 231.69 610.47"/><polygon class="cls-6" points="268.98 611.77 231.69 654.16 230.17 652.42 267.45 610.04 268.98 611.77"/><polygon class="cls-6" points="197.64 610.47 234.92 652.86 233.4 654.59 196.12 612.2 197.64 610.47"/><polygon class="cls-6" points="234.92 611.77 197.64 654.16 196.12 652.42 233.4 610.04 234.92 611.77"/><polygon class="cls-6" points="163.59 610.47 200.87 652.86 199.35 654.59 162.06 612.2 163.59 610.47"/><polygon class="cls-6" points="200.87 611.77 163.59 654.16 162.06 652.42 199.35 610.04 200.87 611.77"/><path class="cls-1" d="M115.69,483.18c-7.22,0-13.11,3.64-13.51,8.22h27C128.79,486.82,122.9,483.18,115.69,483.18Z"/><path class="cls-6" d="M102.18,491.4c0,.17,0,.33,0,.49v22.5h27.09v-22.5c0-.16,0-.32,0-.49Z"/><rect class="cls-4" y="518.93" width="156.47" height="3.31"/><rect class="cls-1" x="105.51" y="499.5" width="20.54" height="11.6"/><rect class="cls-6" x="108.69" y="499.5" width="0.97" height="11.6"/><rect class="cls-6" x="106.53" y="499.5" width="0.97" height="11.6"/><rect class="cls-6" x="111.19" y="499.5" width="0.97" height="11.6"/><rect class="cls-6" x="113.69" y="499.5" width="0.97" height="11.6"/><rect class="cls-6" x="116.19" y="499.5" width="0.97" height="11.6"/><rect class="cls-6" x="118.68" y="499.5" width="0.97" height="11.6"/><rect class="cls-6" x="121.18" y="499.5" width="0.97" height="11.6"/><rect class="cls-6" x="123.68" y="499.5" width="0.97" height="11.6"/><polyline class="cls-7" points="309.13 603.19 388.84 365.84 150.48 365.84 284.75 603.19 309.13 603.19"/><ellipse class="cls-8" cx="296.94" cy="603.19" rx="12.19" ry="3.14"/><polyline class="cls-9" points="651.76 603.19 678.2 524.47 676.79 365.84 676.79 365.84 493.11 365.84 627.38 603.19 651.76 603.19"/><ellipse class="cls-10" cx="639.57" cy="603.19" rx="12.19" ry="3.14"/></g></g></svg>