<svg xmlns="http://www.w3.org/2000/svg" viewBox="0 0 1024 477.85"><defs><style>.cls-1{fill:#301860;}.cls-2{fill:#8f608f;}</style></defs><title>mtn3</title><g id="Layer_2" data-name="Layer 2"><g id="Layer_12" data-name="Layer 12"><path class="cls-1" d="M157,279.81c-3.15,1.37-6.49,1.05-9.78,1-11.73,0-23.47.36-35.16-1-7.51-1.69-15.39-.83-22.73-3.84A44.89,44.89,0,0,0,61.9,273.4a3.65,3.65,0,0,0-1.44.38c-9,6.79-20.4,6.07-30.49,9.45a13.89,13.89,0,0,0-5.41,3.44A96.17,96.17,0,0,1,11,297.62c-3.51,2.34-7.24,3.6-11,.23v-93a4.1,4.1,0,0,1,4.35-3.24,37.38,37.38,0,0,1,4.49,0c6.15.83,10.67-1.18,13.48-6.94,1.39-2.85,3.52-4.32,6.86-2.34,3.1,1.84,5.36.38,7.14-2.3,2.67-4,5.51-7.91,8.43-11.76,3.09-4.1,6.91-6,12-5.71a23.37,23.37,0,0,0,6.47-.24c6.28-1.39,11.67-3.89,13.75-10.77,2.75-9.14,10.36-13,18.43-15.82,4-1.39,7.22-3.23,9.36-6.83a37.07,37.07,0,0,1,11-11.33,41.5,41.5,0,0,0,12.52-14c3.55-6.57,6.62-13.35,12.45-18.49,3-2.6,4.58-6.5,6.35-10.09,1.08-2.17,2.48-4.15,5.14-4.2,7-.14,12.48-2.7,15.83-9.15a6.36,6.36,0,0,1,3-2.6c4.39-6,10.76-5.65,17.12-5.28a6.53,6.53,0,0,0,5.09,2.77c4.4.56,6.78,3.53,6.76,7.43,0,11.53,6.28,21.26,8.44,32.13.59,3,2.75,3.3,5.26,3.42,7.73.36,7.74.4,9.67,7.57.35,1.3.62,2.73,1.79,3.46,4.83,3,5.65,7.92,6.39,12.93.63,4.28,1.09,8.52,6.16,10.44,2.44.92,2.89,3.91,3.72,6.26,4.94,13.94,4.94,13.92,19.61,15.23a37.38,37.38,0,0,0,16.15-2.52c4.31-1.54,8.34-2.07,11.85,1.95,1.82,2.08,4.55,1.62,7.06,1.45,14.13-.92,27.4-5.21,40.47-10.27,2.19-.84,4.31-1.82,5.55-4,2.75-1.08,5.3-1.33,6.92,1.82,1.32,2.54,3.59,3.05,6.17,3,5.33,0,10.66-.1,16,0,4.69.11,8.64-2.53,12.64-3.5,7.38-1.79,12.05-6.17,17.23-10.56,1.82-1.54,4-1.73,6.28-2.19,6.11-1.24,7-7.49,9.46-11.76,3.88-6.87,8.49-13.44,10.5-21.4C429.54,98.39,437.52,95,445.3,91.9c12.85-5.12,24.93-11.56,35.56-20.47,5.63-4.72,9.07-11,11.08-18,1-3.36,2.5-5,6.21-4.63,5.82.54,9.85-3.25,12.54-7.42,3.75-5.8,9.21-9.67,13.82-14.47a54.83,54.83,0,0,0,11-16.51c1.9-4.39,5-9,10.46-10.39,2.34,2.47,3.69,5.52,4.94,8.61,1.12,2.78,3.49,5.28,4.13,7.78,1.93,7.58,6.73,13.25,10.42,19.73,2.61,4.58,3.86,8.82,10,9,2.41.08,4.23,2,5.07,4.35,1.29,3.61,3.76,6.12,6.62,8.54s5.37,5.46,6.17,9.44c.68,3.38,3.39,5.24,5.73,7.32,1.37,1.22,3.06,2.2,3.7,4,2.79,7.76,9.31,11.48,15.68,15.83,5.05,3.45,10.16,7.51,12.57,13.72,1.26,3.26,2.59,6.49,3.9,9.73.63,1.55,1.09,3.28,2.33,4.38,11.12,9.88,22.37,19.58,38.11,21,3.3.31,6.62.48,9.93.92,7.83,1,15.23.06,21.61-5.27,1.88-1.57,3.78-3.31,6.33-3.88,4.29,2.11,8.63,3.94,13.58,3.72,1.15-.05,2.09.91,3,1.63,6.35,4.89,12.27,5.26,18-.23,9.2-8.89,21.47-11.84,32.16-17.79,8.59.93,15.43-4.58,23.29-6.34,1.83-.41,3.81-.77,5.31.44,4,3.24,8.68,2.94,13.35,2.89a54.6,54.6,0,0,1,8,0c8.31,1.16,15.25-2.52,22.25-6,2.78-1.39,4.43-4,6.12-6.46,4.28-6.34,8.17-13,13-18.93,3.36-4.16,6.8-5.94,10.91-.79A25,25,0,0,0,891,93.82c5.22,2.48,7.88,6.93,10.88,11.28,2.18,3.16,1.35,6.76,1.46,10.2.2,5.85.76,6.35,6.49,5.32a45.55,45.55,0,0,1,5.91-1c3.47-.17,6.5.17,6.12,4.9-.17,2.2,1.37,2.68,3.21,3,10.91,1.56,14.49-.1,20.23-9.5.87-1.43,1.63-2.91,2.48-4.35,1.7-2.88,4.09-4.31,7.5-3.57a14.34,14.34,0,0,0,9.26-1.08c3.48-1.63,6.85-2.92,11-2.66,3.55.22,5.89-2.86,7.79-5.61a31.82,31.82,0,0,0,5.37-15.91,17.75,17.75,0,0,0,0-4c-1.41-9.41,2.33-15.72,11.14-19.27,3.49-1.41,5.37-4.34,6-8.06a24.92,24.92,0,0,0,.55-2.94c.48-10.65,4.2-14.37,17.49-12.69.06.66.16,1.33.16,2q0,114.48,0,229c0,.66-.1,1.32-.15,2a4.17,4.17,0,0,1-4.19-1c-14.78-11.67-32.59-13.48-50.33-15.7-9.74-1.22-19.51-2.34-29-4.91-7.58-2-12.23-7-14.84-14.23-4.6-12.71-11.31-15.16-23.44-8.61-3.73,2-7.58,3.5-11.93,2.86-7.48-1.12-14,1.56-20.45,4.86-5.82,3-8.77,2.13-12.17-3.4-2.44-4-5.43-4.9-9.66-4.12s-8.16,1.77-12.37,1.58c-4.44-.2-7.92-1.77-10.21-6-2.9-5.34-8.65-6.33-13.49-2.68a4.87,4.87,0,0,0-1.44,1.38c-3.44,6.26-8.27,9.19-15.82,8.49-6.16-.56-12.5,2.12-18.61-1.2-3.23-1.76-7-2.13-10.53-3.1-1.44-.39-3.21-.47-4.22-1.45-5.69-5.56-12.06-3.63-18.5-2a9.6,9.6,0,0,0-6.37,4.41c-2.43,4.07-6.08,7-9.4,10.3a5.4,5.4,0,0,1-4,1.86c-4.68-.1-16-8.43-16.88-13.08-1.7-8.71-6.89-15.45-12.11-22.08-3.67-4.65-9.53-5.63-15-5.62-10.2,0-20.09-2.93-30.33-2.4a20.83,20.83,0,0,1-11.9-3.34,17.57,17.57,0,0,0-10-2.46c-8.15.16-16.34-.52-24.35,1.66a5.06,5.06,0,0,1-3,.16c-8.48-3.31-16.38.3-24.38,2.09-3.71.84-7.28,1-10.79-.35-7.15-2.77-14-1.58-20.11,2.32-8.1,5.17-16.22,9.7-26.17,9.83-2.3,0-4.42,1.39-6.6,2.23-7.47,2.88-15,5.59-23.11,6a11,11,0,0,0-10.39,7.27c-4.47,10.71-12.6,16.68-23.78,18.9a172.23,172.23,0,0,0-25.89,7.49,19.33,19.33,0,0,1-9.81.93c-6.79-1-13.64-.34-20.47-.45a17.85,17.85,0,0,1-9.06-2.25c-5.29-3.08-11.37-2-17.08-2.52-7.93-.72-16,.06-23.92-1.1a18.43,18.43,0,0,0-12.56,2.22c-3,1.84-6.34,1.73-9.7,1.09a17.92,17.92,0,0,0-11.71,1.23A8.32,8.32,0,0,1,310,247c-10.68-.32-21.21,1.14-31.79,2.18a14.22,14.22,0,0,1-13.8-6.4c-.66-.95-1.46-1.82-2.2-2.72-6.06-7.29-6.93-8.46-17.25-2.51-5.22,3-9.2,3.34-14.28.75s-10.45-5.16-15.39-8.25c-3.26-2-6-1.48-8.38,1.36a43.08,43.08,0,0,0-7.4,13c-2.7,7.23-7.38,12.15-15.11,13.84-3.4.74-5.8,2.89-8.15,5.42C170.5,269.79,165.05,276.4,157,279.81Z"/><path class="cls-2" d="M694.87,122.77c4.51,6.57,12,9,18.28,13-3.75,3.54-8.29,5.93-12.56,8.72-3.63,2.37-7.79,1.36-11.69,1.23-5.75-.19-11.47-1.24-17.22-1.5-9.95-.45-16.59-7.52-24.63-11.81-9.63-5.15-14.29-13.71-17.21-23.7-.94-3.23-3.64-5.2-5.89-7.62-5.62-6-13.15-9.32-19.25-14.56a3.67,3.67,0,0,1-1.3-2.06c-.55-4.42-3-7.14-6.56-9.81-2.48-1.86-5.18-4.3-5.31-8.78-.08-2.82-3.26-5.93-6.22-8-1.21-.84-2.92-1.63-3.35-2.82-2.2-6.08-5.33-10.12-12.75-9.9-3.15.1-3.23-4.15-4.1-6.71-1.19-3.51-1.29-7.29-6.57-8-2.65-.36-2.34-4.31-2.46-6.78-.15-3.45-1.48-5.76-3.62-8.62-3.21-4.27-4.45-10-6.53-15.13,4.49,1.19,9.52.11,12.93,5.35,1.34,2.06,6.32,2.1,9.7,2.39,2.7.23,4.38.7,4.75,3.71.5,4,3.53,5.44,7,5.3s6.47,1.35,9.79,1.13A2.67,2.67,0,0,1,593,20c1,3.29,3.18,4.19,6.44,3.88,5.35-.5,6.71,4,8.46,7.54,1.22,2.51,2.6,4.9,4,7.32,1,1.85,2.76,3,4.25,2.91,5.27-.48,9.63,1.4,13.88,4.09.93.59,2.59,1.34,3.18.94,4.52-3.07,8.25.26,12.28,1.16,3.54.8,5.41,2.93,5.5,6.54.07,2.83,0,5.66,0,8.49.07,3.61-1.12,7.55,4.29,9,2.23.62,2.85,3.91,3.7,6.18,3.41,9.08,11.13,13.92,18.61,18.84,3.43,2.25,5.48,4.3,6.83,8.63,1.63,5.22,3.61,10.8,7.19,15.34C692.41,121.9,693.23,123.13,694.87,122.77Z"/><path class="cls-2" d="M342.07,152c.33,2.75-1.55,3.89-3.64,4.64-12.23,4.38-24.17,9.81-37.5,10.25-2.95.09-5.79,1.2-8.84,1-2-.12-3.78-.54-4.61-2.33-1.62-3.5-4.58-3.43-7.15-2.28-9.33,4.18-18.94,3.7-28.71,2.58a9.59,9.59,0,0,1-8.2-6.31c-1.41-3.34-2.49-6.82-3.68-10.24-1-2.87-1.81-5.64-5.85-5.61-2.75,0-2.32-2.89-2.77-4.58a79.82,79.82,0,0,1-2-10.64c-.38-3.1-1.65-5.36-4.63-6.43-2.11-.76-2.35-2.35-2.53-4.33-.65-6.9-.75-7.18-7.68-6.8-4.86.26-7-.9-7.66-6.25-.55-4.53-2.49-9-4.88-13.27-2.26-4.05-2.26-9.53-2.65-14.43-.56-7.17-1.09-8.19-8-9.12-2.72-.36-3.25-1.85-3-4.14a18.73,18.73,0,0,1,6.3,1.06c6.74,2.78,13.35,3,19.63-1.44,3-2.11,5.42-1.82,8.22,1,3.2,3.26,7.1,5.79,9.64,9.77A5.79,5.79,0,0,0,236.83,77a5.12,5.12,0,0,1,3.74,2.07c2.3,4,5.61,5.31,9.93,4.75,1.59-.21,2.12.82,3,1.87C258,91,262.38,96.46,269,99.32c4.65,2,5.3,6.28,6,10.52,4.48,3.51,9.22,6.52,15,7.31,3.75.51,5.36,2.93,6.09,6.26.81,3.73,1.6,7.46,2.25,11.22.53,3.1,1.88,4.33,5.34,4.29a26.3,26.3,0,0,1,17.05,6,49.72,49.72,0,0,0,16.37,8.82C339.07,154,340.3,152.23,342.07,152Z"/><polygon class="cls-1" points="0 477.85 1023.83 477.85 1023.83 149.96 459.33 149.96 194.78 217 0 258.86 0 477.85"/></g></g></svg>