<svg xmlns="http://www.w3.org/2000/svg" viewBox="0 0 1024 534.44"><defs><style>.cls-1{fill:#001848;}</style></defs><title>mtn4</title><g id="Layer_2" data-name="Layer 2"><g id="Layer_13" data-name="Layer 13"><path class="cls-1" d="M171,125.61c-2.41,3.51-4.44,7.38-7.34,10.42-2.47,2.59-6.53,2-9.87,2.26-2.94.24-4.49,1.29-5.67,3.82-2.52,5.42-5.61,10.36-10.35,14.33-2.28,1.91-3.66,5.09-5,7.91-3.11,6.5-6.78,12.54-12.28,17.32-.24.2-.27.69-.52.83-7.78,4.49-12.88,11.57-18.12,18.54a3.8,3.8,0,0,1-2.53,1.39c-5.8.1-9.61,4.61-14.62,6.54-3.72,1.42-5.1,5.91-6.55,9.61-2.82,7.15-9,12.55-16.58,11.63C51.32,229,45.73,234,41.13,241.76c-1.09,1.85-2.4,3.57-3.53,5.41-2.46,4-5.53,5.84-9.76,2.48-1.72-1.36-2.77-.85-3.42.82-3.54,9.14-11,9.85-19.17,9-2.1-.23-3.94.18-5.25,2v-69a8.3,8.3,0,0,0,3.29-.66c3.3-1.63,6.25-3.7,10.67-2.52,6.69,1.79,11.51-3.11,16.33-6.74,2.74-2.06,4.77-3.45,8.68-2.34,5.53,1.57,11-.2,15.62-3.82,2.21-1.73,4.75-2.87,7.24-1.44,2,1.14,3.73-.27,4.41-.76,6.47-4.68,14.56-4.71,21.53-7.92,5.56-2.57,10.33-5.46,13.37-11.16,3.81-7.16,10.11-11.31,18.18-12.66,1.42-.24,3.25-.33,4.1-1.23,4.43-4.72,11-5.69,16-9.39,4.17-3,8.81-5.41,12.77-8.87,1-.86,3.17-.48,4.8-.47C161.9,122.49,166.3,124.69,171,125.61Z"/><path class="cls-1" d="M1023.83,94.44c-1.92,1.39-4.15,1-6.29,1-6.53.09-9,2.38-9.56,8.85a47.9,47.9,0,0,1-1.13,7.85,10.66,10.66,0,0,1-6.74,7.43c-6.85,2.78-11.21,6.92-10.25,15.4,1,9.33-.79,18.32-7.48,25.49-2.57,2.74-5.22,6.33-10.11,3.44-.79-.47-2.71.83-4,1.47-4.54,2.22-9,4.31-14.28,2.28-1.78-.69-3.26.31-4.29,1.77a25.09,25.09,0,0,0-1.68,3.06c-6.56,12.68-10.61,14.77-24.62,13-2.91-.37-4-1.91-3-4.4,1.28-3.41-.5-3.89-3.05-3.58-3.27.4-6.54,1-9.76,1.68-3.82.83-5.83-.27-5.54-4.47.11-1.49,0-3,0-4.49.08-8.08-3.62-13.6-10.57-17.77-4-2.42-8.5-4.74-11.41-8.64-2.4-3.2-4-2.38-6.23,0-6,6.72-10.24,14.68-15.42,22-5.31,7.47-13.35,10.2-21.69,11.46-6.19.93-12.64.1-19,.21-3.44.07-6.65-.16-9.16-2.92a3.61,3.61,0,0,0-4.16-.77c-3.73,1.34-7.46,2.72-11.2,4.05-3.39,1.21-6.42,4.31-10.55,1.82-.55-.33-1.86.44-2.74.85-6.77,3.19-13.48,6.5-20.28,9.61a32.63,32.63,0,0,0-9.71,6.84c-6.92,7-13.58,7.06-21.28.73a4.08,4.08,0,0,0-2.63-1.14,14.59,14.59,0,0,1-12.85-4.14c-6.9-1.33-12.29-5.29-17.23-10-.82-.77-1.57-1.74-1-3.06,1.8-3.29,5.37-4.91,7.36-8.27,1.32-2.23,5.39-.41,6.56.95,5.78,6.76,12.13,5.62,18.76,2.14,2.6-1.37,4.75-2.07,7.77-.9s6.06-.33,8.87-1.81c5.66-3,12.25-4.07,17.15-8.71,3-2.88,4-8.21,1.08-11.15-3.7-3.77-3.32-6.8.15-10.59,2.33-2.55,3.28-6.22,5.19-9.25,1.54-2.45,3.09-3.62,5.86-3.34.66.07,1.35-.09,2,0,6.76,1.3,12.26-1.74,18-4.72,3.94-2.06,8.35-2.54,12.56.22a5.17,5.17,0,0,0,3.85.41c7.27-2.18,15-1.1,22.19-3.14,3.36-1,6.54-.45,9.79-.76,2-.19,2.67,1,3.16,2.9.78,3.15,2.21,4.86,6.39,3.44a204,204,0,0,0,24.39-10c9.74-4.78,20.05-9.34,31.54-8.32,1.26.12,2.81-.6,3.71.74,2.86,4.28,7.22,3,11.24,3.3,3.58.28,4.44-1.56,4.64-4.63.57-8.62,1.38-17.22,6.52-24.64.66-1-.17-1.18-.5-1.85-2.32-4.72-2-9.12,0-14.14,3.74-9.59,12.24-10.34,19.57-14.2,5.06-2.65,12-1,15.48-7,.69-1.21,2.56-.19,3.77-.6,4.77-1.64,9.59-3.2,12.21-8.13.52-1,1.41-2.34,2.28-2.46,6.63-1,9.38-6.71,12.56-11.12,4.22-5.84,9.58-10.79,13.12-17.14,1.32-2.36,3.82-1.8,6-2.22,1.85-.36,3.53-1.54,5.82-4.32Z"/><path class="cls-1" d="M337.13,210.36c-4.87.21-9.38-1-12.95-4.31-6.6-6.16-13.95-10-23.28-8.73-1.84.25-2.61-.9-2.95-2.6-.94-4.63-2.07-9.22-2.92-13.87-.73-4-2.32-6.34-7-6.55a15.15,15.15,0,0,1-13-7.87c4.16-.69,8.1,1,12.2,1,.57,0,1.55.32,1.64.66,2.37,9.37,11.6,6,17.33,9,7,3.68,14,6.48,16.82,14.7,1.41,4.17,3.87,7.42,8.39,8.65,2.66.73,3.69,2.84,4.37,5.28C336.21,207.33,335.52,209.19,337.13,210.36Z"/><path class="cls-1" d="M171,125.61l104,40.82,12.2,1,29.22,27.41,20.68,15.47s8.34,14.67,39.6,17.46,60.84-9.49,71.44-4.46,42.42,55.25,85.95,40.18,40.19,2.81,40.19,2.81,16.74,7.83,28.46,0,50.79-71.94,72-68.63,21.15-15.3,21.15-15.3l101.64-13.76,78.7-43,59.16,9.56,64.19-34,17.3-17.89H1024l-.17,451.18H0V237.31Z"/></g></g></svg>