<svg xmlns="http://www.w3.org/2000/svg" viewBox="0 0 1047.77 770.13"><defs><style>.cls-1{fill:#fff;}</style></defs><title>stars_1</title><g id="Layer_2" data-name="Layer 2"><g id="Layer_4" data-name="Layer 4"><ellipse class="cls-1" cx="40.4" cy="16.63" rx="0.61" ry="0.67"/><ellipse class="cls-1" cx="244.16" cy="42.9" rx="2.24" ry="2.47"/><ellipse class="cls-1" cx="609.17" cy="43.25" rx="2.19" ry="2.41"/><ellipse class="cls-1" cx="59.96" cy="88.98" rx="0.23" ry="0.26"/><ellipse class="cls-1" cx="623.73" cy="55.61" rx="1.03" ry="1.13"/><ellipse class="cls-1" cx="406.83" cy="45.73" rx="1.34" ry="1.47"/><ellipse class="cls-1" cx="431.86" cy="2.31" rx="2.1" ry="2.31"/><ellipse class="cls-1" cx="359.28" cy="65.53" rx="1.35" ry="1.49"/><ellipse class="cls-1" cx="332.62" cy="76.3" rx="0.55" ry="0.6"/><ellipse class="cls-1" cx="476.84" cy="79.63" rx="1.83" ry="2.01"/><ellipse class="cls-1" cx="687.86" cy="30.83" rx="0.78" ry="0.86"/><ellipse class="cls-1" cx="495.37" cy="57.92" rx="1.81" ry="1.99"/><ellipse class="cls-1" cx="367.53" cy="83.04" rx="0.27" ry="0.3"/><ellipse class="cls-1" cx="430.57" cy="56.27" rx="1.69" ry="1.86"/><ellipse class="cls-1" cx="511.36" cy="4.9" rx="0.55" ry="0.61"/><ellipse class="cls-1" cx="649.85" cy="51.2" rx="1.97" ry="2.17"/><ellipse class="cls-1" cx="276.14" cy="1.82" rx="0.16" ry="0.18"/><ellipse class="cls-1" cx="912.69" cy="62.18" rx="1.19" ry="1.31"/><ellipse class="cls-1" cx="438.83" cy="78.56" rx="1.89" ry="2.09"/><ellipse class="cls-1" cx="918.71" cy="61.43" rx="1.66" ry="1.83"/><ellipse class="cls-1" cx="889.46" cy="92.83" rx="1.97" ry="2.17"/><ellipse class="cls-1" cx="458.85" cy="71.15" rx="1.51" ry="1.67"/><ellipse class="cls-1" cx="901.42" cy="96.26" rx="2.12" ry="2.34"/><ellipse class="cls-1" cx="439.58" cy="48.28" rx="0.95" ry="1.05"/><ellipse class="cls-1" cx="909.54" cy="62.94" rx="1.45" ry="1.6"/><ellipse class="cls-1" cx="970.96" cy="56.8" rx="1.28" ry="1.42"/><ellipse class="cls-1" cx="717.14" cy="5.4" rx="0.48" ry="0.52"/><ellipse class="cls-1" cx="472.78" cy="58.44" rx="0.98" ry="1.08"/><ellipse class="cls-1" cx="625.62" cy="109.17" rx="2.1" ry="2.31"/><ellipse class="cls-1" cx="641.29" cy="36.03" rx="1.67" ry="1.84"/><ellipse class="cls-1" cx="172.08" cy="99.79" rx="1.11" ry="1.23"/><ellipse class="cls-1" cx="408.76" cy="114.18" rx="0.45" ry="0.5"/><ellipse class="cls-1" cx="460.61" cy="107.27" rx="0.84" ry="0.93"/><ellipse class="cls-1" cx="116.85" cy="57.58" rx="0.73" ry="0.8"/><ellipse class="cls-1" cx="201.87" cy="108.18" rx="0.97" ry="1.07"/><ellipse class="cls-1" cx="305.19" cy="111.8" rx="0.75" ry="0.82"/><ellipse class="cls-1" cx="334.23" cy="110.13" rx="1.81" ry="2"/><ellipse class="cls-1" cx="592.95" cy="100.48" rx="0.67" ry="0.74"/><ellipse class="cls-1" cx="485.1" cy="92.76" rx="1.33" ry="1.47"/><ellipse class="cls-1" cx="703.17" cy="110.16" rx="0.28" ry="0.3"/><ellipse class="cls-1" cx="748.92" cy="36.33" rx="2.07" ry="2.28"/><ellipse class="cls-1" cx="455.14" cy="62.53" rx="2.23" ry="2.46"/><ellipse class="cls-1" cx="529.13" cy="37.64" rx="2.22" ry="2.45"/><ellipse class="cls-1" cx="629.98" cy="74.19" rx="1.74" ry="1.92"/><ellipse class="cls-1" cx="792.33" cy="113.64" rx="1" ry="1.1"/><ellipse class="cls-1" cx="899.89" cy="103.9" rx="1.14" ry="1.25"/><ellipse class="cls-1" cx="846.95" cy="92.35" rx="1" ry="1.1"/><ellipse class="cls-1" cx="535.02" cy="87.36" rx="2.18" ry="2.41"/><ellipse class="cls-1" cx="438.7" cy="91.49" rx="1.15" ry="1.27"/><ellipse class="cls-1" cx="617.81" cy="59.5" rx="1.85" ry="2.04"/><ellipse class="cls-1" cx="814.48" cy="84.37" rx="1.81" ry="2"/><ellipse class="cls-1" cx="782.15" cy="64.2" rx="0.23" ry="0.26"/><ellipse class="cls-1" cx="945.52" cy="53.5" rx="0.41" ry="0.45"/><ellipse class="cls-1" cx="634.22" cy="51.59" rx="1.16" ry="1.28"/><ellipse class="cls-1" cx="482.25" cy="62.58" rx="1.34" ry="1.48"/><ellipse class="cls-1" cx="287.05" cy="93.8" rx="1.26" ry="1.39"/><ellipse class="cls-1" cx="316.89" cy="60.99" rx="1.43" ry="1.57"/><ellipse class="cls-1" cx="407.29" cy="133.23" rx="1.89" ry="2.09"/><ellipse class="cls-1" cx="391.66" cy="85.83" rx="0.34" ry="0.38"/><ellipse class="cls-1" cx="142.54" cy="128.3" rx="0.91" ry="1"/><ellipse class="cls-1" cx="102.79" cy="141.43" rx="1.67" ry="1.84"/><ellipse class="cls-1" cx="183.6" cy="76.74" rx="0.8" ry="0.89"/><ellipse class="cls-1" cx="303.04" cy="121.36" rx="0.18" ry="0.19"/><ellipse class="cls-1" cx="442.22" cy="81.37" rx="1.02" ry="1.12"/><ellipse class="cls-1" cx="318.41" cy="86.97" rx="0.66" ry="0.73"/><ellipse class="cls-1" cx="361.13" cy="72.31" rx="0.16" ry="0.18"/><ellipse class="cls-1" cx="281.76" cy="133.37" rx="1.44" ry="1.59"/><ellipse class="cls-1" cx="731.64" cy="116.79" rx="1.78" ry="1.97"/><ellipse class="cls-1" cx="530.06" cy="142.97" rx="0.82" ry="0.91"/><ellipse class="cls-1" cx="670.79" cy="116.39" rx="2.07" ry="2.29"/><ellipse class="cls-1" cx="605.2" cy="126.47" rx="0.5" ry="0.55"/><ellipse class="cls-1" cx="550.08" cy="91.84" rx="0.45" ry="0.49"/><ellipse class="cls-1" cx="397" cy="151.43" rx="1.79" ry="1.98"/><ellipse class="cls-1" cx="718.23" cy="155.26" rx="0.71" ry="0.79"/><ellipse class="cls-1" cx="889.83" cy="158.22" rx="1.01" ry="1.11"/><ellipse class="cls-1" cx="462.26" cy="69.89" rx="0.68" ry="0.75"/><ellipse class="cls-1" cx="703.11" cy="63.56" rx="1.25" ry="1.38"/><ellipse class="cls-1" cx="1015.45" cy="97.47" rx="0.32" ry="0.35"/><ellipse class="cls-1" cx="488.1" cy="151.58" rx="1.87" ry="2.06"/><ellipse class="cls-1" cx="550.6" cy="132.85" rx="0.5" ry="0.55"/><ellipse class="cls-1" cx="579.47" cy="152.24" rx="2.18" ry="2.4"/><ellipse class="cls-1" cx="348.61" cy="157.4" rx="0.95" ry="1.05"/><ellipse class="cls-1" cx="299.84" cy="138.45" rx="0.11" ry="0.13"/><ellipse class="cls-1" cx="322.23" cy="124.68" rx="1.67" ry="1.84"/><ellipse class="cls-1" cx="585.58" cy="155.52" rx="0.75" ry="0.83"/><ellipse class="cls-1" cx="672.86" cy="143.75" rx="1.44" ry="1.59"/><ellipse class="cls-1" cx="684.14" cy="148.19" rx="0.4" ry="0.45"/><ellipse class="cls-1" cx="429.77" cy="139.92" rx="1.92" ry="2.12"/><ellipse class="cls-1" cx="621.15" cy="165.16" rx="2.21" ry="2.43"/><ellipse class="cls-1" cx="127.09" cy="158" rx="0.22" ry="0.24"/><ellipse class="cls-1" cx="187.52" cy="106.06" rx="0.71" ry="0.78"/><ellipse class="cls-1" cx="764.75" cy="122.12" rx="2.18" ry="2.4"/><ellipse class="cls-1" cx="558.76" cy="125.05" rx="0.14" ry="0.15"/><ellipse class="cls-1" cx="468.19" cy="182.94" rx="0.39" ry="0.43"/><ellipse class="cls-1" cx="438.87" cy="121.74" rx="1.73" ry="1.91"/><ellipse class="cls-1" cx="273.79" cy="152.43" rx="0.95" ry="1.04"/><ellipse class="cls-1" cx="695.03" cy="119.8" rx="0.98" ry="1.08"/><ellipse class="cls-1" cx="629.8" cy="126.15" rx="1.98" ry="2.18"/><ellipse class="cls-1" cx="342.94" cy="132.87" rx="1.3" ry="1.43"/><ellipse class="cls-1" cx="674.74" cy="93.02" rx="1.56" ry="1.72"/><ellipse class="cls-1" cx="387.92" cy="118.18" rx="1.11" ry="1.23"/><ellipse class="cls-1" cx="928.01" cy="132.56" rx="0.52" ry="0.58"/><ellipse class="cls-1" cx="921.08" cy="117.5" rx="1.58" ry="1.74"/><ellipse class="cls-1" cx="505.06" cy="99.65" rx="2.23" ry="2.46"/><ellipse class="cls-1" cx="992.9" cy="185.67" rx="0.63" ry="0.69"/><ellipse class="cls-1" cx="918.9" cy="96.85" rx="0.86" ry="0.95"/><ellipse class="cls-1" cx="629.24" cy="106.61" rx="1.29" ry="1.42"/><ellipse class="cls-1" cx="597.31" cy="134.1" rx="1.14" ry="1.26"/><ellipse class="cls-1" cx="56.52" cy="127.88" rx="1.94" ry="2.14"/><ellipse class="cls-1" cx="575.19" cy="207.04" rx="0.68" ry="0.74"/><ellipse class="cls-1" cx="343.72" cy="127.63" rx="0.84" ry="0.92"/><ellipse class="cls-1" cx="177.13" cy="207.73" rx="1.6" ry="1.76"/><ellipse class="cls-1" cx="655.1" cy="179.15" rx="2.01" ry="2.22"/><ellipse class="cls-1" cx="102.51" cy="132.95" rx="2.08" ry="2.29"/><ellipse class="cls-1" cx="638.09" cy="192.89" rx="0.94" ry="1.04"/><ellipse class="cls-1" cx="488.61" cy="169.94" rx="2.04" ry="2.25"/><ellipse class="cls-1" cx="600.54" cy="200.96" rx="1.76" ry="1.94"/><ellipse class="cls-1" cx="572.16" cy="124.68" rx="1.65" ry="1.82"/><ellipse class="cls-1" cx="511.47" cy="198.16" rx="1.3" ry="1.43"/><ellipse class="cls-1" cx="509.32" cy="170.48" rx="0.4" ry="0.44"/><ellipse class="cls-1" cx="563.15" cy="201.18" rx="2.01" ry="2.22"/><ellipse class="cls-1" cx="405.16" cy="128.98" rx="0.85" ry="0.94"/><ellipse class="cls-1" cx="535.41" cy="124.09" rx="0.58" ry="0.64"/><ellipse class="cls-1" cx="513.08" cy="193.66" rx="1.88" ry="2.08"/><ellipse class="cls-1" cx="708.48" cy="214.99" rx="1.31" ry="1.44"/><ellipse class="cls-1" cx="508.54" cy="216.4" rx="0.62" ry="0.68"/><ellipse class="cls-1" cx="767.13" cy="169.81" rx="0.55" ry="0.6"/><ellipse class="cls-1" cx="575.67" cy="158.16" rx="1.16" ry="1.28"/><ellipse class="cls-1" cx="514.38" cy="220.75" rx="0.36" ry="0.4"/><ellipse class="cls-1" cx="739.58" cy="129.55" rx="0.45" ry="0.5"/><ellipse class="cls-1" cx="988.99" cy="199.85" rx="1.45" ry="1.59"/><ellipse class="cls-1" cx="1017.44" cy="188.02" rx="1.77" ry="1.95"/><ellipse class="cls-1" cx="926.91" cy="179.92" rx="2.25" ry="2.48"/><ellipse class="cls-1" cx="48.68" cy="153.64" rx="1.69" ry="1.86"/><ellipse class="cls-1" cx="588.77" cy="234.11" rx="1.63" ry="1.8"/><ellipse class="cls-1" cx="220.31" cy="157.38" rx="1.97" ry="2.18"/><ellipse class="cls-1" cx="656.25" cy="227.91" rx="0.74" ry="0.81"/><ellipse class="cls-1" cx="515.63" cy="186.88" rx="1.35" ry="1.49"/><ellipse class="cls-1" cx="278.33" cy="208.67" rx="1.82" ry="2"/><ellipse class="cls-1" cx="211.34" cy="209.69" rx="1.51" ry="1.66"/><ellipse class="cls-1" cx="252.49" cy="172.59" rx="2.05" ry="2.26"/><ellipse class="cls-1" cx="186.88" cy="174.27" rx="1.55" ry="1.71"/><ellipse class="cls-1" cx="312.29" cy="156.19" rx="0.23" ry="0.25"/><ellipse class="cls-1" cx="198.82" cy="192.72" rx="1.97" ry="2.17"/><ellipse class="cls-1" cx="760.87" cy="218.49" rx="1.7" ry="1.87"/><ellipse class="cls-1" cx="312.26" cy="184.86" rx="2.18" ry="2.4"/><ellipse class="cls-1" cx="764.92" cy="164.45" rx="1.07" ry="1.18"/><ellipse class="cls-1" cx="728.02" cy="226.54" rx="1.7" ry="1.88"/><ellipse class="cls-1" cx="647.66" cy="183.16" rx="1.47" ry="1.62"/><ellipse class="cls-1" cx="733.46" cy="201.83" rx="0.11" ry="0.13"/><ellipse class="cls-1" cx="938.53" cy="237.93" rx="1.61" ry="1.77"/><path class="cls-1" d="M477.41,202.42a1.78,1.78,0,0,1,1.91-1.7,1.87,1.87,0,0,1,1.54,2.1"/><ellipse class="cls-1" cx="605.94" cy="247.99" rx="0.26" ry="0.29"/><ellipse class="cls-1" cx="606.06" cy="215.17" rx="0.89" ry="0.98"/><ellipse class="cls-1" cx="481.88" cy="162.34" rx="0.4" ry="0.44"/><ellipse class="cls-1" cx="981.13" cy="201.06" rx="0.28" ry="0.31"/><ellipse class="cls-1" cx="84.06" cy="247.85" rx="0.81" ry="0.89"/><ellipse class="cls-1" cx="243.76" cy="253.78" rx="0.19" ry="0.2"/><ellipse class="cls-1" cx="112.43" cy="275.87" rx="1.35" ry="1.49"/><ellipse class="cls-1" cx="592.25" cy="193.81" rx="1.41" ry="1.56"/><ellipse class="cls-1" cx="506.18" cy="208.91" rx="1.19" ry="1.31"/><ellipse class="cls-1" cx="156.63" cy="269.16" rx="1.33" ry="1.47"/><ellipse class="cls-1" cx="672.2" cy="195.97" rx="1.8" ry="1.98"/><ellipse class="cls-1" cx="574.36" cy="241.89" rx="0.71" ry="0.78"/><ellipse class="cls-1" cx="612.65" cy="261.2" rx="1.15" ry="1.26"/><ellipse class="cls-1" cx="783.76" cy="266.31" rx="0.78" ry="0.86"/><ellipse class="cls-1" cx="885.81" cy="197.11" rx="1.16" ry="1.28"/><ellipse class="cls-1" cx="809.79" cy="242.39" rx="1.44" ry="1.59"/><ellipse class="cls-1" cx="645.2" cy="253.41" rx="1.1" ry="1.22"/><ellipse class="cls-1" cx="804.72" cy="235.9" rx="1.26" ry="1.39"/><ellipse class="cls-1" cx="907.54" cy="194" rx="0.27" ry="0.3"/><ellipse class="cls-1" cx="540.91" cy="227.16" rx="0.94" ry="1.03"/><ellipse class="cls-1" cx="1047.27" cy="233.05" rx="0.5" ry="0.55"/><ellipse class="cls-1" cx="818.11" cy="219.71" rx="0.22" ry="0.24"/><ellipse class="cls-1" cx="1016.24" cy="179.98" rx="1.28" ry="1.42"/><ellipse class="cls-1" cx="640.69" cy="303.63" rx="1.08" ry="1.19"/><ellipse class="cls-1" cx="141.89" cy="238.95" rx="1.75" ry="1.93"/><ellipse class="cls-1" cx="561.15" cy="243.88" rx="1.91" ry="2.1"/><ellipse class="cls-1" cx="607.52" cy="265.77" rx="1.35" ry="1.49"/><ellipse class="cls-1" cx="619.8" cy="264.75" rx="1.56" ry="1.72"/><ellipse class="cls-1" cx="700.87" cy="299.12" rx="1.24" ry="1.37"/><ellipse class="cls-1" cx="651.12" cy="301.15" rx="1.69" ry="1.86"/><ellipse class="cls-1" cx="213.11" cy="296.41" rx="1.58" ry="1.75"/><ellipse class="cls-1" cx="710.36" cy="285.42" rx="0.76" ry="0.84"/><ellipse class="cls-1" cx="743.82" cy="254.37" rx="0.31" ry="0.35"/><ellipse class="cls-1" cx="645.88" cy="238.43" rx="1.76" ry="1.94"/><ellipse class="cls-1" cx="527.74" cy="213.45" rx="1.92" ry="2.12"/><ellipse class="cls-1" cx="813.97" cy="215.3" rx="1.61" ry="1.78"/><ellipse class="cls-1" cx="692.66" cy="297.03" rx="1.98" ry="2.18"/><ellipse class="cls-1" cx="659.57" cy="279.87" rx="1.81" ry="1.99"/><ellipse class="cls-1" cx="856.88" cy="285.92" rx="0.39" ry="0.43"/><ellipse class="cls-1" cx="593.25" cy="219.34" rx="0.61" ry="0.67"/><ellipse class="cls-1" cx="623.96" cy="271.74" rx="1.21" ry="1.34"/><ellipse class="cls-1" cx="922" cy="269.79" rx="0.36" ry="0.39"/><ellipse class="cls-1" cx="982.2" cy="216.51" rx="0.41" ry="0.46"/><ellipse class="cls-1" cx="853.18" cy="229.12" rx="1.45" ry="1.59"/><ellipse class="cls-1" cx="248.23" cy="244.38" rx="2.22" ry="2.45"/><ellipse class="cls-1" cx="562.61" cy="318.57" rx="1.54" ry="1.7"/><ellipse class="cls-1" cx="573.02" cy="289.56" rx="1.71" ry="1.89"/><ellipse class="cls-1" cx="210.53" cy="339.85" rx="1.74" ry="1.92"/><ellipse class="cls-1" cx="567.39" cy="281.26" rx="1.9" ry="2.09"/><ellipse class="cls-1" cx="224.16" cy="317.58" rx="1.95" ry="2.15"/><ellipse class="cls-1" cx="743.2" cy="306.86" rx="0.19" ry="0.21"/><ellipse class="cls-1" cx="629.43" cy="259.22" rx="1.88" ry="2.07"/><ellipse class="cls-1" cx="678.27" cy="271.38" rx="1.37" ry="1.51"/><ellipse class="cls-1" cx="768.08" cy="247.66" rx="1.92" ry="2.11"/><ellipse class="cls-1" cx="535.41" cy="242.48" rx="0.23" ry="0.26"/><ellipse class="cls-1" cx="835.4" cy="290.56" rx="1.03" ry="1.14"/><ellipse class="cls-1" cx="821.86" cy="297.76" rx="2.02" ry="2.23"/><ellipse class="cls-1" cx="565.96" cy="300.31" rx="0.28" ry="0.3"/><ellipse class="cls-1" cx="637.28" cy="284.87" rx="0.16" ry="0.18"/><ellipse class="cls-1" cx="50.93" cy="348.79" rx="0.43" ry="0.47"/><ellipse class="cls-1" cx="114.16" cy="365.21" rx="1.78" ry="1.96"/><ellipse class="cls-1" cx="186.39" cy="287.36" rx="1.92" ry="2.12"/><ellipse class="cls-1" cx="107.73" cy="294" rx="0.67" ry="0.74"/><ellipse class="cls-1" cx="752.51" cy="323.92" rx="0.13" ry="0.14"/><ellipse class="cls-1" cx="567.36" cy="308.69" rx="1.93" ry="2.12"/><ellipse class="cls-1" cx="716.68" cy="348.93" rx="0.92" ry="1.01"/><ellipse class="cls-1" cx="564.85" cy="363.27" rx="0.42" ry="0.46"/><ellipse class="cls-1" cx="834.95" cy="298.16" rx="1.96" ry="2.16"/><ellipse class="cls-1" cx="555.45" cy="350.66" rx="1.78" ry="1.97"/><ellipse class="cls-1" cx="928.09" cy="312.12" rx="0.33" ry="0.36"/><ellipse class="cls-1" cx="995.48" cy="284.25" rx="1.9" ry="2.09"/><ellipse class="cls-1" cx="992.8" cy="337.21" rx="1.88" ry="2.07"/><ellipse class="cls-1" cx="622.34" cy="327.66" rx="0.12" ry="0.13"/><ellipse class="cls-1" cx="83.76" cy="346.08" rx="1.51" ry="1.66"/><ellipse class="cls-1" cx="206.9" cy="354.18" rx="2.03" ry="2.23"/><ellipse class="cls-1" cx="163.37" cy="333.43" rx="0.56" ry="0.61"/><ellipse class="cls-1" cx="550.61" cy="375.9" rx="0.71" ry="0.78"/><ellipse class="cls-1" cx="102.2" cy="312.47" rx="1.14" ry="1.26"/><ellipse class="cls-1" cx="193.3" cy="319.11" rx="0.51" ry="0.57"/><ellipse class="cls-1" cx="574.59" cy="331.45" rx="1.48" ry="1.64"/><ellipse class="cls-1" cx="741.84" cy="393.46" rx="1.71" ry="1.88"/><ellipse class="cls-1" cx="571.05" cy="382.86" rx="1.55" ry="1.71"/><ellipse class="cls-1" cx="193.57" cy="386.35" rx="1.72" ry="1.89"/><ellipse class="cls-1" cx="741.12" cy="401.97" rx="0.53" ry="0.58"/><ellipse class="cls-1" cx="725.88" cy="318.9" rx="1.61" ry="1.78"/><ellipse class="cls-1" cx="451.31" cy="392.45" rx="0.19" ry="0.21"/><ellipse class="cls-1" cx="467.16" cy="373.18" rx="1.53" ry="1.69"/><ellipse class="cls-1" cx="883.15" cy="345.8" rx="1.77" ry="1.95"/><ellipse class="cls-1" cx="579.73" cy="383.96" rx="1.87" ry="2.06"/><ellipse class="cls-1" cx="682.49" cy="303.96" rx="1.62" ry="1.79"/><ellipse class="cls-1" cx="705.37" cy="359.9" rx="0.98" ry="1.08"/><ellipse class="cls-1" cx="420.69" cy="372.97" rx="1.04" ry="1.15"/><ellipse class="cls-1" cx="889.87" cy="348.09" rx="1.63" ry="1.8"/><ellipse class="cls-1" cx="945.17" cy="380.92" rx="2.2" ry="2.42"/><ellipse class="cls-1" cx="965.34" cy="308.5" rx="0.79" ry="0.87"/><ellipse class="cls-1" cx="713.76" cy="306.49" rx="2.14" ry="2.36"/><ellipse class="cls-1" cx="542.76" cy="386.27" rx="1.58" ry="1.74"/><ellipse class="cls-1" cx="495.06" cy="425.94" rx="1.12" ry="1.23"/><ellipse class="cls-1" cx="22.62" cy="402.41" rx="0.7" ry="0.77"/><ellipse class="cls-1" cx="598.42" cy="392.63" rx="1.48" ry="1.63"/><ellipse class="cls-1" cx="483.13" cy="377.13" rx="0.93" ry="1.02"/><ellipse class="cls-1" cx="427.79" cy="414.05" rx="1.4" ry="1.55"/><ellipse class="cls-1" cx="178.96" cy="350.59" rx="1.24" ry="1.37"/><ellipse class="cls-1" cx="631.54" cy="406.32" rx="0.81" ry="0.89"/><ellipse class="cls-1" cx="619.09" cy="381.13" rx="1.2" ry="1.32"/><ellipse class="cls-1" cx="502.47" cy="391.21" rx="2.1" ry="2.31"/><ellipse class="cls-1" cx="276.89" cy="386.07" rx="0.25" ry="0.27"/><ellipse class="cls-1" cx="549.32" cy="349.68" rx="1.51" ry="1.67"/><ellipse class="cls-1" cx="227.75" cy="362.84" rx="1.21" ry="1.33"/><ellipse class="cls-1" cx="594.7" cy="354.44" rx="0.12" ry="0.13"/><ellipse class="cls-1" cx="810.67" cy="360.27" rx="0.88" ry="0.98"/><ellipse class="cls-1" cx="673.31" cy="337.25" rx="0.85" ry="0.94"/><ellipse class="cls-1" cx="849.03" cy="357.34" rx="2.16" ry="2.39"/><ellipse class="cls-1" cx="851.98" cy="355.81" rx="0.62" ry="0.69"/><ellipse class="cls-1" cx="557.43" cy="366.82" rx="0.43" ry="0.47"/><ellipse class="cls-1" cx="591.6" cy="364.96" rx="0.94" ry="1.04"/><ellipse class="cls-1" cx="884.02" cy="344.23" rx="0.86" ry="0.95"/><ellipse class="cls-1" cx="820.73" cy="405.31" rx="0.6" ry="0.66"/><ellipse class="cls-1" cx="414.44" cy="417.41" rx="1.02" ry="1.13"/><ellipse class="cls-1" cx="875.64" cy="428.55" rx="0.16" ry="0.18"/><ellipse class="cls-1" cx="888.51" cy="338.6" rx="1.31" ry="1.45"/><ellipse class="cls-1" cx="398.76" cy="240.31" rx="0.78" ry="0.86"/><ellipse class="cls-1" cx="424.79" cy="216.39" rx="1.44" ry="1.59"/><ellipse class="cls-1" cx="315.87" cy="273.12" rx="1.24" ry="1.37"/><ellipse class="cls-1" cx="325.36" cy="259.42" rx="0.76" ry="0.84"/><ellipse class="cls-1" cx="358.82" cy="228.37" rx="0.31" ry="0.35"/><ellipse class="cls-1" cx="307.66" cy="271.03" rx="1.98" ry="2.18"/><ellipse class="cls-1" cx="471.88" cy="259.92" rx="0.39" ry="0.43"/><ellipse class="cls-1" cx="358.2" cy="280.86" rx="0.19" ry="0.21"/><ellipse class="cls-1" cx="383.08" cy="221.66" rx="1.92" ry="2.11"/><ellipse class="cls-1" cx="450.4" cy="264.56" rx="1.03" ry="1.14"/><ellipse class="cls-1" cx="436.86" cy="271.76" rx="2.02" ry="2.23"/><ellipse class="cls-1" cx="367.51" cy="297.92" rx="0.13" ry="0.14"/><ellipse class="cls-1" cx="331.68" cy="322.93" rx="0.92" ry="1.01"/><ellipse class="cls-1" cx="449.95" cy="272.16" rx="1.96" ry="2.16"/><ellipse class="cls-1" cx="356.84" cy="367.46" rx="1.71" ry="1.88"/><ellipse class="cls-1" cx="356.12" cy="375.97" rx="0.53" ry="0.58"/><ellipse class="cls-1" cx="340.88" cy="292.9" rx="1.61" ry="1.78"/><ellipse class="cls-1" cx="297.49" cy="277.96" rx="1.62" ry="1.79"/><ellipse class="cls-1" cx="320.37" cy="333.9" rx="0.98" ry="1.08"/><ellipse class="cls-1" cx="328.76" cy="280.49" rx="2.14" ry="2.36"/><ellipse class="cls-1" cx="425.67" cy="334.27" rx="0.88" ry="0.98"/><ellipse class="cls-1" cx="464.03" cy="331.34" rx="2.16" ry="2.39"/><ellipse class="cls-1" cx="466.98" cy="329.81" rx="0.62" ry="0.69"/><ellipse class="cls-1" cx="435.73" cy="379.31" rx="0.6" ry="0.66"/><ellipse class="cls-1" cx="0.61" cy="445" rx="0.61" ry="0.67"/><ellipse class="cls-1" cx="204.36" cy="471.27" rx="2.24" ry="2.47"/><ellipse class="cls-1" cx="569.38" cy="471.61" rx="2.19" ry="2.41"/><ellipse class="cls-1" cx="20.17" cy="517.35" rx="0.23" ry="0.26"/><ellipse class="cls-1" cx="583.94" cy="483.97" rx="1.03" ry="1.13"/><ellipse class="cls-1" cx="367.04" cy="474.1" rx="1.34" ry="1.47"/><ellipse class="cls-1" cx="392.07" cy="430.68" rx="2.1" ry="2.31"/><ellipse class="cls-1" cx="319.48" cy="493.9" rx="1.35" ry="1.49"/><ellipse class="cls-1" cx="292.83" cy="504.67" rx="0.55" ry="0.6"/><ellipse class="cls-1" cx="437.05" cy="508" rx="1.83" ry="2.01"/><ellipse class="cls-1" cx="648.07" cy="459.2" rx="0.78" ry="0.86"/><ellipse class="cls-1" cx="455.58" cy="486.29" rx="1.81" ry="1.99"/><ellipse class="cls-1" cx="327.74" cy="511.41" rx="0.27" ry="0.3"/><ellipse class="cls-1" cx="390.78" cy="484.64" rx="1.69" ry="1.86"/><ellipse class="cls-1" cx="471.57" cy="433.27" rx="0.55" ry="0.61"/><ellipse class="cls-1" cx="610.06" cy="479.56" rx="1.97" ry="2.17"/><ellipse class="cls-1" cx="236.35" cy="430.19" rx="0.16" ry="0.18"/><ellipse class="cls-1" cx="872.9" cy="490.55" rx="1.19" ry="1.31"/><ellipse class="cls-1" cx="399.03" cy="506.93" rx="1.89" ry="2.09"/><ellipse class="cls-1" cx="878.91" cy="489.8" rx="1.66" ry="1.83"/><ellipse class="cls-1" cx="849.67" cy="521.2" rx="1.97" ry="2.17"/><ellipse class="cls-1" cx="419.06" cy="499.52" rx="1.51" ry="1.67"/><ellipse class="cls-1" cx="861.63" cy="524.63" rx="2.12" ry="2.34"/><ellipse class="cls-1" cx="399.79" cy="476.65" rx="0.95" ry="1.05"/><ellipse class="cls-1" cx="869.75" cy="491.31" rx="1.45" ry="1.6"/><ellipse class="cls-1" cx="931.17" cy="485.16" rx="1.28" ry="1.42"/><ellipse class="cls-1" cx="677.34" cy="433.77" rx="0.48" ry="0.52"/><ellipse class="cls-1" cx="432.98" cy="486.81" rx="0.98" ry="1.08"/><ellipse class="cls-1" cx="585.82" cy="537.54" rx="2.1" ry="2.31"/><ellipse class="cls-1" cx="601.5" cy="464.4" rx="1.67" ry="1.84"/><ellipse class="cls-1" cx="132.28" cy="528.16" rx="1.11" ry="1.23"/><ellipse class="cls-1" cx="368.97" cy="542.55" rx="0.45" ry="0.5"/><ellipse class="cls-1" cx="420.82" cy="535.64" rx="0.84" ry="0.93"/><ellipse class="cls-1" cx="77.06" cy="485.95" rx="0.73" ry="0.8"/><ellipse class="cls-1" cx="162.08" cy="536.55" rx="0.97" ry="1.07"/><ellipse class="cls-1" cx="265.4" cy="540.16" rx="0.75" ry="0.82"/><ellipse class="cls-1" cx="294.44" cy="538.5" rx="1.81" ry="2"/><ellipse class="cls-1" cx="553.16" cy="528.85" rx="0.67" ry="0.74"/><ellipse class="cls-1" cx="445.31" cy="521.13" rx="1.33" ry="1.47"/><ellipse class="cls-1" cx="663.38" cy="538.53" rx="0.28" ry="0.3"/><ellipse class="cls-1" cx="709.12" cy="464.7" rx="2.07" ry="2.28"/><ellipse class="cls-1" cx="415.35" cy="490.9" rx="2.23" ry="2.46"/><ellipse class="cls-1" cx="489.34" cy="466.01" rx="2.22" ry="2.45"/><ellipse class="cls-1" cx="590.18" cy="502.56" rx="1.74" ry="1.92"/><ellipse class="cls-1" cx="752.54" cy="542.01" rx="1" ry="1.1"/><ellipse class="cls-1" cx="860.1" cy="532.27" rx="1.14" ry="1.25"/><ellipse class="cls-1" cx="807.16" cy="520.72" rx="1" ry="1.1"/><ellipse class="cls-1" cx="495.23" cy="515.73" rx="2.18" ry="2.41"/><ellipse class="cls-1" cx="398.91" cy="519.85" rx="1.15" ry="1.27"/><ellipse class="cls-1" cx="578.02" cy="487.87" rx="1.85" ry="2.04"/><ellipse class="cls-1" cx="774.68" cy="512.74" rx="1.81" ry="2"/><ellipse class="cls-1" cx="742.35" cy="492.57" rx="0.23" ry="0.26"/><ellipse class="cls-1" cx="905.73" cy="481.87" rx="0.41" ry="0.45"/><ellipse class="cls-1" cx="594.43" cy="479.96" rx="1.16" ry="1.28"/><ellipse class="cls-1" cx="442.46" cy="490.95" rx="1.34" ry="1.48"/><ellipse class="cls-1" cx="247.26" cy="522.17" rx="1.26" ry="1.39"/><ellipse class="cls-1" cx="277.09" cy="489.36" rx="1.43" ry="1.57"/><ellipse class="cls-1" cx="367.49" cy="561.6" rx="1.89" ry="2.09"/><ellipse class="cls-1" cx="351.86" cy="514.2" rx="0.34" ry="0.38"/><ellipse class="cls-1" cx="102.75" cy="556.67" rx="0.91" ry="1"/><ellipse class="cls-1" cx="63" cy="569.8" rx="1.67" ry="1.84"/><ellipse class="cls-1" cx="143.81" cy="505.11" rx="0.8" ry="0.89"/><ellipse class="cls-1" cx="263.25" cy="549.73" rx="0.18" ry="0.19"/><ellipse class="cls-1" cx="402.43" cy="509.74" rx="1.02" ry="1.12"/><ellipse class="cls-1" cx="278.62" cy="515.34" rx="0.66" ry="0.73"/><ellipse class="cls-1" cx="321.34" cy="500.68" rx="0.16" ry="0.18"/><ellipse class="cls-1" cx="241.97" cy="561.74" rx="1.44" ry="1.59"/><ellipse class="cls-1" cx="691.84" cy="545.16" rx="1.78" ry="1.97"/><ellipse class="cls-1" cx="490.27" cy="571.34" rx="0.82" ry="0.91"/><ellipse class="cls-1" cx="631" cy="544.76" rx="2.07" ry="2.29"/><ellipse class="cls-1" cx="565.4" cy="554.84" rx="0.5" ry="0.55"/><ellipse class="cls-1" cx="510.29" cy="520.21" rx="0.45" ry="0.49"/><ellipse class="cls-1" cx="357.21" cy="579.8" rx="1.79" ry="1.98"/><ellipse class="cls-1" cx="678.44" cy="583.63" rx="0.71" ry="0.79"/><ellipse class="cls-1" cx="850.03" cy="586.59" rx="1.01" ry="1.11"/><ellipse class="cls-1" cx="422.47" cy="498.26" rx="0.68" ry="0.75"/><ellipse class="cls-1" cx="663.32" cy="491.93" rx="1.25" ry="1.38"/><ellipse class="cls-1" cx="975.66" cy="525.84" rx="0.32" ry="0.35"/><ellipse class="cls-1" cx="448.3" cy="579.94" rx="1.87" ry="2.06"/><ellipse class="cls-1" cx="510.81" cy="561.22" rx="0.5" ry="0.55"/><ellipse class="cls-1" cx="539.68" cy="580.61" rx="2.18" ry="2.4"/><ellipse class="cls-1" cx="308.82" cy="585.77" rx="0.95" ry="1.05"/><ellipse class="cls-1" cx="260.04" cy="566.82" rx="0.11" ry="0.13"/><ellipse class="cls-1" cx="282.44" cy="553.05" rx="1.67" ry="1.84"/><ellipse class="cls-1" cx="545.79" cy="583.89" rx="0.75" ry="0.83"/><ellipse class="cls-1" cx="633.07" cy="572.12" rx="1.44" ry="1.59"/><ellipse class="cls-1" cx="644.35" cy="576.56" rx="0.4" ry="0.45"/><ellipse class="cls-1" cx="389.98" cy="568.29" rx="1.92" ry="2.12"/><ellipse class="cls-1" cx="581.35" cy="593.53" rx="2.21" ry="2.43"/><ellipse class="cls-1" cx="87.3" cy="586.37" rx="0.22" ry="0.24"/><ellipse class="cls-1" cx="147.73" cy="534.43" rx="0.71" ry="0.78"/><ellipse class="cls-1" cx="724.96" cy="550.49" rx="2.18" ry="2.4"/><ellipse class="cls-1" cx="518.97" cy="553.41" rx="0.14" ry="0.15"/><ellipse class="cls-1" cx="428.4" cy="611.31" rx="0.39" ry="0.43"/><ellipse class="cls-1" cx="399.07" cy="550.11" rx="1.73" ry="1.91"/><ellipse class="cls-1" cx="234" cy="580.8" rx="0.95" ry="1.04"/><ellipse class="cls-1" cx="655.23" cy="548.17" rx="0.98" ry="1.08"/><ellipse class="cls-1" cx="590.01" cy="554.52" rx="1.98" ry="2.18"/><ellipse class="cls-1" cx="303.15" cy="561.24" rx="1.3" ry="1.43"/><ellipse class="cls-1" cx="634.94" cy="521.39" rx="1.56" ry="1.72"/><ellipse class="cls-1" cx="348.13" cy="546.55" rx="1.11" ry="1.23"/><ellipse class="cls-1" cx="888.22" cy="560.93" rx="0.52" ry="0.58"/><ellipse class="cls-1" cx="881.29" cy="545.87" rx="1.58" ry="1.74"/><ellipse class="cls-1" cx="465.27" cy="528.02" rx="2.23" ry="2.46"/><ellipse class="cls-1" cx="953.11" cy="614.04" rx="0.63" ry="0.69"/><ellipse class="cls-1" cx="879.11" cy="525.22" rx="0.86" ry="0.95"/><ellipse class="cls-1" cx="589.44" cy="534.98" rx="1.29" ry="1.42"/><ellipse class="cls-1" cx="557.52" cy="562.47" rx="1.14" ry="1.26"/><ellipse class="cls-1" cx="16.73" cy="556.25" rx="1.94" ry="2.14"/><ellipse class="cls-1" cx="535.4" cy="635.41" rx="0.68" ry="0.74"/><ellipse class="cls-1" cx="303.93" cy="556" rx="0.84" ry="0.92"/><ellipse class="cls-1" cx="137.34" cy="636.1" rx="1.6" ry="1.76"/><ellipse class="cls-1" cx="615.3" cy="607.52" rx="2.01" ry="2.22"/><ellipse class="cls-1" cx="62.72" cy="561.32" rx="2.08" ry="2.29"/><ellipse class="cls-1" cx="598.3" cy="621.26" rx="0.94" ry="1.04"/><ellipse class="cls-1" cx="448.82" cy="598.31" rx="2.04" ry="2.25"/><ellipse class="cls-1" cx="560.74" cy="629.33" rx="1.76" ry="1.94"/><ellipse class="cls-1" cx="532.37" cy="553.05" rx="1.65" ry="1.82"/><ellipse class="cls-1" cx="471.67" cy="626.53" rx="1.3" ry="1.43"/><ellipse class="cls-1" cx="469.53" cy="598.85" rx="0.4" ry="0.44"/><ellipse class="cls-1" cx="523.35" cy="629.55" rx="2.01" ry="2.22"/><ellipse class="cls-1" cx="365.37" cy="557.34" rx="0.85" ry="0.94"/><ellipse class="cls-1" cx="495.62" cy="552.46" rx="0.58" ry="0.64"/><ellipse class="cls-1" cx="473.29" cy="622.03" rx="1.88" ry="2.08"/><ellipse class="cls-1" cx="668.69" cy="643.36" rx="1.31" ry="1.44"/><ellipse class="cls-1" cx="468.74" cy="644.76" rx="0.62" ry="0.68"/><ellipse class="cls-1" cx="727.34" cy="598.18" rx="0.55" ry="0.6"/><ellipse class="cls-1" cx="535.88" cy="586.53" rx="1.16" ry="1.28"/><ellipse class="cls-1" cx="474.59" cy="649.12" rx="0.36" ry="0.4"/><ellipse class="cls-1" cx="699.79" cy="557.92" rx="0.45" ry="0.5"/><ellipse class="cls-1" cx="949.2" cy="628.22" rx="1.45" ry="1.59"/><ellipse class="cls-1" cx="977.65" cy="616.39" rx="1.77" ry="1.95"/><ellipse class="cls-1" cx="887.12" cy="608.29" rx="2.25" ry="2.48"/><ellipse class="cls-1" cx="8.88" cy="582.01" rx="1.69" ry="1.86"/><ellipse class="cls-1" cx="548.98" cy="662.48" rx="1.63" ry="1.8"/><ellipse class="cls-1" cx="180.52" cy="585.75" rx="1.97" ry="2.18"/><ellipse class="cls-1" cx="616.46" cy="656.28" rx="0.74" ry="0.81"/><ellipse class="cls-1" cx="475.83" cy="615.25" rx="1.35" ry="1.49"/><ellipse class="cls-1" cx="238.53" cy="637.04" rx="1.82" ry="2"/><ellipse class="cls-1" cx="171.55" cy="638.06" rx="1.51" ry="1.66"/><ellipse class="cls-1" cx="212.7" cy="600.95" rx="2.05" ry="2.26"/><ellipse class="cls-1" cx="147.09" cy="602.64" rx="1.55" ry="1.71"/><ellipse class="cls-1" cx="272.5" cy="584.56" rx="0.23" ry="0.25"/><ellipse class="cls-1" cx="159.03" cy="621.09" rx="1.97" ry="2.17"/><ellipse class="cls-1" cx="721.07" cy="646.86" rx="1.7" ry="1.87"/><ellipse class="cls-1" cx="272.47" cy="613.23" rx="2.18" ry="2.4"/><ellipse class="cls-1" cx="725.13" cy="592.82" rx="1.07" ry="1.18"/><ellipse class="cls-1" cx="688.23" cy="654.91" rx="1.7" ry="1.88"/><ellipse class="cls-1" cx="607.87" cy="611.53" rx="1.47" ry="1.62"/><ellipse class="cls-1" cx="693.66" cy="630.2" rx="0.11" ry="0.13"/><ellipse class="cls-1" cx="898.74" cy="666.3" rx="1.61" ry="1.77"/><path class="cls-1" d="M437.61,630.79a1.79,1.79,0,0,1,1.91-1.7,1.87,1.87,0,0,1,1.55,2.1"/><ellipse class="cls-1" cx="566.14" cy="676.36" rx="0.26" ry="0.29"/><ellipse class="cls-1" cx="566.26" cy="643.54" rx="0.89" ry="0.98"/><ellipse class="cls-1" cx="442.09" cy="590.71" rx="0.4" ry="0.44"/><ellipse class="cls-1" cx="941.34" cy="629.43" rx="0.28" ry="0.31"/><ellipse class="cls-1" cx="44.27" cy="676.22" rx="0.81" ry="0.89"/><ellipse class="cls-1" cx="203.96" cy="682.14" rx="0.19" ry="0.2"/><ellipse class="cls-1" cx="72.64" cy="704.24" rx="1.35" ry="1.49"/><ellipse class="cls-1" cx="552.46" cy="622.18" rx="1.41" ry="1.56"/><ellipse class="cls-1" cx="466.39" cy="637.28" rx="1.19" ry="1.31"/><ellipse class="cls-1" cx="116.84" cy="697.53" rx="1.33" ry="1.47"/><ellipse class="cls-1" cx="632.41" cy="624.34" rx="1.8" ry="1.98"/><ellipse class="cls-1" cx="534.57" cy="670.26" rx="0.71" ry="0.78"/><ellipse class="cls-1" cx="572.86" cy="689.57" rx="1.15" ry="1.26"/><ellipse class="cls-1" cx="743.97" cy="694.68" rx="0.78" ry="0.86"/><ellipse class="cls-1" cx="846.02" cy="625.48" rx="1.16" ry="1.28"/><ellipse class="cls-1" cx="770" cy="670.76" rx="1.44" ry="1.59"/><ellipse class="cls-1" cx="605.41" cy="681.78" rx="1.1" ry="1.22"/><ellipse class="cls-1" cx="764.93" cy="664.27" rx="1.26" ry="1.39"/><ellipse class="cls-1" cx="867.75" cy="622.37" rx="0.27" ry="0.3"/><ellipse class="cls-1" cx="501.11" cy="655.53" rx="0.94" ry="1.03"/><ellipse class="cls-1" cx="1007.48" cy="661.42" rx="0.5" ry="0.55"/><ellipse class="cls-1" cx="778.31" cy="648.08" rx="0.22" ry="0.24"/><ellipse class="cls-1" cx="976.45" cy="608.35" rx="1.28" ry="1.42"/><ellipse class="cls-1" cx="600.9" cy="732" rx="1.08" ry="1.19"/><ellipse class="cls-1" cx="102.1" cy="667.32" rx="1.75" ry="1.93"/><ellipse class="cls-1" cx="521.36" cy="672.25" rx="1.91" ry="2.1"/><ellipse class="cls-1" cx="567.73" cy="694.14" rx="1.35" ry="1.49"/><ellipse class="cls-1" cx="580.01" cy="693.12" rx="1.56" ry="1.72"/><ellipse class="cls-1" cx="661.07" cy="727.49" rx="1.24" ry="1.37"/><ellipse class="cls-1" cx="611.33" cy="729.51" rx="1.69" ry="1.86"/><ellipse class="cls-1" cx="173.32" cy="724.78" rx="1.58" ry="1.75"/><ellipse class="cls-1" cx="670.57" cy="713.79" rx="0.76" ry="0.84"/><ellipse class="cls-1" cx="704.03" cy="682.74" rx="0.31" ry="0.35"/><ellipse class="cls-1" cx="606.08" cy="666.8" rx="1.76" ry="1.94"/><ellipse class="cls-1" cx="487.95" cy="641.82" rx="1.92" ry="2.12"/><ellipse class="cls-1" cx="774.18" cy="643.67" rx="1.61" ry="1.78"/><ellipse class="cls-1" cx="652.87" cy="725.4" rx="1.98" ry="2.18"/><ellipse class="cls-1" cx="619.78" cy="708.24" rx="1.81" ry="1.99"/><ellipse class="cls-1" cx="817.08" cy="714.29" rx="0.39" ry="0.43"/><ellipse class="cls-1" cx="553.46" cy="647.71" rx="0.61" ry="0.67"/><ellipse class="cls-1" cx="584.17" cy="700.11" rx="1.21" ry="1.34"/><ellipse class="cls-1" cx="882.21" cy="698.16" rx="0.36" ry="0.39"/><ellipse class="cls-1" cx="942.41" cy="644.87" rx="0.41" ry="0.46"/><ellipse class="cls-1" cx="813.38" cy="657.49" rx="1.45" ry="1.59"/><ellipse class="cls-1" cx="208.44" cy="672.75" rx="2.22" ry="2.45"/><ellipse class="cls-1" cx="522.82" cy="746.94" rx="1.54" ry="1.7"/><ellipse class="cls-1" cx="533.23" cy="717.93" rx="1.71" ry="1.89"/><ellipse class="cls-1" cx="170.74" cy="768.21" rx="1.74" ry="1.92"/><ellipse class="cls-1" cx="527.6" cy="709.63" rx="1.9" ry="2.09"/><ellipse class="cls-1" cx="184.37" cy="745.95" rx="1.95" ry="2.15"/><ellipse class="cls-1" cx="703.4" cy="735.23" rx="0.19" ry="0.21"/><ellipse class="cls-1" cx="589.64" cy="687.58" rx="1.88" ry="2.07"/><ellipse class="cls-1" cx="638.47" cy="699.75" rx="1.37" ry="1.51"/><ellipse class="cls-1" cx="728.29" cy="676.03" rx="1.92" ry="2.11"/><ellipse class="cls-1" cx="495.62" cy="670.85" rx="0.23" ry="0.26"/><ellipse class="cls-1" cx="795.61" cy="718.93" rx="1.03" ry="1.14"/><ellipse class="cls-1" cx="782.07" cy="726.13" rx="2.02" ry="2.23"/><ellipse class="cls-1" cx="526.17" cy="728.68" rx="0.28" ry="0.3"/><ellipse class="cls-1" cx="597.49" cy="713.24" rx="0.16" ry="0.18"/><ellipse class="cls-1" cx="146.59" cy="715.73" rx="1.92" ry="2.12"/><ellipse class="cls-1" cx="67.94" cy="722.37" rx="0.67" ry="0.74"/><ellipse class="cls-1" cx="712.72" cy="752.29" rx="0.13" ry="0.14"/><ellipse class="cls-1" cx="527.57" cy="737.05" rx="1.93" ry="2.12"/><ellipse class="cls-1" cx="795.15" cy="726.53" rx="1.96" ry="2.16"/><ellipse class="cls-1" cx="888.3" cy="740.48" rx="0.33" ry="0.36"/><ellipse class="cls-1" cx="955.68" cy="712.62" rx="1.9" ry="2.09"/><ellipse class="cls-1" cx="953" cy="765.58" rx="1.88" ry="2.07"/><ellipse class="cls-1" cx="582.55" cy="756.02" rx="0.12" ry="0.13"/><ellipse class="cls-1" cx="123.58" cy="761.8" rx="0.56" ry="0.61"/><ellipse class="cls-1" cx="62.41" cy="740.84" rx="1.14" ry="1.26"/><ellipse class="cls-1" cx="153.51" cy="747.48" rx="0.51" ry="0.57"/><ellipse class="cls-1" cx="534.8" cy="759.82" rx="1.48" ry="1.64"/><ellipse class="cls-1" cx="686.09" cy="747.27" rx="1.61" ry="1.78"/><ellipse class="cls-1" cx="642.7" cy="732.33" rx="1.62" ry="1.79"/><ellipse class="cls-1" cx="925.55" cy="736.87" rx="0.79" ry="0.87"/><ellipse class="cls-1" cx="673.97" cy="734.86" rx="2.14" ry="2.36"/><ellipse class="cls-1" cx="633.52" cy="765.62" rx="0.85" ry="0.94"/><ellipse class="cls-1" cx="848.72" cy="766.97" rx="1.31" ry="1.45"/><ellipse class="cls-1" cx="358.97" cy="668.68" rx="0.78" ry="0.86"/><ellipse class="cls-1" cx="385" cy="644.76" rx="1.44" ry="1.59"/><ellipse class="cls-1" cx="276.07" cy="701.49" rx="1.24" ry="1.37"/><ellipse class="cls-1" cx="285.57" cy="687.79" rx="0.76" ry="0.84"/><ellipse class="cls-1" cx="319.03" cy="656.74" rx="0.31" ry="0.35"/><ellipse class="cls-1" cx="267.87" cy="699.4" rx="1.98" ry="2.18"/><ellipse class="cls-1" cx="432.08" cy="688.29" rx="0.39" ry="0.43"/><ellipse class="cls-1" cx="318.4" cy="709.23" rx="0.19" ry="0.21"/><ellipse class="cls-1" cx="343.29" cy="650.03" rx="1.92" ry="2.11"/><ellipse class="cls-1" cx="410.61" cy="692.93" rx="1.03" ry="1.14"/><ellipse class="cls-1" cx="397.07" cy="700.13" rx="2.02" ry="2.23"/><ellipse class="cls-1" cx="327.72" cy="726.29" rx="0.13" ry="0.14"/><ellipse class="cls-1" cx="291.88" cy="751.3" rx="0.92" ry="1.01"/><ellipse class="cls-1" cx="410.15" cy="700.53" rx="1.96" ry="2.16"/><ellipse class="cls-1" cx="301.09" cy="721.27" rx="1.61" ry="1.78"/><ellipse class="cls-1" cx="257.7" cy="706.33" rx="1.62" ry="1.79"/><ellipse class="cls-1" cx="280.58" cy="762.27" rx="0.98" ry="1.08"/><ellipse class="cls-1" cx="288.97" cy="708.86" rx="2.14" ry="2.36"/><ellipse class="cls-1" cx="385.87" cy="762.64" rx="0.88" ry="0.98"/><ellipse class="cls-1" cx="424.24" cy="759.71" rx="2.16" ry="2.39"/><ellipse class="cls-1" cx="427.19" cy="758.18" rx="0.62" ry="0.69"/></g></g></svg>