<svg xmlns="http://www.w3.org/2000/svg" viewBox="0 0 97.97 89.55"><defs><style>.cls-1{fill:#03c7c7;}.cls-2{fill:#116d68;}.cls-3{fill:#1b1d1e;}</style></defs><title>lock-main</title><g id="Layer_2" data-name="Layer 2"><g id="Layer_7" data-name="Layer 7"><path class="cls-1" d="M49.38,0H49A49,49,0,0,0,0,49H0a40.46,40.46,0,0,0,12.52,29.3L79.85,11A48.75,48.75,0,0,0,49.38,0Z"/><path class="cls-2" d="M79.85,11,12.52,78.29A40.45,40.45,0,0,0,40.57,89.55H57.41A40.56,40.56,0,0,0,98,49h0A48.88,48.88,0,0,0,79.85,11Z"/><path class="cls-1" d="M69.53,21.28,22.39,68.42a33.61,33.61,0,0,0,26.8,13.31h.19A33.64,33.64,0,0,0,69.53,21.28Z"/><path class="cls-2" d="M49.38,14.44h-.19a33.65,33.65,0,0,0-26.8,54L69.53,21.28A33.62,33.62,0,0,0,49.38,14.44Z"/><path class="cls-3" d="M58.05,42.3a8.7,8.7,0,1,0-11.79,8.12V65.55h6.19V50.42A8.7,8.7,0,0,0,58.05,42.3Z"/></g></g></svg>